<svg
   xmlns="http://www.w3.org/2000/svg"
   style="overflow:visible"
   enable-background="new 0 0 164.448 226.771"
   overflow="visible"
   viewBox="0 0 399.58909 597.75868"
   height="597.75867"
   width="399.58908"
   id="Layer_1"
   version="1.1"><path
   style="fill:#ffffff;fill-rule:evenodd;stroke-width:4.61941671"
   id="path2-3"
   d="M 67.698975,1.6511947 H 331.8901 c 36.59472,0 66.04779,29.4530703 66.04779,66.0477803 V 530.05965 c 0,36.59079 -29.45307,66.04779 -66.04779,66.04779 H 67.698975 c -36.5921,0 -66.0477803,-29.45831 -66.0477803,-66.04779 V 67.698975 c 0,-36.59471 29.4556803,-66.0477803 66.0477803,-66.0477803 z" /><path
   style="fill:none;stroke:#000000;stroke-width:3.30238938"
   id="path4-6"
   d="M 67.698975,1.6511947 H 331.8901 c 36.59472,0 66.04779,29.4530703 66.04779,66.0477803 V 530.05965 c 0,36.59079 -29.45307,66.04779 -66.04779,66.04779 H 67.698975 c -36.5921,0 -66.0477803,-29.45831 -66.0477803,-66.04779 V 67.698975 c 0,-36.59471 29.4556803,-66.0477803 66.0477803,-66.0477803 z" /><path
   style="fill:#ff0000;fill-rule:evenodd;stroke-width:4.61941671"
   id="path8-6"
   d="m 298.88061,133.71573 c -145.91008,0 -264.191125,118.28498 -264.191125,264.19113 0,36.47948 29.56568,66.04778 66.047775,66.04778 145.91008,0 264.19114,-118.28891 264.19114,-264.19113 0,-36.47948 -29.5683,-66.04778 -66.04779,-66.04778 z" /><path
   d="m 69.574208,37.652836 -0.448,4.106667 c -3.509334,-3.957333 -7.914667,-4.629333 -10.304,-4.629333 -10.826666,0 -20.085333,9.557333 -20.085333,23.221332 0,11.274667 6.645334,22.773333 21.354666,22.773333 6.944,0 12.992,-2.538667 16.277333,-3.957333 v -11.872 h 3.509333 V 61.172836 H 59.120875 v 6.122666 h 10.751999 v 7.392 c -5.151999,1.941333 -8.885333,2.016 -9.706666,2.016 -9.856,0 -14.559999,-7.093333 -14.559999,-16.426666 0,-10.304 5.973333,-16.725333 13.663999,-16.725333 9.109333,0 10.08,7.242666 10.602666,11.498666 l 6.272,-0.821333 c -0.373333,-1.866667 -0.896,-4.48 -0.896,-9.258667 0,-3.061333 0.149333,-5.450666 0.298667,-7.317333 z"
   style="font-style:normal;font-variant:normal;font-weight:bold;font-stretch:normal;font-size:74.66666412px;line-height:1.25;font-family:Courier;-inkscape-font-specification:'Courier Bold';letter-spacing:0px;word-spacing:0px;fill:#000000;fill-opacity:1;stroke:none"
   id="path52" /><path
   d="m 88.211707,38.399503 v 6.122666 h 9.632 l -12.768,31.285333 h -4.330666 v 6.122666 H 98.44104 v -6.122666 h -6.645333 l 2.912,-7.317333 h 16.800003 l 2.912,7.317333 h -6.57067 v 6.122666 h 17.696 v -6.122666 h -4.18133 L 106.20637,38.399503 Z M 109.11837,62.367502 H 97.246374 l 5.898666,-14.261333 z"
   style="font-style:normal;font-variant:normal;font-weight:bold;font-stretch:normal;font-size:74.66666412px;line-height:1.25;font-family:Courier;-inkscape-font-specification:'Courier Bold';letter-spacing:0px;word-spacing:0px;fill:#000000;fill-opacity:1;stroke:none"
   id="path54" /><path
   d="m 129.09987,38.399503 v 6.122666 h 7.168 v 31.285333 h -7.168 v 6.122666 h 37.632 l 0.97067,-20.906666 h -6.34667 l -0.97066,14.784 H 142.76387 V 44.522169 h 8.96 v -6.122666 z"
   style="font-style:normal;font-variant:normal;font-weight:bold;font-stretch:normal;font-size:74.66666412px;line-height:1.25;font-family:Courier;-inkscape-font-specification:'Courier Bold';letter-spacing:0px;word-spacing:0px;fill:#000000;fill-opacity:1;stroke:none"
   id="path56" /><path
   d="m 173.87071,38.399503 v 6.122666 h 7.168 v 31.285333 h -7.168 v 6.122666 h 37.632 l 0.97066,-20.906666 h -6.34666 l -0.97067,14.784 H 187.53471 V 44.522169 h 8.96 v -6.122666 z"
   style="font-style:normal;font-variant:normal;font-weight:bold;font-stretch:normal;font-size:74.66666412px;line-height:1.25;font-family:Courier;-inkscape-font-specification:'Courier Bold';letter-spacing:0px;word-spacing:0px;fill:#000000;fill-opacity:1;stroke:none"
   id="path58" /><path
   d="m 217.44687,60.202169 c 0,12.693333 7.98933,22.922666 20.01067,22.922666 12.096,0 20.01066,-10.304 20.01066,-22.997333 0,-12.618666 -7.84,-22.997332 -20.01066,-22.997332 -12.17067,0 -20.01067,10.453333 -20.01067,23.071999 z m 6.86933,-0.07467 c 0,-8.661333 4.85334,-16.575999 13.14134,-16.575999 8.512,0 13.14133,8.213333 13.14133,16.575999 0,8.810667 -4.85333,16.576 -13.14133,16.576 -8.21334,0 -13.14134,-7.84 -13.14134,-16.576 z"
   style="font-style:normal;font-variant:normal;font-weight:bold;font-stretch:normal;font-size:74.66666412px;line-height:1.25;font-family:Courier;-inkscape-font-specification:'Courier Bold';letter-spacing:0px;word-spacing:0px;fill:#000000;fill-opacity:1;stroke:none"
   id="path60" />
<path
   d="m 327.11271,564.33702 0.448,-4.10666 c 3.50933,3.95733 7.91467,4.62933 10.304,4.62933 10.82666,0 20.08533,-9.55733 20.08533,-23.22133 0,-11.27467 -6.64533,-22.77333 -21.35466,-22.77333 -6.944,0 -12.992,2.53866 -16.27734,3.95733 v 11.872 h -3.50933 v 6.12267 h 20.75733 v -6.12267 h -10.752 v -7.392 c 5.152,-1.94133 8.88534,-2.016 9.70667,-2.016 9.856,0 14.56,7.09333 14.56,16.42666 0,10.304 -5.97334,16.72534 -13.664,16.72534 -9.10933,0 -10.08,-7.24267 -10.60267,-11.49867 l -6.272,0.82133 c 0.37334,1.86667 0.896,4.48 0.896,9.25867 0,3.06133 -0.14933,5.45067 -0.29866,7.31733 z"
   style="font-style:normal;font-variant:normal;font-weight:bold;font-stretch:normal;font-size:74.66666412px;line-height:1.25;font-family:Courier;-inkscape-font-specification:'Courier Bold';letter-spacing:0px;word-spacing:0px;fill:#000000;fill-opacity:1;stroke:none"
   id="path63" /><path
   d="m 308.47521,563.59036 v -6.12267 h -9.632 l 12.768,-31.28533 h 4.33067 v -6.12267 h -17.696 v 6.12267 h 6.64533 l -2.912,7.31733 h -16.8 l -2.912,-7.31733 h 6.57067 v -6.12267 h -17.696 v 6.12267 h 4.18133 l 15.15733,37.408 z m -20.90667,-23.968 h 11.872 l -5.89866,14.26133 z"
   style="font-style:normal;font-variant:normal;font-weight:bold;font-stretch:normal;font-size:74.66666412px;line-height:1.25;font-family:Courier;-inkscape-font-specification:'Courier Bold';letter-spacing:0px;word-spacing:0px;fill:#000000;fill-opacity:1;stroke:none"
   id="path65" /><path
   d="m 267.58704,563.59036 v -6.12267 h -7.168 v -31.28533 h 7.168 v -6.12267 h -37.632 l -0.97066,20.90667 h 6.34666 l 0.97067,-14.784 h 17.62133 v 31.28533 h -8.96 v 6.12267 z"
   style="font-style:normal;font-variant:normal;font-weight:bold;font-stretch:normal;font-size:74.66666412px;line-height:1.25;font-family:Courier;-inkscape-font-specification:'Courier Bold';letter-spacing:0px;word-spacing:0px;fill:#000000;fill-opacity:1;stroke:none"
   id="path67" /><path
   d="m 222.81621,563.59036 v -6.12267 h -7.168 v -31.28533 h 7.168 v -6.12267 h -37.632 l -0.97067,20.90667 h 6.34667 l 0.97067,-14.784 h 17.62133 v 31.28533 h -8.96 v 6.12267 z"
   style="font-style:normal;font-variant:normal;font-weight:bold;font-stretch:normal;font-size:74.66666412px;line-height:1.25;font-family:Courier;-inkscape-font-specification:'Courier Bold';letter-spacing:0px;word-spacing:0px;fill:#000000;fill-opacity:1;stroke:none"
   id="path69" /><path
   d="m 179.24005,541.78769 c 0,-12.69333 -7.98934,-22.92266 -20.01067,-22.92266 -12.096,0 -20.01067,10.304 -20.01067,22.99733 0,12.61866 7.84,22.99733 20.01067,22.99733 12.17067,0 20.01067,-10.45333 20.01067,-23.072 z m -6.86934,0.0747 c 0,8.66133 -4.85333,16.576 -13.14133,16.576 -8.512,0 -13.14133,-8.21334 -13.14133,-16.576 0,-8.81067 4.85333,-16.576 13.14133,-16.576 8.21333,0 13.14133,7.84 13.14133,16.576 z"
   style="font-style:normal;font-variant:normal;font-weight:bold;font-stretch:normal;font-size:74.66666412px;line-height:1.25;font-family:Courier;-inkscape-font-specification:'Courier Bold';letter-spacing:0px;word-spacing:0px;fill:#000000;fill-opacity:1;stroke:none"
   id="path71" />
<path
   d="m 288.36609,260.1953 c 0,51.51851 -41.13028,93.28603 -91.86802,93.28603 -32.78941,0 -57.50523,-18.74621 -79.51537,-40.35214 -14.63832,-14.37236 -12.35791,-32.40232 -12.3566,-52.93784 0.003,-51.5185 41.13159,-93.28076 91.87197,-93.28076 50.73774,-0.001 91.86802,41.76226 91.86802,93.28471 z"
   id="path2"
   style="fill:#decba5;stroke-width:1.31663227" /><path
   d="m 288.36609,260.19793 c 0,7.42054 -2.24618,14.8108 -1.65896,22.00751 0.38841,4.72935 2.61483,9.53242 3.38375,14.25387 1.32321,8.14732 2.45157,21.14511 -9.39681,20.57896 7.99591,10.01167 -2.53451,13.91153 -10.45801,16.76468 -6.19739,2.23169 -5.0427,1.6313 -8.47648,5.60095 -3.06775,3.54306 -3.39296,6.07099 -7.69835,8.81222 -7.60618,4.84257 -18.54476,5.59832 -26.69735,9.16771 -8.8741,3.88538 -17.18337,7.12562 -24.44723,-0.45292 -11.70881,6.65558 -25.15031,12.95961 -32.71436,-1.44171 -5.29944,0.41605 -8.99655,2.33307 -14.31443,-0.0671 -6.25005,-2.82154 -7.568,-10.52384 -12.24336,-14.44609 -4.9321,-4.13818 -9.05053,-0.34496 -14.63305,-3.98018 -4.54633,-2.96506 -3.97755,-8.72269 -7.73653,-11.79571 -3.10857,-2.5411 -7.98011,-1.39958 -11.28486,-3.81955 -7.04003,-5.15856 -5.26653,-15.38748 -0.16853,-21.40317 0.45292,-0.53456 13.31774,15.64949 15.58498,16.12348 5.24283,1.10465 7.36392,-6.70035 9.19536,-10.38297 2.32122,-4.67667 3.01114,-5.76816 8.02092,-5.46139 13.93129,0.84923 24.90805,7.86293 39.43841,4.40677 -3.1981,0.76101 4.15397,29.18711 5.59568,31.86777 7.6865,14.28283 30.85265,6.09996 42.56409,1.29162 13.08075,-5.37055 25.37677,-14.58697 30.98563,-28.04559 5.79318,-13.90364 -4.89261,-20.9305 -4.00388,-33.34371 0.34759,-4.85838 6.28824,-10.41193 8.1381,-15.27952 2.28436,-6.00779 3.40745,-12.63967 2.63195,-19.05167 -2.90976,-24.00089 -32.6617,-57.56975 -58.83898,-52.26767 -16.21169,3.285 -27.60846,17.41773 -37.19223,29.86781 1.47595,-1.91834 0.98748,-9.42446 1.76956,-12.09854 1.45356,-4.9795 3.98149,-9.58377 6.71219,-13.96683 5.24941,-8.40933 12.587,-18.76333 21.87979,-23.0516 22.2603,-10.27237 49.99121,12.65547 63.43535,28.26941 14.59487,16.94769 22.62764,39.0026 22.62764,61.34321 z"
   id="path4"
   style="fill:#c6af87;stroke-width:1.31663227" /><path
   d="m 288.36609,260.1953 c 0,13.93524 -0.41606,22.53021 3.01245,35.98883 0.96641,3.7998 3.08882,9.27041 1.65369,13.18739 -0.50822,1.37588 -8.19208,8.9768 -8.64105,6.14867 1.51017,9.50872 1.79983,15.5468 -9.09398,18.76596 -4.35016,1.2824 -7.40079,0.33443 -10.09594,2.95452 -2.77809,2.70963 -1.7261,7.60092 -6.14077,10.73977 -5.7945,4.12106 -13.3309,3.36795 -19.46246,5.13355 -6.17501,1.77351 -3.66814,2.03683 -8.4699,4.83994 -6.56736,3.83667 -23.3294,12.02217 -28.39054,1.94072 -7.31389,6.55946 -17.49936,10.93595 -26.725,4.4173 -3.21258,-2.27119 -3.91172,-6.15921 -7.52061,-7.54299 -2.11582,-0.81236 -6.79382,1.26265 -10.48697,-0.23436 -5.68522,-2.3041 -8.22632,-7.98142 -12.60544,-11.14266 -3.38901,-2.44366 -2.72148,-1.97494 -6.93733,-3.31791 -10.12491,-3.21916 -18.91606,-5.0032 -17.83511,-19.16885 -14.36577,0.79393 -16.47633,-7.03081 -14.69756,-19.18201 2.27251,-15.50993 -1.3061,-27.88759 -1.3061,-43.52918 0,-51.52114 41.13028,-93.28604 91.87197,-93.28604 50.74037,0.001 91.87065,41.7649 91.87065,93.28735 z"
   id="path6"
   style="fill:none;stroke:#000000;stroke-width:5.99660206" /><path
   d="m 173.50835,216.11182 c 3.98677,-13.51918 16.41051,-31.60313 29.72693,-37.39499 5.47719,-2.38179 12.07088,-5.73394 18.17611,-5.59437 7.96562,0.18169 15.23212,7.12693 22.63159,1.48516 6.74774,-5.14408 12.68049,-20.24586 14.70547,-28.36816 4.26062,-17.09779 1.15863,-34.28774 -16.25383,-42.29286 -12.53434,-5.762903 -16.5685,-0.83343 -19.59939,11.93527 -3.32713,-5.8814 -5.80766,-15.57576 -13.21635,-18.185327 -2.51082,-0.884777 -2.45684,19.749487 -2.89791,20.725107 -4.21981,-6.82805 -12.61992,-42.677317 -26.34186,-28.301009 -4.96634,5.203331 -5.03349,24.152299 -3.23629,30.669629 1.58128,5.73657 6.20003,9.65092 7.29283,15.49282 -4.02363,-11.6127 -13.41912,-21.69284 -21.63753,-30.90136 -19.893,6.62134 -17.71266,30.68016 -13.98791,46.76546 1.29557,5.58647 1.52598,12.70155 4.77016,16.68831 3.18494,3.91435 8.79642,4.6701 11.93264,9.30859 -7.95377,-7.16379 -21.21095,-19.26759 -32.86314,-14.33681 -1.03751,7.12035 7.22831,16.98983 9.64565,23.44659 4.37253,11.67721 9.60615,22.95944 16.22222,33.63469 8.17761,13.19661 11.49289,6.91495 14.82133,-4.40282 0.0356,-0.12376 0.0737,-0.24884 0.10928,-0.37392 z"
   id="path8"
   style="fill:#bf0000;stroke:#590f0f;stroke-width:4.92631149" /><ellipse
   style="stroke-width:1.31663227"
   id="ellipse10"
   ry="13.989218"
   rx="13.326952"
   cy="244.2048"
   cx="212.5228"
   enable-background="new    " /><path
   style="fill:#ff7f00;stroke-width:1.31663227"
   id="path12"
   d="m 196.19656,244.2048 c 0,9.36521 7.32443,16.98719 16.32361,16.98719 9.00313,0 16.32624,-7.62198 16.32624,-16.98719 0,-9.37047 -7.32443,-16.99245 -16.32624,-16.99245 -8.99918,0 -16.32361,7.62198 -16.32361,16.99245 z m 5.99726,0 c 0,-6.06309 4.63323,-10.99651 10.32767,-10.99651 5.69706,0 10.33161,4.9321 10.33161,10.99651 0,6.06046 -4.63455,10.99125 -10.33161,10.99125 -5.69444,0 -10.32767,-4.93079 -10.32767,-10.99125 z" /><ellipse
   cx="206.02127"
   cy="244.77359"
   rx="4.5015659"
   ry="5.1440825"
   id="ellipse16"
   style="fill:#ffffff;stroke-width:1.31663227" /><path
   d="m 163.63756,285.3522 c -20.91734,17.93253 -33.15543,64.38858 0.12377,77.32449 -6.31589,-12.98067 -5.56804,-27.71379 -3.206,-41.62401 -1.45883,19.89826 0.95455,65.85268 33.7071,49.26706 31.73215,-16.06818 1.03882,-98.44591 -30.84211,-84.43299"
   id="path18"
   style="fill:#bf0000;stroke:#ff0000;stroke-width:4.26839018" /><path
   d="m 192.49946,286.17904 c 0,12.1433 -13.12814,21.98776 -29.31745,21.98776 -6.97025,0 -29.37407,-14.00765 -33.75846,-5.56804 -4.87153,-21.65728 12.74501,-38.4088 33.75846,-38.4088 16.18931,0.001 29.31745,9.84578 29.31745,21.98908 z"
   id="path20"
   style="fill:#ff7f00;stroke:#8f0000;stroke-width:4.44100046" /><path
   style="stroke-width:1.31663227"
   id="path22"
   d="m 120.91153,240.07453 c -0.17512,0.90452 -0.26728,1.8367 -0.26728,2.79652 0,7.726 5.96829,13.99317 13.32959,13.99317 7.35734,0 13.32563,-6.26717 13.32563,-13.99317 0,-0.95982 -0.0922,-1.89331 -0.26728,-2.79652 z"
   enable-background="new    " /><path
   style="fill:#ff7f00;stroke-width:1.31663227"
   id="path24"
   d="m 143.91968,240.07453 c 0.22382,0.89662 0.3805,1.82485 0.3805,2.79652 0,6.0631 -4.63191,10.9952 -10.32766,10.9952 -5.69707,0 -10.3303,-4.93079 -10.3303,-10.9952 0,-0.97167 0.15668,-1.8999 0.38051,-2.79652 h -6.13682 c -0.14615,0.91111 -0.24095,1.84065 -0.24095,2.79652 0,9.37048 7.32443,16.99114 16.32756,16.99114 9.0005,0 16.32361,-7.62066 16.32361,-16.99114 0,-0.95587 -0.0948,-1.88541 -0.24095,-2.79652 z" /><ellipse
   style="fill:#ffffff;stroke-width:1.31663227"
   id="ellipse26"
   ry="3.9077647"
   rx="3.6576047"
   cy="244.85522"
   cx="124.92594" /><rect
   style="stroke-width:1.31663227"
   id="rect28"
   height="3.8537829"
   width="38.564159"
   y="238.24968"
   x="114.67728" /><path
   d="m 190.17165,237.70986 c 0,0 11.7233,-22.00751 37.43318,-15.22027"
   id="path32"
   style="fill:none;stroke:#000000;stroke-width:4.93618631;stroke-linecap:round" /></svg>
