<?xml version="1.0" encoding="UTF-8" standalone="no"?>
<svg
   xmlns="http://www.w3.org/2000/svg"
   width="399.58911"
   height="597.75867"
   viewBox="0 0 399.58911 597.75867"
   version="1.1"
   id="svg64"
   style="fill:none">
  <path
     d="M 67.698985,1.6511947 H 331.89011 c 36.59472,0 66.0478,29.4530703 66.0478,66.0477803 V 530.05965 c 0,36.59079 -29.45308,66.04779 -66.0478,66.04779 H 67.698985 c -36.5921,0 -66.0477903,-29.45831 -66.0477903,-66.04779 V 67.698975 c 0,-36.59471 29.4556903,-66.0477803 66.0477903,-66.0477803 z"
     id="path2-3"
     style="fill:#ffffff;fill-rule:evenodd;stroke-width:4.61941671" />
  <path
     d="M 67.698985,1.6511947 H 331.89011 c 36.59472,0 66.0478,29.4530703 66.0478,66.0477803 V 530.05965 c 0,36.59079 -29.45308,66.04779 -66.0478,66.04779 H 67.698985 c -36.5921,0 -66.0477903,-29.45831 -66.0477903,-66.04779 V 67.698975 c 0,-36.59471 29.4556903,-66.0477803 66.0477903,-66.0477803 z"
     id="path4-6"
     style="fill:none;stroke:#000000;stroke-width:3.30238938" />
  <path
     d="m 298.88062,133.71572 c -145.91008,0 -264.191125,118.28499 -264.191125,264.19114 0,36.47948 29.56568,66.04778 66.047775,66.04778 145.91008,0 264.19114,-118.28891 264.19114,-264.19113 0,-36.47949 -29.5683,-66.04779 -66.04779,-66.04779 z"
     id="path8-6"
     style="fill:#ff0000;fill-rule:evenodd;stroke-width:4.61941671" />
  <path
     d="m 69.574212,37.652844 -0.448,4.106666 c -3.509334,-3.957333 -7.914667,-4.629333 -10.304,-4.629333 -10.826666,0 -20.085333,9.557333 -20.085333,23.221333 0,11.274666 6.645333,22.773332 21.354666,22.773332 6.944,0 12.992,-2.538666 16.277333,-3.957333 V 67.29551 h 3.509333 V 61.172843 H 59.120879 v 6.122667 h 10.751999 v 7.391999 c -5.152,1.941334 -8.885333,2.016 -9.706666,2.016 -9.856,0 -14.56,-7.093333 -14.56,-16.426666 0,-10.303999 5.973333,-16.725333 13.664,-16.725333 9.109333,0 10.08,7.242667 10.602666,11.498667 l 6.272,-0.821334 c -0.373333,-1.866666 -0.896,-4.479999 -0.896,-9.258666 0,-3.061333 0.149333,-5.450666 0.298667,-7.317333 z"
     style="font-style:normal;font-variant:normal;font-weight:bold;font-stretch:normal;font-size:74.66666412px;line-height:1.25;font-family:Courier;-inkscape-font-specification:'Courier Bold';letter-spacing:0px;word-spacing:0px;fill:#000000;fill-opacity:1;stroke:none"
     id="path47" />
  <path
     d="m 88.211711,38.399511 v 6.122666 h 9.632 l -12.768,31.285332 h -4.330666 v 6.122667 h 17.695999 v -6.122667 h -6.645333 l 2.912,-7.317333 h 16.799999 l 2.912,7.317333 h -6.57067 v 6.122667 h 17.696 v -6.122667 h -4.18133 L 106.20638,38.399511 Z M 109.11838,62.36751 H 97.246377 l 5.898663,-14.261333 z"
     style="font-style:normal;font-variant:normal;font-weight:bold;font-stretch:normal;font-size:74.66666412px;line-height:1.25;font-family:Courier;-inkscape-font-specification:'Courier Bold';letter-spacing:0px;word-spacing:0px;fill:#000000;fill-opacity:1;stroke:none"
     id="path49" />
  <path
     d="m 129.09988,38.399511 v 6.122666 h 7.168 v 31.285332 h -7.168 v 6.122667 h 37.632 l 0.97066,-20.906666 h -6.34666 l -0.97067,14.783999 H 142.76388 V 44.522177 h 8.96 v -6.122666 z"
     style="font-style:normal;font-variant:normal;font-weight:bold;font-stretch:normal;font-size:74.66666412px;line-height:1.25;font-family:Courier;-inkscape-font-specification:'Courier Bold';letter-spacing:0px;word-spacing:0px;fill:#000000;fill-opacity:1;stroke:none"
     id="path51" />
  <path
     d="m 173.87071,38.399511 v 6.122666 h 7.168 v 31.285332 h -7.168 v 6.122667 h 37.632 l 0.97067,-20.906666 h -6.34667 l -0.97067,14.783999 H 187.53471 V 44.522177 h 8.96 v -6.122666 z"
     style="font-style:normal;font-variant:normal;font-weight:bold;font-stretch:normal;font-size:74.66666412px;line-height:1.25;font-family:Courier;-inkscape-font-specification:'Courier Bold';letter-spacing:0px;word-spacing:0px;fill:#000000;fill-opacity:1;stroke:none"
     id="path53" />
  <path
     d="m 217.44687,60.202177 c 0,12.693332 7.98934,22.922665 20.01067,22.922665 12.096,0 20.01067,-10.303999 20.01067,-22.997332 0,-12.618666 -7.84,-22.997333 -20.01067,-22.997333 -12.17067,0 -20.01067,10.453333 -20.01067,23.072 z m 6.86934,-0.07467 c 0,-8.661333 4.85333,-16.576 13.14133,-16.576 8.512,0 13.14133,8.213333 13.14133,16.576 0,8.810666 -4.85333,16.575999 -13.14133,16.575999 -8.21333,0 -13.14133,-7.839999 -13.14133,-16.575999 z"
     style="font-style:normal;font-variant:normal;font-weight:bold;font-stretch:normal;font-size:74.66666412px;line-height:1.25;font-family:Courier;-inkscape-font-specification:'Courier Bold';letter-spacing:0px;word-spacing:0px;fill:#000000;fill-opacity:1;stroke:none"
     id="path55" />
  <path
     d="m 327.11274,564.33702 0.448,-4.10666 c 3.50933,3.95733 7.91467,4.62933 10.304,4.62933 10.82667,0 20.08533,-9.55733 20.08533,-23.22133 0,-11.27467 -6.64533,-22.77333 -21.35466,-22.77333 -6.944,0 -12.992,2.53866 -16.27734,3.95733 v 11.872 h -3.50933 v 6.12267 h 20.75733 v -6.12267 h -10.752 v -7.392 c 5.152,-1.94133 8.88534,-2.016 9.70667,-2.016 9.856,0 14.56,7.09333 14.56,16.42666 0,10.304 -5.97333,16.72534 -13.664,16.72534 -9.10933,0 -10.08,-7.24267 -10.60267,-11.49867 l -6.272,0.82133 c 0.37334,1.86667 0.896,4.48 0.896,9.25867 0,3.06133 -0.14933,5.45067 -0.29866,7.31733 z"
     style="font-style:normal;font-variant:normal;font-weight:bold;font-stretch:normal;font-size:74.66666412px;line-height:1.25;font-family:Courier;-inkscape-font-specification:'Courier Bold';letter-spacing:0px;word-spacing:0px;fill:#000000;fill-opacity:1;stroke:none"
     id="path59" />
  <path
     d="m 308.47524,563.59036 v -6.12267 h -9.632 l 12.768,-31.28533 h 4.33067 v -6.12267 h -17.696 v 6.12267 h 6.64533 l -2.912,7.31733 h -16.8 l -2.912,-7.31733 h 6.57067 v -6.12267 h -17.696 v 6.12267 h 4.18133 l 15.15733,37.408 z m -20.90667,-23.968 h 11.872 l -5.89866,14.26133 z"
     style="font-style:normal;font-variant:normal;font-weight:bold;font-stretch:normal;font-size:74.66666412px;line-height:1.25;font-family:Courier;-inkscape-font-specification:'Courier Bold';letter-spacing:0px;word-spacing:0px;fill:#000000;fill-opacity:1;stroke:none"
     id="path61" />
  <path
     d="m 267.58707,563.59036 v -6.12267 h -7.168 v -31.28533 h 7.168 v -6.12267 h -37.63199 l -0.97067,20.90667 h 6.34667 l 0.97066,-14.784 h 17.62133 v 31.28533 h -8.96 v 6.12267 z"
     style="font-style:normal;font-variant:normal;font-weight:bold;font-stretch:normal;font-size:74.66666412px;line-height:1.25;font-family:Courier;-inkscape-font-specification:'Courier Bold';letter-spacing:0px;word-spacing:0px;fill:#000000;fill-opacity:1;stroke:none"
     id="path63" />
  <path
     d="m 222.81624,563.59036 v -6.12267 h -7.168 v -31.28533 h 7.168 v -6.12267 h -37.632 l -0.97067,20.90667 h 6.34667 l 0.97067,-14.784 h 17.62133 v 31.28533 h -8.96 v 6.12267 z"
     style="font-style:normal;font-variant:normal;font-weight:bold;font-stretch:normal;font-size:74.66666412px;line-height:1.25;font-family:Courier;-inkscape-font-specification:'Courier Bold';letter-spacing:0px;word-spacing:0px;fill:#000000;fill-opacity:1;stroke:none"
     id="path65" />
  <path
     d="m 179.24008,541.78769 c 0,-12.69333 -7.98934,-22.92266 -20.01067,-22.92266 -12.096,0 -20.01067,10.304 -20.01067,22.99733 0,12.61866 7.84,22.99733 20.01067,22.99733 12.17067,0 20.01067,-10.45333 20.01067,-23.072 z m -6.86934,0.0747 c 0,8.66133 -4.85333,16.576 -13.14133,16.576 -8.512,0 -13.14133,-8.21334 -13.14133,-16.576 0,-8.81067 4.85333,-16.576 13.14133,-16.576 8.21333,0 13.14133,7.84 13.14133,16.576 z"
     style="font-style:normal;font-variant:normal;font-weight:bold;font-stretch:normal;font-size:74.66666412px;line-height:1.25;font-family:Courier;-inkscape-font-specification:'Courier Bold';letter-spacing:0px;word-spacing:0px;fill:#000000;fill-opacity:1;stroke:none"
     id="path67" />
  <path
     style="fill:#ffc600;stroke-width:3.71291828"
     d="m 207.99906,295.74684 0.26361,10.32192 c 5.3403,-0.13144 10.61412,-0.39469 15.75652,-0.65756 l -0.59333,-10.32191 c -5.01021,0.32896 -10.1526,0.52612 -15.4268,0.65755 z"
     id="path2" />
  <path
     style="fill:#ffc600;stroke-width:3.71291828"
     d="m 171.60763,305.94066 c 5.14239,0.19716 10.3505,0.32859 15.69079,0.39431 l 0.0657,-10.32154 c -5.2742,-0.0661 -10.41622,-0.19753 -15.4268,-0.39468 z"
     id="path4" />
  <path
     style="fill:#ffc600;stroke-width:3.71291828"
     d="m 228.56788,315.47209 0.72514,10.32192 c 7.25207,-0.52612 14.30624,-1.11759 21.03071,-1.90659 l -1.18665,-10.25619 c -6.59266,0.72327 -13.51502,1.38083 -20.5692,1.84086 z"
     id="path6" />
  <path
     style="fill:#ffc600;stroke-width:3.71291828"
     d="m 215.58009,380.62601 c 0.52761,0 1.12093,0.19679 1.58245,0.52724 0.19753,0.12995 0.32971,0.2599 0.46152,0.4604 1.64816,2.36513 5.40601,8.14986 5.40601,11.30584 0,4.07678 -3.36242,7.42955 -7.44998,7.42955 -4.08755,0 -7.4496,-3.35277 -7.4496,-7.42955 0,-3.15598 3.75785,-8.94071 5.40601,-11.30584 0.52724,-0.6609 1.31846,-0.98764 2.04359,-0.98764 z"
     id="path8" />
  <path
     style="fill:#ffc600;stroke-width:3.71291828"
     d="m 243.86214,380.62601 c 0.5276,0 1.12093,0.19679 1.58244,0.52724 0.19753,0.12995 0.32934,0.2599 0.46152,0.4604 1.64816,2.36513 5.40601,8.14986 5.40601,11.30584 0,4.07678 -3.36242,7.42955 -7.44997,7.42955 -4.08756,0 -7.4496,-3.35277 -7.4496,-7.42955 0,-3.15598 3.75784,-8.94071 5.40601,-11.30584 0.46151,-0.6609 1.25236,-0.98764 2.04359,-0.98764 z"
     id="path10" />
  <path
     style="fill:#ffc600;stroke-width:3.71291828"
     d="m 130.86466,380.62601 c 0.52761,0 1.12093,0.19679 1.58245,0.52724 0.19753,0.12995 0.32933,0.2599 0.46151,0.4604 1.64817,2.36513 5.40601,8.14986 5.40601,11.30584 0,4.07678 -3.36242,7.42955 -7.44997,7.42955 -4.08755,0 -7.4496,-3.35277 -7.4496,-7.42955 0,-3.15598 3.75785,-8.94071 5.40601,-11.30584 0.52724,-0.6609 1.31846,-0.98764 2.04359,-0.98764 z"
     id="path12" />
  <path
     style="fill:#ffc600;stroke-width:3.71291828"
     d="m 159.14745,380.62601 c 0.5276,0 1.12093,0.19679 1.58244,0.52724 0.1979,0.12995 0.32971,0.2599 0.46152,0.4604 1.64816,2.36513 5.40601,8.14986 5.40601,11.30584 0,4.07678 -3.36242,7.42955 -7.44997,7.42955 -4.08718,0 -7.4496,-3.35277 -7.4496,-7.42955 0,-3.15598 3.75784,-8.94071 5.40601,-11.30584 0.46151,-0.6609 1.25274,-0.98764 2.04359,-0.98764 z"
     id="path14" />
  <path
     style="fill:#ffc600;stroke-width:3.71291828"
     d="m 187.36526,380.62601 c 0.5276,0 1.12093,0.19679 1.58244,0.52724 0.19753,0.12995 0.32934,0.2599 0.46115,0.4604 1.64853,2.36513 5.40638,8.14986 5.40638,11.30584 0,4.07678 -3.36242,7.42955 -7.44997,7.42955 -4.08756,0 -7.4496,-3.35277 -7.4496,-7.42955 0,-3.15598 3.75784,-8.94071 5.40601,-11.30584 0.52723,-0.6609 1.25236,-0.98764 2.04359,-0.98764 z"
     id="path16" />
  <path
     style="fill:#003594;stroke-width:3.71291828"
     d="m 285.06699,394.23386 c 0,-4.20674 -3.42702,-7.68945 -7.71173,-7.68945 h -16.0205 c 0,0.12995 0,0.26361 0,0.39357 0,2.69557 -0.52724,5.2612 -1.45027,7.5595 h 17.20715 V 407.5818 H 97.637756 v -13.08432 h 17.207154 c -0.92304,-2.36513 -1.45064,-4.93076 -1.45064,-7.5595 0,-0.12996 0,-0.26362 0,-0.39357 H 97.374139 c -4.21936,0 -7.713588,3.41959 -7.713588,7.68945 v 20.05347 H 285.06699 Z"
     id="path18" />
  <path
     style="clip-rule:evenodd;fill:#003594;fill-rule:evenodd;stroke-width:3.71291828"
     d="m 276.46787,216.37467 c 10.52241,2.58494 19.19579,5.89463 24.55353,10.01486 l 0.39728,0.26324 c 0.79086,0.59147 1.51487,1.24903 2.17577,1.97231 H 327.721 c 8.17584,0 14.83682,6.2455 15.49401,14.26614 0.79085,9.20433 -6.65727,16.76494 -15.95441,16.76494 h -20.30596 v 46.54663 c -0.0668,37.14552 -30.26028,67.25729 -67.50828,67.32041 H 135.61089 C 98.362147,373.46008 68.16758,343.34831 68.10149,306.20279 V 259.65616 H 47.334767 c -8.175104,0 -14.833852,-6.24587 -15.492895,-14.26652 -0.791223,-9.20432 6.658376,-16.76456 15.954039,-16.76456 h 23.667998 c 0.659415,-0.72328 1.384548,-1.38084 2.175771,-1.97231 l 0.329335,-0.26324 C 89.46191,214.35856 132.64426,209.49352 167.91513,208.2445 l 1.58245,-0.0661 0.0193,-3.8e-4 c 2.6306,-0.0653 5.26083,-0.13106 7.76,-0.19678 h 1.31845 c 3.03271,-0.0657 5.93362,-0.0657 8.76843,-0.0657 2.71377,0 5.48807,0.0602 8.3808,0.12327 l 0.38763,0.008 h 1.31846 c 2.49879,0.0657 5.12902,0.13144 7.75925,0.19678 l 0.02,7.5e-4 1.58245,0.0657 c 9.42747,0.3286 19.31646,0.92044 29.20544,1.84087 l 6.02718,0.75521 c -2.81105,2.87602 -5.90651,6.04314 -9.01756,9.22586 -0.21201,-0.0204 -0.42364,-0.039 -0.63565,-0.0538 -1.20076,-0.10582 -2.42008,-0.1927 -3.65871,-0.2807 -1.07378,-0.0765 -2.16129,-0.15371 -3.26366,-0.24542 -0.53689,-0.0316 -1.07377,-0.078 -1.61809,-0.12513 -0.59184,-0.0516 -1.19184,-0.10359 -1.81004,-0.13775 -2.30461,-0.13143 -4.67494,-0.2625 -7.04564,-0.39394 l -0.009,-3.7e-4 c -0.43961,-0.0223 -0.87216,-0.0442 -1.30472,-0.0661 -0.86399,-0.0438 -1.72799,-0.0876 -2.65065,-0.13144 -2.4457,-0.12809 -5.01652,-0.19381 -7.52943,-0.25804 l -0.18416,-0.005 -0.18008,-0.009 c -1.25273,-0.0627 -2.45126,-0.12253 -3.70957,-0.12253 -3.95575,-0.0657 -8.0433,-0.13144 -12.19657,-0.13144 -4.21936,0 -8.24082,0.0657 -12.19656,0.13144 -0.65942,0.0327 -1.30212,0.0494 -1.94483,0.0657 -0.64271,0.0163 -1.28541,0.0331 -1.94483,0.0657 l -0.18453,0.005 c -2.51253,0.0642 -5.08373,0.12995 -7.52905,0.25804 -0.92266,0.0438 -1.78666,0.0876 -2.65103,0.13144 -0.43218,0.0219 -0.86474,0.0438 -1.30435,0.0661 l -0.009,3.7e-4 c -2.37032,0.13144 -4.74065,0.26251 -7.04563,0.39394 -1.05484,0.13144 -2.10968,0.19716 -3.23024,0.26288 -2.3733,0.13144 -4.81269,0.32896 -7.12026,0.52612 -0.79086,0.13144 -1.58208,0.19715 -2.37293,0.26287 h -3.7e-4 c -2.50511,0.19716 -5.01058,0.46003 -7.38388,0.72328 l -1.51636,0.19716 c -2.57119,0.32859 -5.0763,0.65755 -7.51569,0.98615 l -0.79085,0.13143 c -2.5712,0.39469 -5.01058,0.789 -7.38388,1.18331 l -0.3958,0.0657 c -2.37329,0.39468 -4.68087,0.789 -6.85627,1.2494 l -0.52761,0.13143 c -1.48702,0.28701 -2.90461,0.60892 -4.2524,0.91487 -0.50422,0.11436 -0.99841,0.22686 -1.48294,0.33416 l -1.31883,0.32859 c -1.384178,0.39469 -2.636916,0.72328 -3.889655,1.05224 h -0.0011 c -0.92266,0.26288 -1.844949,0.52575 -2.701891,0.78863 l -1.713883,0.52612 c -7.647869,2.49805 -12.262655,5.06219 -13.515023,7.36346 l -0.06609,0.13144 c 0.395426,1.44618 2.636915,3.08989 6.592658,4.86503 20.569194,-7.82349 59.400374,-12.62281 102.384834,-12.62281 12.51699,0 24.682,0.40694 36.14638,1.177 -3.85736,3.94535 -7.22943,7.3939 -9.45161,9.66473 -8.88241,-0.46932 -17.78525,-0.6442 -26.69477,-0.52018 -28.41459,-0.39432 -56.69738,2.23554 -84.51865,7.75777 27.82127,5.58831 56.17015,8.15245 84.51865,7.82349 28.3485,0.32896 56.63129,-2.23518 84.38498,-7.75777 v -0.0657 c -7.27732,-1.44804 -14.58954,-2.69707 -21.93109,-3.74485 l 9.24034,-9.23997 c 12.3603,2.0046 22.85301,4.54684 30.69098,7.52831 3.95426,-1.77514 6.26369,-3.48457 6.32681,-4.93075 l -0.0631,-0.13181 c -1.51858,-2.76093 -7.91222,-5.91691 -18.59429,-8.80964 -0.32674,-0.0984 -0.65719,-0.18082 -0.98764,-0.26288 -0.33045,-0.082 -0.65718,-0.16448 -0.98763,-0.26287 l -0.004,-3.7e-4 c -1.05447,-0.26288 -2.10893,-0.52575 -3.22652,-0.78863 -0.44927,-0.0943 -0.91338,-0.19678 -1.39235,-0.30186 -0.85397,-0.18824 -1.74136,-0.38391 -2.62874,-0.55285 -0.16337,-0.0483 -0.32303,-0.0925 -0.4864,-0.13404 z M 41.994476,244.0749 c -0.06609,2.95845 2.307579,5.32507 5.208111,5.32507 v -0.0657 H 67.903963 V 239.01234 H 47.400485 c -2.834813,0 -5.339919,2.23554 -5.406009,5.06256 z m 36.985123,70.08282 c 3.955743,28.073 28.019171,49.04357 56.499481,49.1104 h 103.76938 c 28.4792,-0.0668 52.60946,-21.0374 56.63055,-49.1104 -8.23897,2.95845 -16.74526,5.25935 -25.38151,6.83734 -2.83296,0.52575 -5.53596,-1.38083 -6.00008,-4.20748 -0.4604,-2.82702 1.38492,-5.45688 4.22159,-5.91728 9.55705,-1.64334 18.8542,-4.40463 27.75407,-8.28352 v -9.27004 c -14.37271,5.71975 -35.93029,8.87536 -51.22528,10.51907 -2.96662,0.26287 -5.60391,-1.84087 -5.86753,-4.79932 -0.26361,-2.7613 1.71426,-5.25935 4.48298,-5.71975 12.39446,-1.90659 44.56765,-7.23165 52.60983,-11.37341 v -32.47764 h -0.0668 c -1.38491,0.78899 -2.96662,1.51227 -4.61515,2.23517 l -0.0631,0.0657 -0.13367,0.0661 c -16.08436,5.71938 -32.76539,9.20396 -49.77464,10.5187 h -0.1979 c -0.82427,0.0657 -1.63183,0.14815 -2.43939,0.2302 -0.80756,0.0821 -1.61512,0.16448 -2.43901,0.2302 -13.18569,1.31475 -27.62374,2.03802 -42.65512,2.23518 -2.30721,0.0657 -4.48298,0.0657 -6.65838,0.0657 -2.10968,0 -4.35117,0 -6.65875,-0.0657 -15.03138,-0.19716 -29.46943,-0.98615 -42.65475,-2.23518 -1.64816,-0.13144 -3.29632,-0.26287 -4.87877,-0.4604 h -0.1979 c -17.00888,-1.31474 -33.754512,-4.79932 -49.775012,-10.5187 l -0.131809,-0.0661 h -0.06572 c -1.648165,-0.7229 -3.164521,-1.44618 -4.614787,-2.23517 h -0.06609 v 32.41192 c 5.40601,2.56377 11.141726,4.53607 16.943161,5.9169 2.769094,0.59147 4.417259,3.35277 3.823935,6.04835 -0.659415,2.82701 -3.428138,4.66788 -6.263322,3.9446 -4.944494,-1.18331 -9.757179,-2.69558 -14.503774,-4.53644 v 9.27004 c 8.900237,3.87889 18.1959,6.64018 27.755178,8.28352 2.7691,0.52612 4.68088,3.09026 4.21936,5.91728 -0.46151,2.82665 -3.16452,4.73323 -5.99933,4.20748 -8.63625,-1.57799 -17.141061,-3.87889 -25.381883,-6.83734 z M 306.75786,249.39997 h 20.76635 c 2.89979,0 5.27606,-2.43271 5.14239,-5.25935 -0.0668,-2.89274 -2.56933,-5.06257 -5.406,-5.06257 h -20.50274 z"
     id="path20" />
  <path
     style="fill:#ffc600;stroke-width:3.71291828"
     d="m 101.98967,212.86077 c 5.70861,-5.09264 19.66324,-17.97573 23.84436,-21.72243 9.23626,13.41069 32.47021,16.66914 43.11329,20.23689 25.41864,11.78257 26.14006,39.83404 25.85603,43.04052 -0.28441,3.2061 -6.29192,31.78035 -36.50579,37.90593 -32.1186,6.50689 -47.30741,-33.23285 -47.085,-44.7882 1.32142,-17.92448 -3.92456,-25.08522 -9.22289,-34.67271 z"
     id="path22" />
  <path
     style="fill:#003594;stroke-width:3.71291828"
     d="m 125.83403,191.13834 0.12624,-0.0873 -0.098,-0.14294 -0.12995,0.11658 z m -23.84436,21.72243 -0.10136,-0.11399 -0.0917,0.0817 0.059,0.10694 z m 9.22289,34.67271 -0.15297,-0.0104 -3.8e-4,0.009 z m 47.085,44.7882 0.0297,0.15 v 0 z m 10.64976,-80.94645 0.0657,-0.13961 -0.0163,-0.006 z M 125.7323,191.02472 c -2.09149,1.87391 -6.62645,6.03238 -11.35077,10.35756 -4.72506,4.32592 -9.64022,8.81892 -12.49322,11.3645 l 0.20309,0.2276 c 2.85524,-2.54706 7.77151,-7.04155 12.4962,-11.3671 4.72543,-4.32629 9.25853,-8.4829 11.34816,-10.3557 z m -23.87667,21.91068 c 2.654,4.80266 5.28014,8.97301 7.08314,14.18594 1.80076,5.207 2.78023,11.45733 2.12082,20.40175 l 0.30557,0.0208 c 0.66201,-8.98006 -0.3208,-15.27272 -2.13679,-20.5239 -1.81413,-5.24524 -4.46033,-9.44938 -7.10429,-14.23384 z m 9.20358,34.59623 c -0.0561,2.91538 0.85843,7.58549 2.75573,12.84261 1.89879,5.26046 4.7867,11.12131 8.6886,16.41778 7.80419,10.59296 19.68441,18.94925 35.82372,15.67966 l -0.059,-0.30001 c -15.97929,3.2373 -27.75295,-5.02283 -35.51741,-15.56195 -3.88222,-5.26937 -6.75714,-11.10348 -8.64776,-16.34093 -1.89136,-5.24078 -2.79248,-9.87116 -2.73753,-12.73345 z m 47.26805,44.94005 c 15.15614,-3.07281 24.24388,-11.77849 29.57563,-20.11585 5.32841,-8.33216 6.90862,-16.30157 7.05269,-17.92783 l -0.30484,-0.0249 c -0.14034,1.57984 -1.70571,9.50098 -7.00553,17.78896 -5.29685,8.28278 -14.31961,16.92682 -29.37698,19.97958 z M 194.95558,254.428 c 0.14406,-1.62477 0.0323,-9.462 -3.29819,-18.37078 -3.33197,-8.91323 -9.8901,-18.9084 -22.64472,-24.82086 l -0.13032,0.27773 c 12.66365,5.87012 19.17574,15.79179 22.48803,24.65155 3.31378,8.86422 3.42034,16.65578 3.28036,18.23749 z m -25.95887,-43.19795 c -2.66662,-0.8937 -6.12149,-1.76809 -9.93689,-2.78394 -3.81836,-1.0166 -8.00431,-2.17614 -12.14495,-3.64238 -8.28649,-2.93469 -16.36469,-7.0887 -20.9546,-13.75265 l -0.25248,0.17414 c 4.64635,6.74674 12.80326,10.92749 21.10349,13.86701 4.15252,1.47031 8.34812,2.63283 12.16797,3.64942 3.82319,1.01809 7.26358,1.88877 9.91869,2.77875 z"
     id="path24" />
  <path
     style="fill:#003594;stroke-width:3.71291828"
     d="m 152.32645,296.65874 c 10.70025,0.45186 21.38084,-3.5748 30.88851,-11.64483 9.50767,-8.0704 15.25935,-17.99243 16.63387,-28.69343 1.48665,-11.55758 -2.35622,-23.1972 -11.10682,-33.66281 -9.21472,-11.02105 -22.00684,-18.33365 -35.09599,-20.06238 -9.51993,-1.25757 -18.15692,-6.00936 -24.31925,-13.37987 l -2.56377,-3.06613 -6.13225,5.20551 -9.64023,-11.5301 c 4.05266,-5.69895 4.15328,-13.84138 -0.73478,-19.68812 -2.73939,-3.27553 -6.59043,-5.27308 -10.84358,-5.62321 -4.253148,-0.35013 -8.400107,0.98838 -11.676014,3.76935 -2.170944,1.8431 -3.802772,4.20711 -4.759591,6.847 -2.744589,0.50161 -5.333236,1.72019 -7.504922,3.56328 -3.276279,2.78098 -5.289423,6.671 -5.668883,10.95348 -0.379461,4.28286 0.91969,8.44541 3.659081,11.72132 4.887686,5.84561 12.867861,7.12954 19.131926,4.0727 l 9.639853,11.52935 -6.132259,5.20551 2.56377,3.06613 c 6.163069,7.37051 9.344299,16.75306 8.957789,26.41927 -0.53132,13.29002 4.44919,27.23314 13.66428,38.25457 8.75061,10.4656 19.48391,16.25553 31.03926,16.74341 z m -58.406439,-112.17135 -3.066128,2.60275 c -3.389152,2.87677 -8.425354,2.46241 -11.259796,-0.92711 -2.8337,-3.38916 -2.384436,-8.46026 1.005087,-11.3374 1.511529,-1.28318 3.426281,-1.96116 5.392642,-1.90881 l 3.574798,0.0943 0.514611,-3.56589 c 0.283295,-1.96116 1.271303,-3.74745 2.782461,-5.03026 3.389152,-2.87677 8.425354,-2.46241 11.259794,0.92711 2.8337,3.38916 2.38444,8.46026 -1.00508,11.3374 l -3.06613,2.60239 14.44622,17.27769 -6.13188,5.20514 z m 33.499439,90.2228 c -7.95753,-9.5177 -12.26229,-21.46735 -11.80968,-32.78581 0.4125,-10.31894 -2.5441,-20.37056 -8.37932,-28.71089 l 18.65853,-15.83819 c 7.16705,7.21049 16.4965,11.85238 26.65913,13.1946 11.14729,1.47254 22.10411,7.77559 30.06201,17.29254 17.01148,20.34531 8.81781,39.69481 -4.52233,51.01884 -13.34052,11.32403 -33.65649,16.17459 -50.66834,-4.17109 z"
     id="path26" />
  <path
     style="fill:#003594;stroke-width:3.71291828"
     d="m 165.81696,272.91165 -0.71028,8.01694 -7.96198,-0.65571 0.71065,-8.01693 z"
     id="path28" />
  <path
     style="fill:#003594;stroke-width:3.71291828"
     d="m 150.51937,263.5551 -0.71065,8.01656 -7.96162,-0.65533 0.71066,-8.01693 z"
     id="path30" />
  <path
     style="fill:#003594;stroke-width:3.71291828"
     d="m 135.22289,254.19929 -0.71066,8.01693 -7.96198,-0.6557 0.71065,-8.01656 z"
     id="path32" />
  <path
     style="fill:#003594;stroke-width:3.71291828"
     d="m 167.18146,256.93237 -0.71065,8.01693 -7.96161,-0.6557 0.71028,-8.01694 z"
     id="path34" />
  <path
     style="fill:#003594;stroke-width:3.71291828"
     d="m 183.16149,258.29649 -0.71065,8.01693 -7.96161,-0.6557 0.71065,-8.01656 z"
     id="path36" />
  <path
     style="fill:#ffc600;stroke-width:3.71291828"
     d="m 226.32305,207.27802 c -7.45739,1.27836 -6.60528,14.48892 -5.96591,19.17648 -29.40409,12.3707 -30.04308,28.55123 -26.42113,34.94339 5.1138,9.16237 23.22505,5.1138 30.68244,0 0.85212,20.45484 12.99744,31.74768 17.89812,32.38705 19.81548,2.13084 25.99452,-23.86404 23.65167,-25.56864 -2.34286,-1.49148 -13.63755,4.68756 -19.39035,7.88364 1.06524,-1.27836 2.55672,-11.71872 4.47444,-18.53712 30.84061,8.08191 27.71062,-36.48462 26.85294,-48.72611 l -0.007,-0.0672 c 11.50634,13.25958 17.68463,12.5712 18.32697,9.37512 -0.21535,-23.86404 -12.99893,-28.33848 -19.60421,-27.69948 -11.93332,1.49185 -22.37219,19.17648 -24.28991,26.42112 -8.52264,-9.58824 -18.75024,-10.8666 -26.20764,-9.58824 z"
     id="path38" />
  <path
     style="fill:#003594;stroke-width:3.71291828"
     d="m 220.35714,226.4545 0.0472,0.1125 0.0861,-0.0364 -0.0126,-0.0928 z m 5.96591,-19.17648 0.0204,0.1203 v 0 z m 26.20764,9.58824 -0.091,0.0809 0.15075,0.17006 0.0583,-0.21981 z m 24.28991,-26.42112 -0.0111,-0.12142 -0.004,3.7e-4 z m 19.60421,27.69948 0.12252,0.0245 v -0.0256 z m -18.32697,-9.37512 0.0928,-0.0802 -0.23763,-0.27587 0.026,0.36461 z m 0.007,0.0672 0.11881,-0.009 v 0 z m -26.85294,48.72611 0.0308,-0.11807 -0.11585,-0.0304 -0.0323,0.11547 z m -4.47444,18.53712 -0.0939,-0.078 0.15335,0.18454 z m 19.39035,-7.88364 0.0705,-0.0988 -0.007,-0.004 z m -23.65167,25.56864 -0.016,0.12104 0.003,3.7e-4 z m -17.89812,-32.38705 0.12179,-0.005 -0.009,-0.22018 -0.18193,0.12438 z m -30.68244,0 0.10656,-0.0594 -3.7e-4,-7.5e-4 z m 26.5418,-34.96009 c -0.31894,-2.33914 -0.69024,-6.79984 -0.0535,-10.83096 0.63825,-4.04337 2.27676,-7.58438 5.91913,-8.20852 l -0.0412,-0.2406 c -3.81502,0.65385 -5.47915,4.35748 -6.11889,8.41088 -0.64196,4.06564 -0.2677,8.55382 0.0527,10.90224 z m 5.86566,-19.03948 c 7.4251,-1.27316 17.60703,-0.001 26.09625,9.54888 l 0.1823,-0.16225 c -8.55642,-9.62574 -18.82969,-10.91115 -26.31976,-9.62723 z m 26.30529,9.49913 c 0.95348,-3.60227 4.03371,-9.81993 8.36743,-15.32358 4.3352,-5.507 9.90458,-10.26808 15.81926,-11.00732 l -0.0297,-0.24246 c -6.01493,0.75224 -11.63629,5.57941 -15.98115,11.09866 -4.34894,5.52297 -7.44774,11.76995 -8.41161,15.41232 z m 24.18298,-26.33053 c 3.27108,-0.31671 8.08302,0.63268 12.1004,4.62592 4.02109,3.99213 7.26247,11.04185 7.37014,22.95289 l 0.24505,-0.002 c -0.10767,-11.953 -3.3639,-19.07252 -7.44068,-23.12369 -4.07679,-4.05042 -8.96299,-5.01875 -12.29719,-4.6961 z m 19.47054,27.55357 c -0.14851,0.75892 -0.62748,1.36561 -1.4369,1.65744 -0.80941,0.2937 -1.97156,0.27253 -3.48643,-0.2651 -3.03345,-1.07526 -7.44069,-4.19894 -13.18828,-10.82353 l -0.18194,0.16003 c 5.75503,6.63536 10.19568,9.79728 13.28854,10.8937 1.54457,0.54803 2.76612,0.58442 3.65351,0.26436 0.8911,-0.32191 1.42576,-0.99952 1.59284,-1.83901 z m -18.32325,-9.34245 0.004,0.0672 0.24134,-0.0171 -0.004,-0.0672 z m 0.004,0.0672 c 0.4307,6.12371 1.42205,20.30632 -1.53715,31.94557 -1.47774,5.82 -3.94311,10.98542 -7.94193,14.19449 -3.9951,3.20351 -9.53923,4.47221 -17.22051,2.45944 l -0.0616,0.23614 c 7.7381,2.028 13.36874,0.75669 17.43438,-2.50548 4.05822,-3.2566 6.54216,-8.48253 8.02733,-14.32444 2.97034,-11.68344 1.97156,-25.90503 1.54086,-32.0228 z m -26.8476,48.68454 c -0.96053,3.4144 -1.81376,7.73476 -2.55894,11.35448 -0.37315,1.81153 -0.71882,3.4467 -1.03739,4.70872 -0.15966,0.6312 -0.31189,1.1666 -0.45669,1.58282 -0.14629,0.42142 -0.28033,0.70508 -0.39803,0.84617 l 0.18751,0.15595 c 0.14888,-0.17859 0.2948,-0.50088 0.44109,-0.92192 0.14815,-0.42587 0.30223,-0.96907 0.46263,-1.60324 0.32043,-1.26796 0.66721,-2.9087 1.03999,-4.71949 0.74592,-3.62455 1.5973,-7.93376 2.55449,-11.3374 z m -4.2977,18.67673 c 2.8764,-1.59804 7.134,-3.93978 10.96462,-5.69525 1.91549,-0.8781 3.71997,-1.60732 5.18954,-2.02428 0.73368,-0.20867 1.37972,-0.33751 1.91438,-0.36944 0.53466,-0.0319 0.93566,0.036 1.19556,0.20161 l 0.12996,-0.20569 c -0.32303,-0.20718 -0.78714,-0.27253 -1.34037,-0.23949 -0.55694,0.0331 -1.22155,0.16709 -1.96636,0.37798 -1.48702,0.42216 -3.30487,1.15769 -5.22445,2.03728 -3.84027,1.76029 -8.1053,4.10611 -10.9817,5.70415 z m 19.25668,-7.89144 c 0.1151,0.0824 0.21906,0.25174 0.29332,0.52538 0.0743,0.26993 0.11881,0.62451 0.12624,1.05372 0.0186,0.85732 -0.10768,1.99458 -0.38615,3.31081 -0.55693,2.63135 -1.72279,5.96184 -3.58148,9.17277 -3.71551,6.42298 -10.17562,12.34397 -20.01634,11.28578 l -0.026,0.24283 c 9.97438,1.07229 16.51209,-4.93855 20.2536,-11.40646 1.8702,-3.23432 3.04719,-6.58894 3.60784,-9.24442 0.28218,-1.32737 0.41213,-2.48394 0.39357,-3.36613 -0.007,-0.44073 -0.052,-0.81722 -0.13366,-1.11425 -0.0817,-0.29332 -0.20793,-0.52686 -0.38615,-0.65756 z m -23.56181,25.34884 c -1.19259,-0.15558 -2.84967,-0.96536 -4.68385,-2.42788 -1.83084,-1.46029 -3.8269,-3.5618 -5.69858,-6.283 -3.74263,-5.44128 -6.98438,-13.35611 -7.4095,-23.55995 l -0.24357,0.01 c 0.42698,10.251 3.68396,18.21001 7.4522,23.68842 1.88356,2.73865 3.89596,4.85872 5.74722,6.33498 1.84792,1.47366 3.54695,2.31538 4.80452,2.47949 z m -17.98278,-32.36663 c -3.7092,2.54372 -10.0802,4.82791 -16.16122,5.3325 -6.08918,0.50532 -11.82601,-0.77712 -14.3456,-5.29128 l -0.21275,0.11918 c 2.59421,4.64783 8.46954,5.92211 14.57877,5.41529 6.11741,-0.50755 12.53036,-2.80399 16.27892,-5.37445 z m -30.50719,0.0405 c -1.78889,-3.15672 -2.53704,-8.7558 0.82761,-15.11232 3.36464,-6.35763 10.8484,-13.47975 25.53448,-19.65842 l -0.0947,-0.225 c -14.71764,6.19166 -22.2556,13.34534 -25.65552,19.76906 -3.40067,6.42447 -2.65734,12.11192 -0.8239,15.34698 z"
     id="path40" />
  <path
     style="fill:#003594;stroke-width:3.71291828"
     d="m 298.50404,210.93673 c -1.87131,-10.56919 -9.07066,-24.38013 -20.91858,-23.19126 -9.51621,0.72959 -19.09888,10.10731 -25.97112,25.26901 -6.92088,-6.84885 -18.56162,-12.07552 -26.79316,-7.7173 -6.1861,3.16192 -8.57053,10.22464 -6.53066,18.56942 -12.56897,5.95292 -28.01508,17.90109 -28.40196,31.62738 0.0434,8.67709 7.39204,13.98137 16.00379,13.86218 4.77927,0 10.29741,-1.4369 16.15491,-4.57654 3.11291,17.91223 10.76412,31.52119 23.45042,31.98642 4.32258,0 8.66224,-1.94037 12.58308,-5.70044 4.76961,-4.46887 13.34497,-16.55776 10.14072,-22.9425 -2.02354,-3.45821 -6.8715,-1.67898 -8.6964,-1.0088 -2.44755,0.89816 -5.45205,2.31761 -9.60495,4.43917 1.32849,-3.59634 2.45016,-7.22089 3.33569,-10.789 2.23555,0.69097 4.26986,0.98095 6.10998,0.98095 4.42617,0 7.72324,-1.67601 9.99555,-3.479 10.51869,-8.1584 12.46798,-29.86263 10.92712,-44.57544 4.24015,3.642 9.67957,9.15382 13.91601,9.2292 5.42086,-0.27996 5.10898,-7.53314 4.29956,-11.98345 z m -101.16403,51.47999 c -2.07144,-1.70795 -3.17454,-4.1102 -3.19088,-6.94687 -0.0186,-3.26849 1.40311,-6.94724 4.11094,-10.63826 4.87098,-6.63981 12.75388,-12.85226 21.34817,-16.88041 2.70932,6.81283 8.03141,14.80415 15.31245,21.48889 -15.41567,15.8679 -30.74111,18.61583 -37.58068,12.97665 z m 62.32913,9.21546 c 3.51391,-1.45138 4.63521,-1.36264 4.90254,-1.29766 1.03219,4.16812 -5.53076,14.24832 -9.43972,17.65604 -15.04215,13.55809 -26.42039,-5.78584 -29.13676,-25.55676 3.98322,-2.59979 8.07746,-5.97854 12.16538,-10.21461 0.63936,0.51164 1.29098,1.01177 1.95485,1.49964 -0.13775,3.48866 -0.68652,7.69317 -1.20447,10.28182 -0.23057,1.15397 0.51758,2.27602 1.67118,2.50696 1.12465,0.23391 2.28085,-0.51053 2.5066,-1.67118 0.41881,-2.09335 0.87513,-5.24673 1.1265,-8.36595 1.62254,0.98912 3.30412,1.89916 5.0414,2.71414 -1.66748,6.91123 -4.27506,14.07085 -7.58438,20.80608 -0.5187,1.05596 -0.0835,2.33246 0.97241,2.85115 1.03293,0.51424 2.3306,0.0939 2.85152,-0.97241 0.68763,-1.39977 1.34631,-2.81773 1.97416,-4.24795 5.33806,-2.79397 9.26225,-4.77704 12.19879,-5.98931 z m 34.45737,-52.97035 c -0.27847,-0.006 -1.3812,-0.21164 -4.39609,-2.51773 -2.52479,-1.9322 -5.80329,-4.86467 -10.24023,-8.94739 -0.23392,-1.5416 -0.50496,-3.08135 -0.80571,-4.61404 -0.22648,-1.15435 -1.34779,-1.90622 -2.5025,-1.6775 -1.15472,0.2276 -1.90473,1.34816 -1.67824,2.50251 5.15353,25.45242 0.96164,62.59869 -22.77913,52.22294 -13.97208,-6.29006 -24.43991,-19.70001 -28.25345,-29.49766 -3.07541,-7.90294 -1.81525,-14.43322 3.28927,-17.04229 7.18784,-3.67319 20.04568,1.24308 30.71512,17.74849 0.63862,0.98801 1.95708,1.27093 2.94546,0.63231 0.98801,-0.63862 1.2713,-1.95708 0.63231,-2.94509 -1.96339,-3.03791 -4.05154,-5.78918 -6.23288,-8.22411 6.18944,-14.40872 14.97532,-23.68656 23.08804,-24.30885 4.57803,-0.3505 8.61398,2.12862 11.66599,7.17076 2.25375,3.71849 3.98025,8.28241 4.73769,12.52108 0.8057,4.51713 0.15594,6.52879 -0.18565,6.97657 z"
     id="path42" />
  <path
     style="fill:#003594;stroke-width:3.71291828"
     d="m 240.66012,219.23213 c -0.58813,-1.01882 -1.89099,-1.36821 -2.91019,-0.78008 -0.50904,0.29406 -1.13021,0.37538 -1.69717,0.22352 -1.13616,-0.30446 -2.30461,0.3698 -2.60944,1.50596 -0.30446,1.13652 0.3698,2.30461 1.50633,2.60944 1.64631,0.44703 3.45524,0.20829 4.93001,-0.64865 1.0192,-0.5885 1.36821,-1.89099 0.78046,-2.91019 z"
     id="path44" />
  <path
     style="fill:#003594;stroke-width:3.71291828"
     d="m 242.78428,237.00773 c -0.50867,0.29369 -1.12947,0.37575 -1.69755,0.22352 -1.13615,-0.30372 -2.30461,0.37018 -2.6087,1.5067 -0.30446,1.13615 0.37018,2.30424 1.50671,2.6087 1.6463,0.44703 3.45524,0.20792 4.92964,-0.64939 1.01919,-0.58813 1.36784,-1.89099 0.77971,-2.90982 -0.5885,-1.01882 -1.89136,-1.36783 -2.90981,-0.77971 z"
     id="path46" />
  <path
     style="fill:#003594;stroke-width:3.71291828"
     d="m 248.32284,226.25066 c -0.50867,0.2937 -1.12984,0.37538 -1.69681,0.22315 -1.13652,-0.30446 -2.30461,0.36981 -2.60944,1.50633 -0.30446,1.13615 0.36944,2.30424 1.50596,2.60907 1.64668,0.44741 3.45562,0.20829 4.93076,-0.64865 1.01882,-0.5885 1.36784,-1.89099 0.77971,-2.91018 -0.58812,-1.01883 -1.89136,-1.36784 -2.91018,-0.77972 z"
     id="path48" />
  <path
     style="fill:#003594;stroke-width:3.71291828"
     d="m 212.18649,253.11066 c -0.98578,-0.56919 -2.10931,-0.86994 -3.24806,-0.87031 -1.17663,0 -2.13048,0.95348 -2.13048,2.1301 -3.7e-4,1.17625 0.95348,2.13047 2.1301,2.13047 0.39209,0 0.77897,0.10359 1.11834,0.29927 0.1693,0.098 0.32525,0.21757 0.46337,0.35569 2.07478,1.92032 4.93224,-0.93937 3.01266,-3.01266 -0.40137,-0.40099 -0.85397,-0.74815 -1.34593,-1.03256 z"
     id="path50" />
  <path
     style="fill:#003594;stroke-width:3.71291828"
     d="m 216.87219,240.11767 c -0.98615,-0.56919 -2.10931,-0.86994 -3.24843,-0.87031 -1.17625,0 -2.13047,0.95348 -2.13047,2.1301 0,1.17663 0.95347,2.13048 2.1301,2.13048 0.39245,0 0.77934,0.10359 1.1187,0.29963 0.16931,0.0977 0.32488,0.21721 0.46337,0.35533 2.07478,1.92032 4.93224,-0.93974 3.01266,-3.01267 -0.40173,-0.40136 -0.85434,-0.74852 -1.34593,-1.03256 z"
     id="path52" />
  <path
     style="fill:#003594;stroke-width:3.71291828"
     d="m 263.98504,231.89653 h -0.004 c -1.17588,0 -2.12862,0.95348 -2.12862,2.1301 0.1125,2.82516 4.14845,2.82516 4.25983,0 0,-1.17662 -0.9505,-2.1301 -2.1275,-2.1301 z"
     id="path54" />
  <path
     style="fill:#ffc600;stroke-width:3.71291828"
     d="M 239.24698,363.26812 H 135.47796 c -28.48068,-0.0631 -52.544103,-21.0374 -56.499475,-49.10966 8.240822,2.95846 16.745262,5.25972 25.381885,6.83734 2.83481,0.52612 5.53781,-1.38046 5.99933,-4.20748 0.46152,-2.82701 -1.45064,-5.39115 -4.21936,-5.9169 -9.559652,-1.64371 -18.855314,-4.40501 -27.755551,-8.2839 v -9.33539 c 4.746966,1.84087 9.559651,3.35277 14.504145,4.53608 2.834813,0.72327 5.603907,-1.11759 6.26295,-3.94461 0.593325,-2.69558 -1.05484,-5.4565 -3.823563,-6.04834 -5.801806,-1.38047 -11.537523,-3.35277 -16.943532,-5.91691 v -32.41192 c 0,0 0,0 0.06609,0 1.450266,0.78899 2.966622,1.51227 4.614786,2.23555 h 0.06609 l 0.131809,0.0657 c 16.020129,5.71975 32.765766,9.20395 49.775016,10.51906 h 0.1979 c 1.58207,0.19716 3.23023,0.3286 4.8784,0.46004 13.18531,1.24902 27.62337,2.03802 42.65475,2.23517 2.30758,0.0661 4.54907,0.0661 6.65875,0.0661 2.17577,0 4.35116,0 6.65874,-0.0661 15.03138,-0.19715 29.46944,-0.92006 42.65475,-2.23517 1.64817,-0.13144 3.23061,-0.3286 4.87878,-0.46004 h 0.19752 c 17.00926,-1.31511 33.68806,-4.79931 49.77613,-10.51906 l 0.12995,-0.0657 0.0668,-0.0657 c 1.64853,-0.72328 3.23024,-1.44655 4.61515,-2.23555 h 0.0668 v 32.47764 c -8.0459,4.14176 -40.21685,9.4672 -52.61094,11.37378 -2.7691,0.46003 -4.74697,2.95846 -4.48335,5.71975 0.26399,2.95846 2.9009,5.0622 5.86752,4.79895 15.29537,-1.64334 36.85406,-4.79895 51.22677,-10.5187 v 9.26968 c -8.89987,3.87888 -18.19702,6.64018 -27.75778,8.28389 -2.83296,0.46003 -4.67828,3.08989 -4.21788,5.9169 0.4604,2.82702 3.16341,4.7336 6.00008,4.20748 8.63625,-1.57762 17.13883,-3.87888 25.38151,-6.83734 0,0 0.0668,0 0,0 -4.02109,28.13798 -28.15135,49.11226 -56.63203,49.17538 z"
     id="path56" />
  <path
     style="clip-rule:evenodd;fill:#003594;fill-rule:evenodd;stroke-width:3.71291828"
     d="m 103.9861,246.76714 c -5.820738,1.30583 -9.492443,4.29287 -11.693832,7.79973 13.242122,3.97802 26.907152,6.48424 40.747422,7.5543 h 0.19753 c 1.58244,0.19715 3.23061,0.32859 4.87877,0.46003 13.18532,1.24903 27.62337,2.03802 42.65475,2.23518 2.30758,0.0661 4.54907,0.0661 6.65875,0.0661 2.1754,0 4.35117,0 6.65838,-0.0661 15.03138,-0.19716 29.46943,-0.92006 42.65512,-2.23518 0.82389,-0.0657 1.63145,-0.14777 2.43901,-0.2302 0.80756,-0.0821 1.61549,-0.16411 2.43939,-0.22983 h 0.1979 c 14.9987,-1.15955 29.7401,-4.00587 44.04598,-8.58427 -4.3961,-2.89236 -10.34048,-5.42829 -14.4284,-6.8689 -27.6553,5.47916 -55.83153,8.02288 -84.07347,7.6954 -27.96125,0.32413 -55.92212,-2.16575 -83.3773,-7.59626 z"
     id="path58" />
  <path
     style="fill:#ffc600;stroke-width:3.71291828"
     d="m 196.94718,136.51054 -1.65633,26.53883 c -0.99506,14.68385 -13.18457,25.84154 -27.30406,24.95712 -2.80325,-0.20867 -4.99536,-2.61872 -4.79338,-5.41826 l 0.0435,-0.4229 c 0.20198,-2.79954 2.60944,-4.98311 5.41269,-4.77407 8.46137,0.54617 15.86567,-6.11295 16.38399,-14.90589 l 1.65671,-26.53882 c 0.80681,-12.43828 9.69777,-22.31798 20.92341,-24.51566 3.23358,-0.64382 6.25069,2.06661 6.0346,5.42049 l -0.0215,0.21126 c -0.15854,2.37664 -1.88728,4.20414 -4.25204,4.72506 -6.64946,1.39606 -11.95893,7.24985 -12.42751,14.72284 z"
     id="path60" />
  <path
     style="fill:#ffc600;stroke-width:3.71291828"
     d="m 242.71225,111.82112 -1.52007,24.37345 c -0.86474,13.41515 -12.01798,23.65575 -25.02767,22.80289 -2.59162,-0.18676 -4.54276,-2.4431 -4.41355,-4.95118 l -0.007,-0.3427 c 0.18007,-2.58828 2.43419,-4.53162 4.9456,-4.3961 7.87733,0.39989 14.58101,-5.6919 15.11455,-13.79943 l 1.5197,-24.37345 c 0.69877,-11.381209 8.81632,-20.401745 19.12227,-22.397067 3.00004,-0.45409 5.74723,1.971188 5.52334,4.982365 l 0.007,0.342703 c -0.13663,2.165374 -1.68306,3.883712 -3.86551,4.295475 -6.12372,1.280214 -10.96648,6.755654 -11.39866,13.463044 z"
     id="path62" />
</svg>
