<?xml version="1.0" encoding="UTF-8" standalone="no"?>
<svg
   xmlns="http://www.w3.org/2000/svg"
   xml:space="preserve"
   viewBox="0 0 399.58908 597.75867"
   height="597.75867"
   width="399.58908"
   y="0px"
   x="0px"
   id="Layer_1"
   version="1.1">
<path
   style="fill:#ffffff;fill-rule:evenodd;stroke-width:4.61941671"
   id="path2"
   d="M 67.698971,1.6511947 H 331.89011 c 36.59472,0 66.04779,29.4530703 66.04779,66.0477853 v 462.36069 c 0,36.59079 -29.45307,66.04779 -66.04779,66.04779 H 67.698971 c -36.592096,0 -66.0477763,-29.45831 -66.0477763,-66.04779 V 67.69898 c 0,-36.594715 29.4556803,-66.0477853 66.0477763,-66.0477853 z" /><path
   style="fill:none;stroke:#000000;stroke-width:3.30238938"
   id="path4"
   d="M 67.698971,1.6511947 H 331.89011 c 36.59472,0 66.04779,29.4530703 66.04779,66.0477853 v 462.36069 c 0,36.59079 -29.45307,66.04779 -66.04779,66.04779 H 67.698971 c -36.592096,0 -66.0477763,-29.45831 -66.0477763,-66.04779 V 67.69898 c 0,-36.594715 29.4556803,-66.0477853 66.0477763,-66.0477853 z" /><path
   style="fill:#ff0000;fill-rule:evenodd;stroke-width:4.61941671"
   id="path8-6"
   d="m 298.88062,133.71573 c -145.91008,0 -264.191135,118.28499 -264.191135,264.19115 0,36.47948 29.565676,66.04778 66.047785,66.04778 145.91008,0 264.19114,-118.28891 264.19114,-264.19114 0,-36.47949 -29.5683,-66.04779 -66.04779,-66.04779 z" /><path
   class="st11"
   d="m 285.73564,313.38751 c 0,47.766 -45.432,86.926 -101.488,86.926 -56.043,0 -101.481995,-39.16 -101.481995,-86.926 0,-47.768 45.438995,-86.489 101.481995,-86.489 56.057,0 101.488,38.722 101.488,86.489"
   id="path6"
   style="fill:#af5c2b" /><path
   class="st31"
   d="m 144.36064,135.67251 c 4.463,-1.71 8.701,-1.312 12.525,-0.27 3.83401,1.131 7.301,3.149 10.188,5.814 2.887,2.658 5.176,6.002 6.582,9.777 1.332,3.796 1.885,8.002 0.512,12.537 -4.416,-1.709 -7.498,-3.459 -10.297,-5.256 -2.76,-1.789 -5.135,-3.627 -7.336,-5.686 -2.221,-2.066 -4.252,-4.334 -6.271,-6.992 -1.993,-2.711 -3.883,-5.691 -5.903,-9.924"
   id="path8"
   style="fill:#b6392f" /><path
   class="st31"
   d="m 183.85064,108.53851 c 4.219,3.17 6.83,6.926 8.91,10.828 2.012,3.924 3.33,8.076 4.01,12.383 0.666,4.293 0.652,8.756 -0.262,13.264 -0.99599,4.441 -2.76,9.246 -6.838,12.719 -2.287,-4.684 -3.996,-8.277 -5.355,-12.133 -1.312,-3.796 -2.289,-7.598 -2.881,-11.515 -0.57799,-3.917 -0.809,-7.94 -0.553,-12.14 0.311,-4.22 0.983,-8.554 2.969,-13.406"
   id="path10"
   style="fill:#b6392f" /><path
   class="st31"
   d="m 200.08964,117.74851 c 3.338,3.698 5.006,7.614 6.104,11.558 1.037,3.957 1.346,7.969 0.949,11.979 -0.371,3.998 -1.467,8.022 -3.5,11.865 -2.066,3.681 -5.141,7.759 -10.094,9.179 -0.6,-4.858 -1.48,-8.243 -1.797,-11.905 -0.344,-3.58 -0.396,-7.105 -0.027,-10.659 0.35,-3.546 1.084,-7.134 2.322,-10.78 1.304,-3.656 2.967,-7.344 6.043,-11.237"
   id="path12"
   style="fill:#b6392f" /><path
   class="st153"
   d="m 74.104645,230.45251 c 5.512,-3.164 11.904,-4.576 18.6,-4.671 3.346,0.081 6.75,0.559 10.081995,1.521 3.305,1.003 6.508,2.484 9.494,4.32 2.975,1.844 5.91,3.836 8.574,6.158 2.652,2.336 4.691,5.215 6.004,8.352 2.584,6.318 3.492,13.123 1.238,20.176 l -1.482,0.471 c -5.867,-4.361 -9.541,-8.736 -13.082,-12.74 -1.736,-2.012 -3.121,-4.084 -4.373,-6.305 -1.211,-2.248 -2.598,-4.455 -4.40199,-6.232 -1.775,-1.811 -3.781,-3.398 -6.002005,-4.711 -2.168,-1.393 -4.596,-2.51 -7.188,-3.338 -5.154,-1.796 -11.049,-2.22 -16.898,-1.547 z"
   id="path14"
   style="fill:#3c3d3c" /><path
   class="st153"
   d="m 72.583645,207.69251 c 3.709,-2.834 7.895,-4.939 12.484,-6.306 4.562,-1.366 9.596,-1.938 14.684,-1.157 5.074005,0.82 10.014005,3.062 14.151995,6.211 4.119,3.203 7.43601,7.174 10.182,11.326 2.766,4.354 4.953,8.075 7.328,12.174 2.242,4.078 3.998,8.404 5.082,13.008 1.076,4.59 1.748,9.375 1.613,14.287 -0.174,4.873 -0.645,10.055 -3.842,14.643 l -1.461,-0.496 c -3.176,-8.387 -7.482,-15.654 -10.982,-23.434 -1.789,-3.855 -3.316,-7.832 -4.549,-12.006 -1.197,-4.078 -2.449,-8.627 -4.01,-12.1 -3.258,-7.188 -8.17,-13.365 -15.417995,-16.097 -7.207,-2.927 -16.346,-1.911 -24.449,1.265 z"
   id="path16"
   style="fill:#3c3d3c" /><path
   class="st153"
   d="m 112.80664,195.57951 c 3.904,-1.683 8.371,-1.838 12.814,-0.861 2.193,0.552 4.367,1.399 6.42,2.496 2.004,1.158 3.889,2.558 5.598,4.112 1.709,1.575 3.473,3.136 5.055,4.872 1.555,1.75 2.557,3.816 2.941,6.029 0.377,2.207 0.377,4.482 -0.148,6.771 -0.479,2.274 -1.367,4.556 -3.189,6.864 l -1.508,0.289 c -2.559,-1.42 -4.293,-2.826 -5.80099,-4.192 -1.555,-1.373 -2.74601,-2.706 -3.762,-4.011 -1.029,-1.306 -1.623,-2.679 -1.918,-4.24 -0.28301,-1.567 -0.59201,-3.176 -1.29301,-4.549 -0.672,-1.373 -1.47999,-2.691 -2.422,-3.902 -0.90199,-1.266 -1.979,-2.45 -3.217,-3.493 -2.436,-2.161 -5.693,-3.843 -9.314,-4.65 z"
   id="path18"
   style="fill:#3c3d3c" /><path
   class="st153"
   d="m 261.47564,276.01851 c 0,0 -27.248,36.789 -77.248,36.789 -0.37099,0.021 -0.693,-1.197 -1.043,-1.197 h -0.586 c -0.748,0 -1.488,1.205 -2.215,1.104 -47.543,-1.918 -73.08199,-38.277 -73.08199,-38.277 -7,21.049 -7.025,45.047 -7.025,45.047 1.104,45.439 38.25,82.102 83.95099,82.102 45.727,0 82.889,-36.475 83.932,-81.959 0,-10e-4 -0.027,-22.822 -6.684,-43.609"
   id="path20"
   style="fill:#3c3d3c" /><path
   class="st26"
   d="m 254.38964,259.92651 c -3.533,-5.801 -6.029,-12.193 -7.799,-18.439 -3.035,-10.672 -3.957,-20.914 -4.248,-27.053 0,-0.229 0.021,-0.471 0.021,-0.699 0,-1.063 -0.094,-2.1 -0.14801,-3.149 -0.027,-1.251 -0.014,-1.999 -0.014,-1.999 l -0.088,0.121 c -2.551,-29.765 -27.477,-53.123 -57.895,-53.123 -30.383,0 -56.387,23.318 -58.977,53.029 l -1.11699,-0.027 v 0.424 c 0,1.562 0.86099,3.13 0.86099,4.725 0,0.484 0.59201,0.963 0.605,1.439 -0.338,5.862 -0.936,15.014 -3.473,24.672 -1.805,6.762 -4.279,13.781 -8.137,20.08 -2.812,4.59 -4.973,8.602 -6.75,13.965 0,0 25.613,37.719 73.164,37.719 v 0 h 2.207 0.58 c 0.35,0 0.686,1.219 1.035,1.197 50.016,0 77.256,-37.443 77.256,-37.443 -1.813,-5.694 -4.11599,-10.579 -7.083,-15.439"
   id="path22"
   style="fill:#e98130" /><path
   class="st24"
   d="m 205.17764,254.80551 v -0.041 c 0,-12.914 -11.684,-23.385 -21.334,-23.385 -9.623,0 -21.305,10.471 -21.305,23.385 0,5.184 -0.404,18.764 9.367,18.764 2.881,0 5.424,-1.326 7.146,-3.373 1.615,0.17 3.244,0.256 4.791,0.256 1.576,0 3.203,-0.086 4.818,-0.256 1.723,2.047 4.268,3.373 7.148,3.373 9.759,0 9.369,-13.533 9.369,-18.723"
   id="path24"
   style="fill:#e9575b" /><path
   class="st24"
   d="m 208.09764,188.82251 c -10.721,0 -19.906,6.178 -23.836,14.993 -0.014,-0.014 -0.027,-0.033 -0.041,-0.053 -3.957,-8.789 -13.109,-14.94 -23.795,-14.94 -14.30699,0 -25.883,11.01 -25.883,24.577 0,13.594 11.576,24.59 25.883,24.59 10.674,0 19.838,1.561 23.795,-7.188 0.014,-0.021 0.027,-0.041 0.041,-0.061 3.93,8.816 13.115,7.248 23.836,7.248 14.293,0 25.86901,-10.996 25.86901,-24.59 0,-13.566 -11.577,-24.576 -25.86901,-24.576"
   id="path26"
   style="fill:#e9575b" /><path
   class="st61"
   d="m 179.67164,232.01251 -6.27099,4.139 c -2.518,1.67 -3.311,5.148 -1.77,7.746 l 9.81099,16.475 c 0.775,1.305 1.79701,1.951 2.81401,1.951 v -31.563 c -1.67001,0 -3.31901,0.418 -4.58401,1.252"
   id="path28"
   style="fill:#f29d2b" /><path
   class="st98"
   d="m 187.05964,260.37251 9.812,-16.475 c 1.54701,-2.598 0.75401,-6.084 -1.76999,-7.746 l -6.26601,-4.139 c -1.266,-0.82 -2.928,-1.244 -4.582,-1.244 v 31.555 c 1.017,0 2.041,-0.647 2.806,-1.951"
   id="path30"
   style="fill:#fadc58" /><path
   class="st22"
   d="m 164.94664,213.46051 c 0,4.629 -3.762,8.385 -8.385,8.385 -4.64299,0 -8.39799,-3.756 -8.39799,-8.385 0,-4.623 3.75599,-8.379 8.39799,-8.379 4.623,0 8.385,3.756 8.385,8.379"
   id="path32"
   style="fill:#4d1715" /><path
   class="st22"
   d="m 219.53864,213.46051 c 0,4.629 -3.756,8.385 -8.387,8.385 -4.629,0 -8.385,-3.756 -8.385,-8.385 0,-4.623 3.756,-8.379 8.385,-8.379 4.631,0 8.387,3.756 8.387,8.379"
   id="path34"
   style="fill:#4d1715" /><path
   class="st108"
   d="m 162.53064,210.13551 c 0,1.58 -1.28499,2.866 -2.865,2.866 -1.582,0 -2.86699,-1.286 -2.86699,-2.866 0,-1.582 1.28499,-2.875 2.86699,-2.875 1.58001,0 2.865,1.293 2.865,2.875"
   id="path36"
   style="fill:#ffffff" /><path
   class="st108"
   d="m 216.88664,210.13551 c 0,1.58 -1.279,2.866 -2.867,2.866 -1.588,0 -2.867,-1.286 -2.867,-2.866 0,-1.582 1.279,-2.875 2.867,-2.875 1.588,0 2.867,1.293 2.867,2.875"
   id="path38"
   style="fill:#ffffff" /><path
   class="st24"
   d="m 145.76164,100.54451 c 7.625,4.189 13.445,9.082 18.77001,13.23 1.305,1.033 2.598,1.965 3.70099,2.735 0.59201,0.421 1.07601,0.616 1.60701,0.973 l 2.15999,1.433 c 3.10401,2.113 6.689,5.148 9.609,8.823 6.004,7.409 8.742,16.683 8.871,25.021 0.094,8.459 -1.871,16.475 -6.637,23.856 -4.912,-7.248 -8.008,-13.917 -11.197,-19.759 -3.102,-5.895 -6.002,-10.578 -9.219,-14.616 -1.643,-2.079 -3.447,-4.044 -5.875,-6.71 l -1.979,-2.193 c -0.814,-0.875 -1.648,-1.958 -2.303,-2.887 -1.379,-1.911 -2.402,-3.822 -3.303,-5.721 -3.418,-7.617 -5.026,-15.42 -4.205,-24.185"
   id="path40"
   style="fill:#e9575b" /><path
   d="m 69.574208,37.652844 -0.448,4.106666 c -3.509334,-3.957333 -7.914667,-4.629333 -10.304,-4.629333 -10.826666,0 -20.085333,9.557333 -20.085333,23.221333 0,11.274666 6.645334,22.773332 21.354666,22.773332 6.944,0 12.992,-2.538666 16.277333,-3.957333 V 67.29551 h 3.509333 V 61.172843 H 59.120875 v 6.122667 h 10.751999 v 7.391999 c -5.151999,1.941334 -8.885333,2.016 -9.706666,2.016 -9.856,0 -14.559999,-7.093333 -14.559999,-16.426666 0,-10.303999 5.973333,-16.725333 13.663999,-16.725333 9.109333,0 10.08,7.242667 10.602666,11.498667 l 6.272,-0.821334 c -0.373333,-1.866666 -0.896,-4.479999 -0.896,-9.258666 0,-3.061333 0.149333,-5.450666 0.298667,-7.317333 z"
   style="font-style:normal;font-variant:normal;font-weight:bold;font-stretch:normal;font-size:74.66666412px;line-height:1.25;font-family:Courier;-inkscape-font-specification:'Courier Bold';letter-spacing:0px;word-spacing:0px;fill:#000000;fill-opacity:1;stroke:none"
   id="path33" /><path
   d="m 88.211707,38.399511 v 6.122666 h 9.632 l -12.768,31.285332 h -4.330666 v 6.122667 H 98.44104 v -6.122667 h -6.645333 l 2.912,-7.317333 h 16.800003 l 2.912,7.317333 h -6.57067 v 6.122667 h 17.696 v -6.122667 h -4.18133 L 106.20637,38.399511 Z M 109.11837,62.36751 H 97.246374 l 5.898666,-14.261333 z"
   style="font-style:normal;font-variant:normal;font-weight:bold;font-stretch:normal;font-size:74.66666412px;line-height:1.25;font-family:Courier;-inkscape-font-specification:'Courier Bold';letter-spacing:0px;word-spacing:0px;fill:#000000;fill-opacity:1;stroke:none"
   id="path35" /><path
   d="m 129.09987,38.399511 v 6.122666 h 7.168 v 31.285332 h -7.168 v 6.122667 h 37.632 l 0.97067,-20.906666 h -6.34667 l -0.97066,14.783999 H 142.76387 V 44.522177 h 8.96 v -6.122666 z"
   style="font-style:normal;font-variant:normal;font-weight:bold;font-stretch:normal;font-size:74.66666412px;line-height:1.25;font-family:Courier;-inkscape-font-specification:'Courier Bold';letter-spacing:0px;word-spacing:0px;fill:#000000;fill-opacity:1;stroke:none"
   id="path37" /><path
   d="m 173.87071,38.399511 v 6.122666 h 7.168 v 31.285332 h -7.168 v 6.122667 h 37.632 l 0.97066,-20.906666 h -6.34666 l -0.97067,14.783999 H 187.53471 V 44.522177 h 8.96 v -6.122666 z"
   style="font-style:normal;font-variant:normal;font-weight:bold;font-stretch:normal;font-size:74.66666412px;line-height:1.25;font-family:Courier;-inkscape-font-specification:'Courier Bold';letter-spacing:0px;word-spacing:0px;fill:#000000;fill-opacity:1;stroke:none"
   id="path39" /><path
   d="m 217.44687,60.202177 c 0,12.693332 7.98933,22.922665 20.01067,22.922665 12.096,0 20.01066,-10.303999 20.01066,-22.997332 0,-12.618666 -7.84,-22.997333 -20.01066,-22.997333 -12.17067,0 -20.01067,10.453333 -20.01067,23.072 z m 6.86933,-0.07467 c 0,-8.661333 4.85334,-16.576 13.14134,-16.576 8.512,0 13.14133,8.213333 13.14133,16.576 0,8.810666 -4.85333,16.575999 -13.14133,16.575999 -8.21334,0 -13.14134,-7.839999 -13.14134,-16.575999 z"
   style="font-style:normal;font-variant:normal;font-weight:bold;font-stretch:normal;font-size:74.66666412px;line-height:1.25;font-family:Courier;-inkscape-font-specification:'Courier Bold';letter-spacing:0px;word-spacing:0px;fill:#000000;fill-opacity:1;stroke:none"
   id="path41" />
<path
   d="m 327.11271,564.33702 0.448,-4.10666 c 3.50933,3.95733 7.91467,4.62933 10.304,4.62933 10.82666,0 20.08533,-9.55733 20.08533,-23.22133 0,-11.27467 -6.64533,-22.77333 -21.35466,-22.77333 -6.944,0 -12.992,2.53866 -16.27734,3.95733 v 11.872 h -3.50933 v 6.12267 h 20.75733 v -6.12267 h -10.752 v -7.392 c 5.152,-1.94133 8.88534,-2.016 9.70667,-2.016 9.856,0 14.56,7.09333 14.56,16.42666 0,10.304 -5.97334,16.72534 -13.664,16.72534 -9.10933,0 -10.08,-7.24267 -10.60267,-11.49867 l -6.272,0.82133 c 0.37334,1.86667 0.896,4.48 0.896,9.25867 0,3.06133 -0.14933,5.45067 -0.29866,7.31733 z"
   style="font-style:normal;font-variant:normal;font-weight:bold;font-stretch:normal;font-size:74.66666412px;line-height:1.25;font-family:Courier;-inkscape-font-specification:'Courier Bold';letter-spacing:0px;word-spacing:0px;fill:#000000;fill-opacity:1;stroke:none"
   id="path44" /><path
   d="m 308.47521,563.59036 v -6.12267 h -9.632 l 12.768,-31.28533 h 4.33067 v -6.12267 h -17.696 v 6.12267 h 6.64533 l -2.912,7.31733 h -16.8 l -2.912,-7.31733 h 6.57067 v -6.12267 h -17.696 v 6.12267 h 4.18133 l 15.15733,37.408 z m -20.90667,-23.968 h 11.872 l -5.89866,14.26133 z"
   style="font-style:normal;font-variant:normal;font-weight:bold;font-stretch:normal;font-size:74.66666412px;line-height:1.25;font-family:Courier;-inkscape-font-specification:'Courier Bold';letter-spacing:0px;word-spacing:0px;fill:#000000;fill-opacity:1;stroke:none"
   id="path46" /><path
   d="m 267.58704,563.59036 v -6.12267 h -7.168 v -31.28533 h 7.168 v -6.12267 h -37.632 l -0.97066,20.90667 h 6.34666 l 0.97067,-14.784 h 17.62133 v 31.28533 h -8.96 v 6.12267 z"
   style="font-style:normal;font-variant:normal;font-weight:bold;font-stretch:normal;font-size:74.66666412px;line-height:1.25;font-family:Courier;-inkscape-font-specification:'Courier Bold';letter-spacing:0px;word-spacing:0px;fill:#000000;fill-opacity:1;stroke:none"
   id="path48" /><path
   d="m 222.81621,563.59036 v -6.12267 h -7.168 v -31.28533 h 7.168 v -6.12267 h -37.632 l -0.97067,20.90667 h 6.34667 l 0.97067,-14.784 h 17.62133 v 31.28533 h -8.96 v 6.12267 z"
   style="font-style:normal;font-variant:normal;font-weight:bold;font-stretch:normal;font-size:74.66666412px;line-height:1.25;font-family:Courier;-inkscape-font-specification:'Courier Bold';letter-spacing:0px;word-spacing:0px;fill:#000000;fill-opacity:1;stroke:none"
   id="path50" /><path
   d="m 179.24005,541.78769 c 0,-12.69333 -7.98934,-22.92266 -20.01067,-22.92266 -12.096,0 -20.01067,10.304 -20.01067,22.99733 0,12.61866 7.84,22.99733 20.01067,22.99733 12.17067,0 20.01067,-10.45333 20.01067,-23.072 z m -6.86934,0.0747 c 0,8.66133 -4.85333,16.576 -13.14133,16.576 -8.512,0 -13.14133,-8.21334 -13.14133,-16.576 0,-8.81067 4.85333,-16.576 13.14133,-16.576 8.21333,0 13.14133,7.84 13.14133,16.576 z"
   style="font-style:normal;font-variant:normal;font-weight:bold;font-stretch:normal;font-size:74.66666412px;line-height:1.25;font-family:Courier;-inkscape-font-specification:'Courier Bold';letter-spacing:0px;word-spacing:0px;fill:#000000;fill-opacity:1;stroke:none"
   id="path52" />
</svg>
