<?xml version="1.0" encoding="UTF-8" standalone="no"?>
<svg
   xmlns="http://www.w3.org/2000/svg"
   height="597.75867"
   width="399.58908"
   id="svg8"
   version="1.1"
   viewBox="0 0 399.58908 597.75867"
   xml:space="preserve"><path
   style="fill:#ffffff;fill-rule:evenodd;stroke-width:4.61941671"
   id="path2-3"
   d="M 67.698965,1.6511947 H 331.8901 c 36.59472,0 66.04779,29.4530703 66.04779,66.0477803 V 530.05966 c 0,36.59079 -29.45307,66.04779 -66.04779,66.04779 H 67.698965 c -36.59209,0 -66.0477703,-29.45831 -66.0477703,-66.04779 V 67.698975 c 0,-36.59471 29.4556803,-66.0477803 66.0477703,-66.0477803 z" /><path
   style="fill:none;stroke:#000000;stroke-width:3.30238938"
   id="path4-6"
   d="M 67.698965,1.6511947 H 331.8901 c 36.59472,0 66.04779,29.4530703 66.04779,66.0477803 V 530.05966 c 0,36.59079 -29.45307,66.04779 -66.04779,66.04779 H 67.698965 c -36.59209,0 -66.0477703,-29.45831 -66.0477703,-66.04779 V 67.698975 c 0,-36.59471 29.4556803,-66.0477803 66.0477703,-66.0477803 z" /><path
   style="fill:#ff0000;fill-rule:evenodd;stroke-width:4.61941671"
   id="path8-6"
   d="m 298.88062,133.71572 c -145.91008,0 -264.191135,118.28499 -264.191135,264.19115 0,36.47948 29.56567,66.04778 66.047785,66.04778 145.91008,0 264.19113,-118.28891 264.19113,-264.19114 0,-36.47949 -29.5683,-66.04779 -66.04778,-66.04779 z" /><path
   d="m 69.5742,37.652829 -0.448,4.106666 c -3.509333,-3.957333 -7.914666,-4.629333 -10.304,-4.629333 -10.826666,0 -20.085332,9.557333 -20.085332,23.221333 0,11.274666 6.645333,22.773332 21.354666,22.773332 6.943999,0 12.991999,-2.538666 16.277332,-3.957333 v -11.872 H 79.8782 V 61.172828 H 59.120867 v 6.122666 h 10.752 v 7.392 c -5.152,1.941333 -8.885333,2.016 -9.706667,2.016 -9.855999,0 -14.559999,-7.093333 -14.559999,-16.426666 0,-10.304 5.973333,-16.725333 13.663999,-16.725333 9.109333,0 10.08,7.242667 10.602667,11.498666 l 6.272,-0.821333 c -0.373334,-1.866666 -0.896,-4.48 -0.896,-9.258666 0,-3.061333 0.149333,-5.450667 0.298666,-7.317333 z"
   style="font-style:normal;font-variant:normal;font-weight:bold;font-stretch:normal;font-size:74.66666412px;line-height:1.25;font-family:Courier;-inkscape-font-specification:'Courier Bold';letter-spacing:0px;word-spacing:0px;fill:#000000;fill-opacity:1;stroke:none"
   id="path14" /><path
   d="m 88.2117,38.399495 v 6.122667 h 9.631999 L 85.0757,75.807494 h -4.330667 v 6.122667 h 17.696 V 75.807494 H 91.7957 l 2.911999,-7.317333 H 111.5077 l 2.912,7.317333 h -6.57067 v 6.122667 h 17.696 V 75.807494 H 121.3637 L 106.20637,38.399495 Z m 20.90667,23.968 H 97.246366 l 5.898664,-14.261333 z"
   style="font-style:normal;font-variant:normal;font-weight:bold;font-stretch:normal;font-size:74.66666412px;line-height:1.25;font-family:Courier;-inkscape-font-specification:'Courier Bold';letter-spacing:0px;word-spacing:0px;fill:#000000;fill-opacity:1;stroke:none"
   id="path16" /><path
   d="m 129.2492,38.399495 -1.41867,19.712 6.42134,0.896 0.97066,-14.485333 h 9.48267 v 31.285332 h -8.66134 v 6.122667 h 23.968 V 75.807494 H 151.2012 V 44.522162 h 9.48266 l 0.97067,14.485333 6.42133,-0.896 -1.41866,-19.712 z"
   style="font-style:normal;font-variant:normal;font-weight:bold;font-stretch:normal;font-size:74.66666412px;line-height:1.25;font-family:Courier;-inkscape-font-specification:'Courier Bold';letter-spacing:0px;word-spacing:0px;fill:#000000;fill-opacity:1;stroke:none"
   id="path18" /><path
   d="m 172.67603,60.202161 c 0,12.693333 7.98934,22.922666 20.01067,22.922666 12.096,0 20.01067,-10.304 20.01067,-22.997332 0,-12.618667 -7.84,-22.997333 -20.01067,-22.997333 -12.17067,0 -20.01067,10.453333 -20.01067,23.071999 z m 6.86934,-0.07467 c 0,-8.661333 4.85333,-16.576 13.14133,-16.576 8.512,0 13.14133,8.213333 13.14133,16.576 0,8.810666 -4.85333,16.575999 -13.14133,16.575999 -8.21333,0 -13.14133,-7.84 -13.14133,-16.575999 z"
   style="font-style:normal;font-variant:normal;font-weight:bold;font-stretch:normal;font-size:74.66666412px;line-height:1.25;font-family:Courier;-inkscape-font-specification:'Courier Bold';letter-spacing:0px;word-spacing:0px;fill:#000000;fill-opacity:1;stroke:none"
   id="path20" />
<path
   d="m 327.11271,564.33702 0.448,-4.10666 c 3.50933,3.95733 7.91467,4.62933 10.304,4.62933 10.82666,0 20.08533,-9.55733 20.08533,-23.22133 0,-11.27467 -6.64533,-22.77333 -21.35466,-22.77333 -6.944,0 -12.992,2.53866 -16.27734,3.95733 v 11.872 h -3.50933 v 6.12267 h 20.75733 v -6.12267 h -10.752 v -7.392 c 5.152,-1.94133 8.88534,-2.016 9.70667,-2.016 9.856,0 14.56,7.09333 14.56,16.42666 0,10.304 -5.97334,16.72534 -13.664,16.72534 -9.10933,0 -10.08,-7.24267 -10.60267,-11.49867 l -6.272,0.82133 c 0.37334,1.86667 0.896,4.48 0.896,9.25867 0,3.06133 -0.14933,5.45067 -0.29866,7.31733 z"
   style="font-style:normal;font-variant:normal;font-weight:bold;font-stretch:normal;font-size:74.66666412px;line-height:1.25;font-family:Courier;-inkscape-font-specification:'Courier Bold';letter-spacing:0px;word-spacing:0px;fill:#000000;fill-opacity:1;stroke:none"
   id="path23" /><path
   d="m 308.47521,563.59036 v -6.12267 h -9.632 l 12.768,-31.28533 h 4.33067 v -6.12267 h -17.696 v 6.12267 h 6.64533 l -2.912,7.31733 h -16.8 l -2.912,-7.31733 h 6.57067 v -6.12267 h -17.696 v 6.12267 h 4.18133 l 15.15733,37.408 z m -20.90667,-23.968 h 11.872 l -5.89866,14.26133 z"
   style="font-style:normal;font-variant:normal;font-weight:bold;font-stretch:normal;font-size:74.66666412px;line-height:1.25;font-family:Courier;-inkscape-font-specification:'Courier Bold';letter-spacing:0px;word-spacing:0px;fill:#000000;fill-opacity:1;stroke:none"
   id="path25" /><path
   d="m 267.43771,563.59036 1.41867,-19.712 -6.42134,-0.896 -0.97066,14.48533 h -9.48267 v -31.28533 h 8.66133 v -6.12267 h -23.968 v 6.12267 h 8.81067 v 31.28533 h -9.48267 l -0.97066,-14.48533 -6.42134,0.896 1.41867,19.712 z"
   style="font-style:normal;font-variant:normal;font-weight:bold;font-stretch:normal;font-size:74.66666412px;line-height:1.25;font-family:Courier;-inkscape-font-specification:'Courier Bold';letter-spacing:0px;word-spacing:0px;fill:#000000;fill-opacity:1;stroke:none"
   id="path27" /><path
   d="m 224.01087,541.78769 c 0,-12.69333 -7.98933,-22.92266 -20.01066,-22.92266 -12.096,0 -20.01067,10.304 -20.01067,22.99733 0,12.61866 7.84,22.99733 20.01067,22.99733 12.17066,0 20.01066,-10.45333 20.01066,-23.072 z m -6.86933,0.0747 c 0,8.66133 -4.85333,16.576 -13.14133,16.576 -8.512,0 -13.14133,-8.21334 -13.14133,-16.576 0,-8.81067 4.85333,-16.576 13.14133,-16.576 8.21333,0 13.14133,7.84 13.14133,16.576 z"
   style="font-style:normal;font-variant:normal;font-weight:bold;font-stretch:normal;font-size:74.66666412px;line-height:1.25;font-family:Courier;-inkscape-font-specification:'Courier Bold';letter-spacing:0px;word-spacing:0px;fill:#000000;fill-opacity:1;stroke:none"
   id="path29" />
<path
   id="path2"
   d="m 71.327125,142.58229 c 2.4,5 5.4,12.7 6.4,22.4 0.6,6.2 0.3,11.6 -0.3,15.9 4.6,-0.3 6.5,-1.9 7.4,-3.2 3.3,-4.6 -1.8,-11.8 2.2,-16.4 1.3,-1.5 2.4,-1.3 3,-2.9 1.2,-3.1 -2.3,-6 -0.9,-8.8 0.7,-1.4 1.7,-0.9 2.7,-2.6 1.3,-2.1 0.3,-3.6 0.8,-6.2 0.6,-3.5 2.9,-3.2 4.6,-7.1 2.1,-4.9 -0.1,-8.6 2,-9.8 1.700005,-1 3.300005,1.3 5.600005,0.4 3.1,-1.1 1.6,-6 5.2,-10.2 2.9,-3.4 4.9,-1.6 9.5,-5.8 2.8,-2.5 2.7,-3.7 6.2,-7.3 2.5,-2.599995 4.8,-4.299995 6.4,-5.399995 -1.8,3 -2.3,5.699995 -1.2,6.799995 1.5,1.4 5.3,-0.4 6,-0.8 4.7,-2.299995 5.3,-5.899995 8.3,-5.899995 2,0 2.2,1.6 4.6,1.6 2.5,0 3.3,-1.9 6.5,-2.9 2.1,-0.7 4,-0.7 5.4,-0.5 -2.5,2 -3.7,4.8 -3.1,7.299995 0.1,0.4 0.8,2.9 2.9,3.3 1.5,0.3 3.2,-0.4 4.2,-1.9 -0.3,2.3 -0.3,5.2 1.4,6.4 1.4,0.9 2.5,-0.3 5.3,0.1 3.4,0.5 4.1,2.8 8.1,4.1 1.9,0.6 3.6,0.7 4.6,0.7 -1,1.5 -1,3.4 -0.1,4.7 1.2,1.6 3.6,2.2 5.5,1.1 0.3,1.7 0.5,4 0.1,6.6 -0.6,4.1 -2.1,6.1 -0.9,8 0.9,1.5 2.1,0.9 3.6,2.5 1.6,1.8 0.9,3.6 1.5,8.2 0.5,3.7 1,7.7 3.7,9 1.3,0.7 3.3,0.6 4.1,-0.3 0.9,-1 0,-2.4 -0.2,-5.3 -0.2,-2.4 0.2,-3 0.4,-4.6 0.1,-0.9 0.1,-1.5 0.1,-1.9 0,-3 0.8,-6 0.7,-8.5 -0.1,-1.7 -0.6,-4.1 -2.6,-6.9 1.7,-3 2,-5.4 1.9,-7.1 -0.1,-3.5 -1.8,-5.1 -2.5,-9.8 -0.3,-2.2 -0.2,-4 -0.1,-5.3 0.3,0.6 1.1,2.1 2.9,3.1 0.6,0.3 2.5,1.3 3.9,0.5 0.9,-0.5 1.1,-1.5 1.6,-4.6 0.3,-1.7 0.6,-3.999995 0.8,-6.799995 0.9,-1 2.3,-3 3.1,-5.9 1,-3.9 0.1,-7.2 -0.4,-8.5 1.2,-0.4 3,-1.2 4.9,-2.7 1.1,-0.9 2.5,-2.1 3.4,-4.1 1.3,-2.9 0.8,-5.6 0.5,-6.8 2.2,0.4 3.6,1.2 4.5,1.9 1.1,0.8 2.5,2.1 4,2 0.1,0 0.1,0 0.2,-0.1 1.5,-0.6 1.7,-4.2 0.8,-6.8 -0.6,-1.7 -1.5,-2.9 -2.2,-3.6 1.3,-0.3 3.2,-1 4.9,-2.7 2.5,-2.4 3.1,-5.4 3.3,-7 0.4,-2.1 0.2,-3.8 0.1,-5 0.8,0.2 2.1,0.4 3.7,0.3 0.5,0 6.6,-0.7 7.9,-5 0.2,-0.6 0.6,-2.3 -0.6,-4.7 1.2,0.9 3,2.1 5.4,2.9 1.9,0.7 4.6,1.5 7.8,0.6 3.4,-1 5.3,-3.4 5.9,-4.3 1.8,-2.4 2.2,-4.9 2.4,-6 2.1,0.4 5.9,0.7 10.3,-0.4 3.9,-1 6.8,-2.8 8.4,-4 -0.1,0.3 -1.5,4.3 1,7.6 1.7,2.2 4.1,2.8 4.8,2.9 -2.8,0 -5.2,1.6 -5.9,3.9 -0.7,2.1 0.4,4 0.6,4.4 -0.2,0.2 -1.8,2.4 -1,4.9 0.7,2.2 2.8,3.8 5.3,3.9 -1.9,0.9 -4.5,2.5 -6.7,5.4 -1.4,1.8 -3.3,4.4 -3.1,7.9 0.1,2 1,3.6 1.5,4.5 -5.2,-1.3 -9.7,1.3 -10.3,4.5 -0.6,2.9 2.1,5.5 2.4,5.8 -1.3,0.3 -5.1,1.3 -6.3,4.2 -0.3,0.7 -0.5,1.7 0.3,5.8 0.6,3 1.3,5.4 1.8,7.2 -1,0.5 -3.6,1.899995 -5.4,4.899995 -2.2,3.7 -1.8,7.3 -1.6,8.3 -3.6,-0.9 -7,0.7 -8.1,3.4 -1.1,2.7 0.6,5.4 0.8,5.7 -4.3,0.5 -6.6,2.1 -7.8,3.4 -1.2,1.3 -1.5,2.5 -4,7.5 -0.9,1.8 -1.7,3.2 -2.2,4.2 -1.2,-1.6 -3.3,-2.2 -5,-1.4 -2,0.9 -2.3,3.4 -1.9,5 0.6,2.3 3,3.2 3.2,3.3 -1.2,3.1 -2.4,5.6 -3.4,7.5 -1.5,2.9 -2.2,4 -3.5,4.4 -1.5,0.5 -2.8,-0.2 -3.5,0.7 -0.6,0.7 0.2,1.6 -0.1,2.9 -0.3,1.8 -2.2,2.9 -4.6,4.2 -3.8,2.1 -4.9,1.4 -6,3 -1,1.4 -0.4,2.2 -1.7,4.5 -0.9,1.6 -1.2,1.4 -2,2.7 -1.8,3.1 -0.4,4.9 -2,6.8 -1.6,1.8 -3.6,1 -4.1,2.4 -0.4,1.3 1.3,2.2 2.1,5.6 0.3,1.2 0.5,2.1 0.2,3.2 -0.5,1.7 -1.7,1.9 -2.7,3.4 -1.3,2.1 -1.2,5.3 0,7.4 1.1,1.8 2.6,1.7 4.5,4.4 0.7,1 1.1,1.8 1.3,2.4 -0.2,0.8 -0.5,2 -1.3,3.2 -1,1.6 -1.7,1.8 -2.2,3.1 -0.7,1.7 0.1,2.1 -0.4,3.7 -0.7,2.3 -2.4,1.9 -3.2,4.1 -0.9,2.4 0.3,5.1 0.5,5.5 0.5,1.1 0.8,1 0.9,1.7 0.3,1.7 -1.2,2.8 -3,5.7 -0.8,1.2 -2,3 -2.5,5.1 -0.4,1.5 -0.6,3.6 0.1,6.4 -1.9,-1.1 -3.8,-1.1 -4.7,-0.2 -1,1.1 -0.1,3.4 0.1,3.9 0.4,0.9 0.7,1.2 2.6,3.5 0.7,0.9 1.3,1.6 1.6,2.1 -0.9,0.2 -2.6,0.7 -3.9,2.1 -2.7,3 -2.3,8.5 0,9.7 0.4,0.2 1.3,0.5 3,-0.2 -0.4,0.7 -1,1.9 -1.2,3.4 -0.3,2.7 0.8,4.7 1.5,5.9 1.3,2.2 2.9,3.5 4.9,5.1 2.9,2.3 3.7,2.1 4.1,3.3 0.6,1.9 -1.1,3 -2.1,6.9 -0.5,2 -0.5,3.3 -0.5,4.9 -0.4,9.2 -4.5,22.4 -3,27.1 0.4,1.3 0.6,1.9 0.6,1.9 1,2.8 1.4,3.2 1.5,4.2 0.1,1.5 -0.9,1.8 -1.6,3.6 -0.5,1.2 -0.4,1.8 0,7.1 0.4,5.1 0.5,6.5 -0.5,7.3 -1,0.9 -2.4,0.2 -2.8,1.1 -0.5,0.9 0.8,2 1.5,4.1 0.6,1.8 0.5,3.4 0.3,4.6 -0.1,-0.2 -0.5,-1.4 -1.9,-1.9 -0.2,-0.1 -1.4,-0.5 -2.4,0.2 -1.1,0.7 -1.5,2.6 -0.7,4.3 0,-0.4 -0.4,-2.8 -2.3,-3.8 -0.3,-0.2 -1.2,-0.6 -2,-0.3 -1.1,0.4 -1.9,1.9 -1.8,3.8 -1.4,-2 -1.9,-3.7 -2.1,-4.9 -0.3,-1.5 -0.1,-2.5 -0.8,-3 -0.8,-0.5 -2.2,-0.1 -2.9,0.7 -0.7,0.8 -0.5,1.8 -0.3,3.5 0.2,1.3 0.5,3.5 0.9,6.4 -2.9,-3.9 -4.8,-7 -5.4,-8.1 -0.8,-1.6 -1.2,-3.1 -1.2,-3.1 -0.2,-0.7 -1.8,-7 1,-10.8 3.8,-5.1 12.9,-2.3 15.1,-7.3 0.6,-1.4 0.6,-3.2 0.6,-3.7 0,-2.4 -0.7,-3.4 -1.3,-5.8 -0.6,-2.5 0,-2.1 -0.6,-8 -0.4,-4.2 -0.9,-6.3 -1.1,-6.8 -0.7,-2.6 -0.9,-2.3 -1.3,-4.1 -0.8,-4.1 0.5,-5 -0.3,-8.2 -0.7,-2.8 -1.9,-2.2 -3,-5.5 -1.1,-3.3 -0.2,-4.3 -1.5,-7 -1,-2 -1.5,-1.5 -3.3,-4.2 -1.9,-2.9 -3.3,-6.4 -3.7,-7.4 -0.7,-1.9 -1.2,-3.5 -2.4,-3.9 -0.1,0 -0.9,-0.2 -1.5,0.2 -0.7,0.6 -0.7,1.8 -0.5,3.4 0.5,3.7 1,7.1 3.8,10.1 1.3,1.4 1.4,0.9 2.2,2 2.1,2.7 2.3,6.6 1.3,9.6 -0.6,1.8 -1.2,2.5 -1.9,4 -2.3,4.6 -0.5,6.6 -1.5,13.3 -1,6.8 -4.2,13.6 -2.2,15.5 0.2,0.2 0.7,0.6 0.9,1.3 0.4,1.3 -0.5,2.7 -1,3.4 -1.2,1.7 -2.8,2.7 -4.9,4 -1.8,1.1 -2.3,1.1 -2.7,1.9 -0.5,1.1 0,1.7 0.1,4.2 0,1 0.2,4.1 -0.9,4.5 -0.7,0.3 -1.3,-0.7 -2,-0.4 -0.7,0.3 -0.9,1.3 -1,2.2 -0.2,-0.3 -1.8,-3 -4.6,-3.2 -0.4,0 -1.5,-0.1 -2.6,0.6 -1.2,0.8 -1.5,2.1 -1.6,2.4 -0.2,-0.4 -0.8,-2.1 -2.5,-2.7 -0.3,-0.1 -1,-0.4 -1.7,-0.1 -1,0.3 -1.7,1.5 -1.8,2.9 -0.6,-1 -1.3,-2.5 -1.7,-4.5 -0.7,-3.7 0.4,-6.8 1.4,-9.5 1.2,-3.4 1.9,-5 3.5,-6.1 1.7,-1.2 3.8,-1.3 8.1,-1.6 3.1,-0.2 5,-0.1 5.8,-1.4 0.4,-0.7 0.4,-1.4 0.3,-2.3 -0.2,-2.4 0.4,1.5 0.3,-7.3 0,-8 -0.1,-11.9 -0.6,-17.3 -0.5,-5.4 -1.3,-10.3 -1.9,-12.7 -2.8,-13.4 -11.6,-25.2 -17.4,-31.8 0.1,-1.3 0.1,-2.6 0,-4.1 -0.8,-7.4 -5.4,-12.4 -7.7,-14.6 0.7,-2.8 0.7,-5.1 0.6,-6.7 -0.1,-2.1 -0.5,-2.9 -1.1,-3.4 -0.7,-0.5 -1.8,-0.6 -2.6,-0.2 -1.1,0.6 -1.3,2.2 -1.4,3.8 -0.3,4.5 0,8 0.1,9.2 0.2,2.4 -0.2,4.8 -0.9,9.4 -1.6,11.2 -4.5,13.7 -3.3,19.4 0.7,3 2.1,5.3 3.2,6.8 -1,0.3 -2.4,1 -3.3,2.4 -1.4,2.2 -1,4.7 -0.7,6.2 0.8,5.4 -0.5,10.8 -0.7,16.2 -0.2,5.8 -0.4,7.8 -0.3,11.9 0.2,6.6 1,8.1 1.3,8.7 0.9,1.8 2.1,3.1 2.6,5.8 0.3,1.5 0.1,2.3 0.1,3.7 -0.1,2.1 0.1,5.1 1.5,8.9 -2,-1.9 -4,-2.7 -5.1,-3 -1.2,-0.3 -2.4,-0.7 -3.1,0 -0.6,0.6 -0.7,1.8 -0.1,3.1 -0.4,-0.3 -2,-1.7 -4.3,-1.6 -0.6,0 -2.2,0.1 -3.3,1.4 -1.6,1.7 -0.9,4.1 -0.9,4.3 -2.2,0.3 -5.2,0.4 -7.4,-1.4 -2.7,-2.4 -1.9,-6.3 -4.3,-7.1 -1.8,-0.6 -4.3,0.9 -5,2.6 -0.4,1 0.2,1.6 0.3,3.9 0.1,1.5 -0.1,2.7 -0.2,3.5 -0.9,-1.5 -2.4,-2.4 -3.7,-2.2 -0.8,0.1 -1.4,0.6 -1.6,0.8 -1.600005,1.4 -1.200005,3.8 -1.200005,4.1 -0.1,-0.9 -0.5,-2.8 -2.1,-4.1 -0.4,-0.3 -1.5,-1.2 -2.5,-0.9 -0.7,0.3 -1,1.2 -1.1,1.5 -0.6,2.2 1.3,4.3 1.7,4.7 -1,0 -3.4,-0.1 -5.1,-1.9 -2.1,-2.1 -1.9,-5.2 -1.6,-7.6 0.5,-5.6 3.6,-9.3 4.6,-10.4 1.1,-1.3 3.6,-4.1 7.900005,-5.5 2.1,-0.7 3.9,-0.8 5.2,-0.8 0.1,-4.2 0.2,-8.1 0.1,-11.4 0,-2.2 0,-5.6 -0.1,-9.8 -0.1,-2.1 -0.1,-4 -0.2,-5.4 -2,-3.4 -2.5,-6.2 -2.7,-8.2 -0.1,-2.1 0.2,-3.1 -0.3,-5.6 -0.4,-1.9 -0.8,-2 -1.8,-5.2 -0.7,-2.2 -1.100001,-3.6 -1.400005,-5.5 -0.3,-3 0.400005,-2.9 -0.1,-5 -0.6,-2.8 -2,-3.5 -2.1,-6.2 0,-1.4 0.4,-1.2 0.3,-2.5 0,-3 -2.1,-3.6 -2.6,-6.4 -0.5,-2.7 1.4,-3.2 1.1,-7 -0.1,-1.2 -0.2,-3.6 -1.8,-5.2 -0.7,-0.7 -2.1,-1.2 -4.9,-2.3 -3.5,-1.4 -3.5,-1.2 -4.1,-1.7 -2.2,-1.9 -1.3,-4.3 -3.3,-5.5 -1.4,-0.8 -3.4,-0.6 -4.6,0.3 -1.4,1.1 -1.4,2.9 -1.5,4.6 0,0 -0.4,5.7 -1.7,11.2 -0.3,1.4 -2.3,9.5 -6.6,10.3 -3,0.6 -4.2,-3 -9.9,-3.3 -1.8,-0.1 -2.9,0.2 -3.7,-0.6 -0.8,-0.8 -0.7,-2.1 -0.3,-6.6 0.2,-2.1 0.3,-3.7 0.3,-4.2 0.1,0.4 0.5,3.1 2.6,4.1 0.8,0.4 1.4,0.4 2.3,0.4 1.4,0 3.8,0 5.2,-1.6 1.4,-1.6 1.4,-4.2 0.1,-6.6 0.7,0.6 2.3,1.7 3.7,1.3 1.1,-0.3 1.5,-1.2 3.2,-4.5 2.6,-5 2.9,-5.2 3,-6.4 0.1,-0.6 0.5,-4.6 -1.7,-5.7 -1.6,-0.8 -3.6,0.2 -4.6,1 -0.9,0.7 -1.1,1.3 -2.1,2.7 -1.7,2.5 -2.7,3.9 -4.3,4.7 -1,0.5 -3,0.5 -7,0.6 -1.7,0 -2.6,0 -3.6,0.6 -1.4,0.8 -1.3,1.7 -2.6,2.8 -1.8,1.7 -4.6,2.3 -6.9,1.8 -1.5,-0.3 -2.4,-1.1 -4,-2.3 -2.3,-1.8 -2.3,-2.6 -3.9,-3.9 -1.4,-1 -3.1,-1.4 -6.4,-2.2 -5.2,-1.2 -6.3,-0.6 -8,-2 -2.1,-1.7 -2.6,-4.2 -2.8,-5 -0.4,-1.8 -0.2,-3.1 1.3,-8.5 2.1,-7.5 2.5,-8.1 2.1,-9.8 -0.1,-0.5 -1.2,-2.5 -3.4,-6.4 -2.4,-4.3 -2.6,-4.5 -2.8,-5.1 -1.1,-2.7 -1.2,-5.2 -1.1,-9.2 0.1,-3.9 0.4,-8.9 1.2,-15 1.1,0.9 2.6,2.3 3.7,4.3 0.7,1.2 0.7,1.7 1.3,3.1 0.8,2.1 2.3,5.8 5.6,8 1,0.7 3.1,2.1 4.8,1.4 1.2,-0.5 1.1,-1.5 2.8,-3.8 0.9,-1.2 2.2,-2.8 4.2,-3.7 1.6,-0.7 3.2,-0.8 4.3,-0.7 0.9,-0.9 1.7,-1.9 2.6,-2.8 0.3,0.3 1.3,1.3 2.9,1.4 2.3,0.2 3.8,-1.3 4,-1.5 0.7,0.2 2.1,0.5 3.7,0.3 0.6,-0.1 2.1,-0.3 3.3,-1.3 1.1,-0.8 1.1,-1.5 2.8,-6 1.1,-3 1.7,-4.1 2.6,-5.4 0.8,-1.1 1,-1.1 1.7,-1.9 1.9,-2.5 1.9,-5 2.4,-7.3 1.4,-1.9 2.4,-4.7 5,-7.8 z m 45.800005,90.4 c -1.1,-0.4 -2.4,0.7 -2.5,0.8 -1.3,1.1 -1.5,2.9 -1.5,3.5 -0.7,7.8 -1,11.8 -1,11.9 0.6,11.4 -1,10.1 0,15.8 1.2,7 3.5,7.5 3.2,13 -0.2,4.2 -1.5,5 -1.5,9.8 0,2.8 0.4,3.1 1.8,10.8 1.2,6.4 1.7,9.6 1.7,12 v 9.1 c 0,2.4 -0.1,4.6 1.3,5.6 0.7,0.5 1.7,0.7 2.5,0.4 1.6,-0.7 1.5,-3.7 1.4,-4.9 -0.1,-3.5 -1.5,-6 -2.1,-7.3 -1,-2.2 -0.8,-3.4 0.9,-18.2 1.3,-11.2 1.4,-12.3 1,-14.7 -0.6,-3.2 -1.6,-4.8 -2,-9 -0.2,-2.2 -0.1,-3.9 0.3,-8.7 1.4,-14.2 2.6,-14.9 1.4,-18.2 -1.2,-3.4 -2.9,-4.3 -3.6,-8.4 -0.1,-1.1 -0.2,-2.9 -1.3,-3.3 z m -89.100005,-29.8 c -0.5,0.3 -2.2,1.4 -2.7,3.5 -0.6,2.5 0.8,4.5 1,4.8 1.2,1.6 2.9,2.1 4.6,2.6 1.8,0.5 3.2,0.9 4.8,0.2 2.7,-1.2 3.2,-4.4 3.2,-4.7 0.5,-3.1 -1.6,-5.3 -1.9,-5.5 -2.1,-2.2 -4.9,-2 -5.6,-2 -0.5,0.1 -1.9,0.2 -3.4,1.1 z m 23.5,-0.8 c 0.2,0.6 0.9,2.1 2.2,2.5 1,0.2 1.9,-0.6 3.8,-2.2 0.8,-0.7 1,-1 1.8,-1.6 0.9,-0.6 1.4,-0.8 2.2,-1.3 1.3,-0.7 1.2,-0.9 4.2,-3.1 2,-1.5 2.4,-1.7 2.7,-1.8 1.7,-0.6 2.5,0.1 3.2,-0.6 1.1,-0.8 1.1,-3.2 0.1,-4.7 -1.5,-2.3 -5.1,-2.1 -6.8,-2 -1.1,0.1 -3.7,0.2 -5.7,2.1 -1,0.9 -0.6,1.1 -2.1,3 -1.3,1.7 -1.9,1.9 -4.3,4.8 -0.9,1.1 -1.6,1.9 -1.6,3.1 0,0.9 0.2,1.4 0.3,1.8 z m -7.2,12.1 c -1.1,0.7 -1.6,2.9 -0.6,4.4 1.2,1.7 3.7,1.3 3.8,1.3 0.8,-0.2 0.9,-0.4 2.1,-1.1 2.5,-1.3 3.4,-0.7 4.3,-1.6 1.1,-1.1 1.6,-3.6 0.2,-5 -1.1,-1.1 -3.1,-1.2 -4.2,-0.5 -1.2,0.7 -0.9,1.9 -2,2.5 -1.3,0.7 -2.5,-0.7 -3.6,0 z m -0.3,8.4 c -3.2,-0.2 -4.4,-1.2 -5.9,-0.3 -1.2,0.7 -1.9,2.3 -1.8,3.6 0.1,1.5 1.3,2.4 3,3.8 1.2,0.9 2.4,1.9 4.3,2.2 0.9,0.1 2.3,0.4 3.7,-0.4 1.5,-0.9 2.1,-2.5 2.2,-2.8 0.5,-1.3 0.2,-1.8 0.8,-2.3 0.7,-0.6 1.9,-0.3 2.9,-0.1 1.6,0.4 1.7,0.8 2.9,1.2 2.2,0.7 4.3,-0.1 5,-0.4 0.6,-0.2 2.2,-0.9 3.5,-2.4 1.4,-1.7 0.8,-2.5 2.2,-4.2 1.3,-1.5 2,-1.1 3,-2.5 0.9,-1.3 1.5,-3.2 1,-5.2 -0.9,-3.2 -4.2,-4.1 -4.8,-4.3 -1.7,-0.5 -4.3,-0.5 -5.9,1 -0.8,0.7 -1.3,1.9 -1.6,2.7 -0.3,0.7 -0.4,1.1 -0.7,2.1 -0.4,1.3 -0.9,2.7 -1.3,3.5 -1.1,2.2 -3.7,3.1 -5.9,3.8 -3.1,1.2 -6,1 -6.6,1 z m 17.1,24.9 c -0.2,0.7 0.3,1.5 0.8,2 0.3,0.3 0.8,0.7 3.7,0.9 2,0.1 3.1,0.2 3.8,-0.3 0.8,-0.5 1.1,-1.1 1.8,-2.5 0.9,-1.9 0.4,-2 1.4,-5.1 0.2,-0.7 0.5,-1.4 0.1,-1.9 -0.3,-0.4 -0.9,-0.6 -1.4,-0.5 -0.6,0.1 -1,0.5 -1.1,0.7 -1.1,1.1 -5.1,4.7 -7.9,5.9 -0.4,0 -1,0.3 -1.2,0.8 z" /></svg>
