<?xml version="1.0" encoding="UTF-8" standalone="no"?>
<svg
   xmlns="http://www.w3.org/2000/svg"
   viewBox="0 0 399.58908 597.75867"
   height="597.75867"
   width="399.58908"
   id="svg2"
   version="1.1">
  <path
     style="fill:#ffffff;fill-rule:evenodd;stroke-width:4.61941671"
     id="path2-3"
     d="M 67.698965,1.6511947 H 331.8901 c 36.59472,0 66.04779,29.4530703 66.04779,66.0477803 V 530.05966 c 0,36.59079 -29.45307,66.04779 -66.04779,66.04779 H 67.698965 c -36.59209,0 -66.0477703,-29.45831 -66.0477703,-66.04779 V 67.698975 c 0,-36.59471 29.4556803,-66.0477803 66.0477703,-66.0477803 z" />
  <path
     style="fill:none;stroke:#000000;stroke-width:3.30238938"
     id="path4-6"
     d="M 67.698965,1.6511947 H 331.8901 c 36.59472,0 66.04779,29.4530703 66.04779,66.0477803 V 530.05966 c 0,36.59079 -29.45307,66.04779 -66.04779,66.04779 H 67.698965 c -36.59209,0 -66.0477703,-29.45831 -66.0477703,-66.04779 V 67.698975 c 0,-36.59471 29.4556803,-66.0477803 66.0477703,-66.0477803 z" />
  <path
     style="fill:#ff0000;fill-rule:evenodd;stroke-width:4.61941671"
     id="path8-6"
     d="m 298.88062,133.71572 c -145.91008,0 -264.191135,118.28499 -264.191135,264.19115 0,36.47948 29.56567,66.04778 66.047785,66.04778 145.91008,0 264.19113,-118.28891 264.19113,-264.19114 0,-36.47949 -29.5683,-66.04779 -66.04778,-66.04779 z" />
  <path
     d="m 69.574204,37.652836 -0.448,4.106667 c -3.509333,-3.957333 -7.914667,-4.629333 -10.304,-4.629333 -10.826666,0 -20.085332,9.557333 -20.085332,23.221332 0,11.274667 6.645333,22.773333 21.354666,22.773333 6.943999,0 12.991999,-2.538667 16.277332,-3.957333 v -11.872 h 3.509334 V 61.172836 H 59.120871 v 6.122666 h 10.752 v 7.392 c -5.152,1.941333 -8.885334,2.016 -9.706667,2.016 -9.855999,0 -14.559999,-7.093333 -14.559999,-16.426666 0,-10.304 5.973333,-16.725333 13.663999,-16.725333 9.109333,0 10.08,7.242666 10.602667,11.498666 l 6.271999,-0.821333 c -0.373333,-1.866667 -0.896,-4.48 -0.896,-9.258667 0,-3.061333 0.149334,-5.450666 0.298667,-7.317333 z"
     style="font-style:normal;font-variant:normal;font-weight:bold;font-stretch:normal;font-size:74.66666412px;line-height:1.25;font-family:Courier;-inkscape-font-specification:'Courier Bold';letter-spacing:0px;word-spacing:0px;fill:#000000;fill-opacity:1;stroke:none"
     id="path21" />
  <path
     d="m 88.211703,38.399503 v 6.122666 h 9.632 L 85.075704,75.807502 h -4.330667 v 6.122666 h 17.695999 v -6.122666 h -6.645333 l 2.912,-7.317333 H 111.5077 l 2.912,7.317333 h -6.57066 v 6.122666 h 17.696 V 75.807502 H 121.3637 L 106.20637,38.399503 Z m 20.906667,23.967999 h -11.872 l 5.89867,-14.261333 z"
     style="font-style:normal;font-variant:normal;font-weight:bold;font-stretch:normal;font-size:74.66666412px;line-height:1.25;font-family:Courier;-inkscape-font-specification:'Courier Bold';letter-spacing:0px;word-spacing:0px;fill:#000000;fill-opacity:1;stroke:none"
     id="path23" />
  <path
     d="m 129.2492,38.399503 -1.41866,19.711999 6.42133,0.896 0.97067,-14.485333 h 9.48266 v 31.285333 h -8.66133 v 6.122666 h 23.968 V 75.807502 H 151.2012 V 44.522169 h 9.48267 l 0.97066,14.485333 6.42134,-0.896 -1.41867,-19.711999 z"
     style="font-style:normal;font-variant:normal;font-weight:bold;font-stretch:normal;font-size:74.66666412px;line-height:1.25;font-family:Courier;-inkscape-font-specification:'Courier Bold';letter-spacing:0px;word-spacing:0px;fill:#000000;fill-opacity:1;stroke:none"
     id="path26" />
  <path
     d="m 172.67604,60.202169 c 0,12.693333 7.98933,22.922666 20.01066,22.922666 12.096,0 20.01067,-10.304 20.01067,-22.997333 0,-12.618666 -7.84,-22.997332 -20.01067,-22.997332 -12.17066,0 -20.01066,10.453333 -20.01066,23.071999 z m 6.86933,-0.07467 c 0,-8.661333 4.85333,-16.575999 13.14133,-16.575999 8.512,0 13.14134,8.213333 13.14134,16.575999 0,8.810667 -4.85334,16.576 -13.14134,16.576 -8.21333,0 -13.14133,-7.84 -13.14133,-16.576 z"
     style="font-style:normal;font-variant:normal;font-weight:bold;font-stretch:normal;font-size:74.66666412px;line-height:1.25;font-family:Courier;-inkscape-font-specification:'Courier Bold';letter-spacing:0px;word-spacing:0px;fill:#000000;fill-opacity:1;stroke:none"
     id="path28" />
  <path
     d="m 327.11271,564.33702 0.448,-4.10666 c 3.50933,3.95733 7.91467,4.62933 10.304,4.62933 10.82666,0 20.08533,-9.55733 20.08533,-23.22133 0,-11.27467 -6.64533,-22.77333 -21.35466,-22.77333 -6.944,0 -12.992,2.53866 -16.27734,3.95733 v 11.872 h -3.50933 v 6.12267 h 20.75733 v -6.12267 h -10.752 v -7.392 c 5.152,-1.94133 8.88534,-2.016 9.70667,-2.016 9.856,0 14.56,7.09333 14.56,16.42666 0,10.304 -5.97334,16.72534 -13.664,16.72534 -9.10933,0 -10.08,-7.24267 -10.60267,-11.49867 l -6.272,0.82133 c 0.37334,1.86667 0.896,4.48 0.896,9.25867 0,3.06133 -0.14933,5.45067 -0.29866,7.31733 z"
     style="font-style:normal;font-variant:normal;font-weight:bold;font-stretch:normal;font-size:74.66666412px;line-height:1.25;font-family:Courier;-inkscape-font-specification:'Courier Bold';letter-spacing:0px;word-spacing:0px;fill:#000000;fill-opacity:1;stroke:none"
     id="path31" />
  <path
     d="m 308.47521,563.59036 v -6.12267 h -9.632 l 12.768,-31.28533 h 4.33067 v -6.12267 h -17.696 v 6.12267 h 6.64533 l -2.912,7.31733 h -16.8 l -2.912,-7.31733 h 6.57067 v -6.12267 h -17.696 v 6.12267 h 4.18133 l 15.15733,37.408 z m -20.90667,-23.968 h 11.872 l -5.89866,14.26133 z"
     style="font-style:normal;font-variant:normal;font-weight:bold;font-stretch:normal;font-size:74.66666412px;line-height:1.25;font-family:Courier;-inkscape-font-specification:'Courier Bold';letter-spacing:0px;word-spacing:0px;fill:#000000;fill-opacity:1;stroke:none"
     id="path33" />
  <path
     d="m 267.43771,563.59036 1.41867,-19.712 -6.42134,-0.896 -0.97066,14.48533 h -9.48267 v -31.28533 h 8.66133 v -6.12267 h -23.968 v 6.12267 h 8.81067 v 31.28533 h -9.48267 l -0.97066,-14.48533 -6.42134,0.896 1.41867,19.712 z"
     style="font-style:normal;font-variant:normal;font-weight:bold;font-stretch:normal;font-size:74.66666412px;line-height:1.25;font-family:Courier;-inkscape-font-specification:'Courier Bold';letter-spacing:0px;word-spacing:0px;fill:#000000;fill-opacity:1;stroke:none"
     id="path35" />
  <path
     d="m 224.01087,541.78769 c 0,-12.69333 -7.98933,-22.92266 -20.01066,-22.92266 -12.096,0 -20.01067,10.304 -20.01067,22.99733 0,12.61866 7.84,22.99733 20.01067,22.99733 12.17066,0 20.01066,-10.45333 20.01066,-23.072 z m -6.86933,0.0747 c 0,8.66133 -4.85333,16.576 -13.14133,16.576 -8.512,0 -13.14133,-8.21334 -13.14133,-16.576 0,-8.81067 4.85333,-16.576 13.14133,-16.576 8.21333,0 13.14133,7.84 13.14133,16.576 z"
     style="font-style:normal;font-variant:normal;font-weight:bold;font-stretch:normal;font-size:74.66666412px;line-height:1.25;font-family:Courier;-inkscape-font-specification:'Courier Bold';letter-spacing:0px;word-spacing:0px;fill:#000000;fill-opacity:1;stroke:none"
     id="path37" />
  <path
     id="path12"
     d="m 341.50675,336.74612 c -0.62426,-0.62277 -31.02139,-1.13229 -67.54917,-1.13229 -63.99826,0 -66.49232,-0.10653 -68.56308,-2.93054 -4.60732,-6.28312 -1.53827,-10.63441 7.13952,-10.12238 9.06817,0.53506 7.10527,-0.53015 -8.79396,-4.77224 -13.28487,-3.54456 -14.23009,-3.59959 -25.63785,-1.49293 -24.16298,4.46219 -48.1806,2.11868 -65.90179,-6.43029 -4.18501,-2.01891 -7.98278,-3.29708 -8.43949,-2.84037 -0.45672,0.4567 0.31857,2.66012 1.72286,4.89648 6.63437,10.5654 7.7766,13.83851 6.29721,18.04514 -1.4208,4.04001 -1.73698,4.13742 -13.428782,4.13742 H 86.378507 l -1.174946,-5.65505 c -0.646213,-3.11028 -2.476785,-15.42615 -4.067925,-27.36858 -2.819906,-21.16507 -5.26025,-29.77519 -7.694862,-27.14926 -0.660027,0.71189 -2.685576,8.86556 -4.501194,18.11927 l -3.301138,16.82493 3.131349,6.13795 c 3.110099,6.09628 3.970995,12.88149 2.214975,17.45757 -0.718813,1.87322 -3.27209,2.38803 -11.843669,2.38803 -16.929391,0 -17.250393,-0.69958 -15.9335,-34.72324 0.395903,-10.22842 -0.395271,-16.50885 -3.898779,-30.94898 -5.644598,-23.26481 -6.050906,-41.11349 -1.116928,-49.06545 2.849102,-4.59185 3.096737,-6.25287 1.890531,-12.68094 -2.782315,-14.82743 2.243211,-30.17504 13.290424,-40.58806 2.452758,-2.31197 11.376815,-7.20613 19.831252,-10.87594 18.951949,-8.22646 27.903253,-14.51047 31.752843,-22.29123 3.10181,-6.26928 2.81029,-9.67911 -1.09663,-12.82702 -2.76893,-2.23101 -12.094343,-2.47712 -17.401733,-0.45925 -2.723134,1.03533 -4.215064,0.87425 -5.426925,-0.58595 -2.046619,-2.466 4.023709,-10.32765 10.600537,-13.72865 5.420481,-2.80305 15.442761,-2.842 20.728561,-0.0806 19.94539,10.41996 20.38059,36.39126 0.89756,53.56292 -4.07145,3.58845 -14.906634,10.1151 -24.133511,14.53705 -10.595741,5.07793 -18.241455,9.80354 -20.820519,12.86857 -4.637793,5.5117 -4.327761,7.11664 0.825572,4.27373 2.017762,-1.11314 8.692615,-1.97064 15.603796,-2.00459 21.563012,-0.10586 32.738342,7.26736 51.951752,34.27676 5.16838,7.26547 9.86029,13.2099 10.42647,13.20988 0.56618,-3e-5 2.82846,-2.25475 5.02729,-5.0105 2.88419,-3.61471 4.51828,-8.23661 5.86612,-16.59178 2.76984,-17.17018 7.19561,-18.81982 16.64745,-6.20504 l 5.15692,6.8826 12.85026,-0.95267 12.85023,-0.95267 7.03604,-7.59299 c 9.52404,-10.27793 11.94517,-9.6354 14.76055,3.91722 1.65233,7.95402 3.19893,11.37335 6.47948,14.32518 2.36999,2.13252 5.21808,6.54116 6.32909,9.797 l 2.01999,5.91968 9.99442,-0.36233 c 5.49692,-0.19929 9.99441,0.27498 9.99441,1.0539 0,1.48445 -8.38991,3.27601 -15.47448,3.30436 -3.10857,0.0121 -4.15169,0.75864 -4.15169,2.96989 0,2.61888 1.23934,3.00351 10.94536,3.39684 14.72296,0.59666 13.45214,3.46298 -1.53533,3.46298 -9.08219,0 -11.67459,0.47635 -11.67459,2.14518 0,1.38598 3.19443,2.87068 9.0262,4.19513 8.7457,1.98625 12.77053,4.07002 11.0959,5.74465 -0.44686,0.44686 -5.68859,-0.35779 -11.64828,-1.78811 l -10.83579,-2.60059 -5.36832,5.36833 -5.36833,5.36832 8.29927,4.68382 c 15.34242,8.65872 54.61422,24.259 62.43196,24.80038 6.02384,0.41714 11.05902,-1.89054 11.05902,-5.06851 0,-7.22488 4.33775,-12.59291 13.59056,-16.81853 12.07864,-5.51614 21.8318,-5.54365 32.59844,-0.0921 6.94641,3.5173 8.49836,5.17306 11.85105,12.64385 3.93122,8.75996 5.07125,18.61369 2.3482,20.29664 -0.83035,0.51318 -1.50971,2.55357 -1.50971,4.53421 0,4.59649 -7.92562,12.9386 -16.27582,17.1311 -7.05997,3.54468 -8.31926,3.81016 -10.02099,2.11257 z m -88.11964,-6.69555 c -2.51449,-2.51885 -45.6124,-3.91124 -45.6124,-1.47364 0,1.6385 5.72911,2.16205 32.45868,2.96616 12.32265,0.37071 14.73992,0.0965 13.15372,-1.49252 z m 93.28056,0.27929 c 0,-0.83034 -1.03422,-1.50971 -2.29828,-1.50971 -7.40394,0 -24.87224,-24.64899 -24.87523,-35.10067 -0.001,-4.52563 -2.55457,-5.61314 -4.04706,-1.72377 -1.39019,3.62283 3.44277,17.4224 8.59064,24.52883 7.36786,10.17102 22.62993,19.4816 22.62993,13.80532 z M 66.036162,326.75694 c 0.400936,-3.94604 -0.568638,-7.49156 -3.327298,-12.16711 -2.920279,-4.94955 -2.917943,-5.01852 0.867486,-25.51422 2.087619,-11.30319 3.795676,-20.91176 3.795676,-21.35233 0,-0.44059 2.644012,-0.80108 5.875565,-0.80108 6.846955,0 16.333601,-6.72243 20.772229,-14.71964 2.961549,-5.3359 6.56575,-6.53507 6.56575,-2.18454 0,3.98597 -8.398793,14.74066 -14.415651,18.45926 -2.865793,1.77117 -5.210538,3.51808 -5.210538,3.88202 0,2.51002 8.608099,13.34479 15.889283,19.99939 21.300806,19.46771 46.914606,25.34355 80.376606,18.43846 l 13.98691,-2.88629 15.45236,4.44241 c 54.20367,15.58308 87.03269,21.32681 91.4531,16.00054 1.07534,-1.2957 1.73897,-4.60815 1.47472,-7.361 l -0.48043,-5.00515 -12.83251,-0.0227 c -11.5974,-0.0205 -15.59818,-0.92275 -41.5676,-9.37423 -34.58059,-11.25396 -45.99535,-16.07953 -45.99535,-19.4445 0,-3.10932 3.07902,-2.44948 18.11647,3.88236 6.22754,2.62223 20.49426,7.87736 31.70383,11.67804 18.58305,6.30071 21.72565,6.92496 35.62311,7.07623 16.70824,0.18188 19.41304,1.28543 21.01379,8.57363 0.685,3.11881 1.8753,4.4248 4.03282,4.4248 2.31452,0 2.80125,-0.64428 1.99587,-2.64199 -0.58583,-1.45309 -1.43576,-5.25235 -1.88873,-8.44282 -0.78219,-5.50931 -1.05922,-5.76461 -5.51265,-5.08019 -6.6369,1.01997 -35.22418,-8.62694 -61.47872,-20.74629 -11.92621,-5.50526 -22.35852,-10.68404 -23.18289,-11.50842 -0.99203,-0.99203 0.851,-3.50749 5.45025,-7.4388 8.24903,-7.05108 11.8695,-13.97392 11.8695,-22.69619 0,-6.88435 -4.37024,-15.55757 -9.11994,-18.09953 -1.86532,-0.99828 -3.40997,-4.54778 -4.59061,-10.54885 -0.97863,-4.97436 -2.20048,-9.01286 -2.71522,-8.9744 -0.51471,0.0385 -2.97395,2.69534 -5.46497,5.9042 -4.89793,6.30938 -7.55069,7.07588 -27.52887,7.95426 l -9.4124,0.41385 -6.05137,-7.32252 c -6.63232,-8.0255 -6.41185,-8.18341 -9.0982,6.51625 -1.10969,6.07207 -3.14254,11.37624 -5.3784,14.03341 -5.1348,6.10236 -7.29005,15.11336 -5.15916,21.57007 1.5456,4.68319 12.3355,15.77794 15.3444,15.77794 0.68088,0 1.23796,0.67937 1.23796,1.50971 0,2.62005 -3.27702,1.65915 -10.79564,-3.16553 l -7.2857,-4.67522 -10.0849,3.16552 c -11.32787,3.55568 -12.59583,3.73716 -12.59583,1.80287 0,-0.74947 4.69191,-2.78778 10.42649,-4.5296 9.14777,-2.77856 10.32649,-3.54929 9.61122,-6.28447 -0.86771,-3.31813 0.23628,-3.28905 -18.70818,-0.49263 -4.82963,0.71291 -6.06744,0.46323 -5.5405,-1.11757 0.37318,-1.11956 4.02095,-2.55894 8.10613,-3.19861 13.09327,-2.0502 14.22131,-2.51442 14.22131,-5.85249 0,-2.61097 -0.6503,-2.99108 -3.7753,-2.20676 -2.07642,0.52114 -6.93814,1.38104 -10.80385,1.91091 -10.29139,1.41059 -7.14474,-1.96649 3.84731,-4.12904 l 8.79837,-1.73098 -9.47962,-13.88314 c -14.92871,-21.86341 -26.67744,-31.10059 -43.515807,-34.21333 -6.604399,-1.22089 -9.647068,-0.96701 -17.425836,1.45401 -5.183363,1.61324 -10.725693,4.1109 -12.316257,5.55035 -2.810111,2.54311 -2.891964,2.41839 -2.891964,-4.40611 0,-10.62427 6.77544,-17.25046 28.063344,-27.44522 18.80925,-9.00772 26.03435,-14.54098 31.77265,-24.33266 7.51109,-12.81672 3.81155,-28.92568 -7.9217,-34.49347 -5.89991,-2.79968 -13.119615,-2.23838 -18.061053,1.4042 -2.627772,1.93707 -2.297448,2.06058 3.469833,1.29738 5.79814,-0.7673 6.85535,-0.36226 11.70023,4.4826 12.80474,12.80474 1.79127,28.61796 -29.126224,41.81965 -8.334417,3.55877 -17.667186,8.54247 -20.739456,11.0749 -10.515355,8.66767 -15.377569,25.85319 -11.318616,40.00588 1.181435,4.11946 0.792596,6.16539 -2.264563,11.91512 -4.599174,8.64986 -4.823359,18.86915 -0.766109,34.92485 4.675,18.50032 6.530163,35.92913 5.443638,51.14172 -0.629726,8.81691 -0.408317,14.99478 0.605281,16.88868 2.334126,4.36137 16.440519,5.29322 16.865121,1.11411 z M 183.24198,268.31098 c -1.4531,-0.84635 -2.64199,-2.6522 -2.64199,-4.01303 0,-2.02115 0.56368,-1.86918 3.07823,0.82987 3.6613,3.92994 4.98671,4.08171 8.13673,0.93169 2.97756,-2.97756 3.02016,-5.77852 0.1244,-8.18175 -2.97475,-2.46887 -1.50838,-4.54291 3.2119,-4.54291 3.45389,0 3.71205,0.42377 2.79677,4.59095 -1.72716,7.86379 4.2912,11.74138 10.08524,6.49785 2.34146,-2.119 2.76086,-2.1558 2.76086,-0.24232 0,3.47841 -7.03714,6.1402 -10.84519,4.10221 -2.27932,-1.21987 -4.11226,-1.22175 -6.77845,-0.008 -4.4537,2.02925 -6.49142,2.0363 -9.9285,0.0344 z m -14.71964,-19.04093 c -5.13321,-1.55298 -9.05823,-4.10976 -9.05823,-5.90061 0,-3.21602 8.47279,-8.15107 13.99423,-8.15107 5.03364,0 13.18048,4.71196 13.18048,7.62329 0,3.44818 -12.87108,8.01531 -18.11648,6.42839 z m -0.50323,-6.42161 c 0,-3.84498 -0.37501,-4.24688 -2.7678,-2.9663 -3.47882,1.86182 -3.5211,3.80566 -0.12577,5.78325 1.4531,0.84635 2.6986,1.55947 2.76779,1.58472 0.0692,0.0252 0.12577,-1.95549 0.12577,-4.40167 z m 14.09058,1.40504 c 2.01295,-1.32141 2.01295,-1.65175 0,-2.97317 -3.3943,-2.22822 -4.52911,-1.85573 -4.52911,1.48659 0,3.34232 1.13481,3.71479 4.52911,1.48658 z m 22.26818,1.41191 c -3.56082,-2.07399 -3.3245,-4.75452 0.75484,-8.56224 4.86087,-4.53721 10.56253,-5.57007 15.79928,-2.86204 7.72382,3.99415 8.65594,6.26413 4.05756,9.88122 -4.40385,3.46407 -15.84319,4.32045 -20.61168,1.54306 z m 6.41625,-4.40819 c 0,-3.34233 -1.13482,-3.71482 -4.52913,-1.4866 -2.01293,1.32141 -2.01293,1.65177 0,2.97317 3.39431,2.22822 4.52913,1.85575 4.52913,-1.48657 z m 15.09706,-0.75486 c 0,-0.35674 -1.35874,-1.37579 -3.01941,-2.26455 -2.6554,-1.42114 -3.01941,-1.14812 -3.01941,2.26455 0,3.41268 0.36401,3.68568 3.01941,2.26456 1.66067,-0.88876 3.01941,-1.90782 3.01941,-2.26456 z m 92.09208,87.56297 c -1.06252,-1.28025 -4.35367,-2.26457 -7.57188,-2.26457 -3.66726,0 -6.00158,0.80566 -6.56143,2.26457 -0.70859,1.84652 0.68913,2.26455 7.57187,2.26455 7.33181,0 8.19392,-0.29754 6.56144,-2.26455 z m -211.88922,-1.55038 c 0.48653,-1.26788 -0.89352,-4.87109 -3.06679,-8.00713 -2.41704,-3.48778 -3.951401,-7.74666 -3.951401,-10.96776 0,-4.24686 -1.314727,-6.55624 -6.793677,-11.93343 -4.929656,-4.83808 -6.793677,-5.94357 -6.793677,-4.02908 0,6.98896 3.42556,32.16118 4.700957,34.54428 1.903498,3.55673 14.570458,3.86981 15.904588,0.39312 z m 214.41725,-6.53284 c -5.30539,-8.11248 -6.97638,-8.82438 -4.03287,-1.71817 1.50558,3.63484 6.6026,9.04653 8.52048,9.04653 0.16773,0 -1.85169,-3.29776 -4.48761,-7.32836 z m 35.21462,5.85742 c 0,-0.80902 -2.1449,-2.5801 -4.76645,-3.93575 -2.62155,-1.35566 -7.99468,-5.48447 -11.94029,-9.17513 -7.64902,-7.15475 -12.19453,-6.60201 -5.7196,0.69551 8.17625,9.21501 22.42634,17.10395 22.42634,12.41537 z m 7.54854,-8.3606 c 0,-1.15766 -3.22701,-3.53014 -7.17111,-5.27221 -3.94411,-1.74206 -9.38038,-5.30525 -12.08059,-7.91818 -3.84481,-3.72053 -5.30619,-4.35409 -6.73878,-2.9215 -2.40746,2.40747 2.49553,7.30616 14.50571,14.493 8.83306,5.28567 11.48477,5.65945 11.48477,1.61889 z m 1.5097,-9.76396 c 0,-0.81347 -2.59307,-2.80192 -5.76239,-4.41878 -3.16932,-1.61687 -6.64934,-4.00845 -7.73338,-5.31465 -2.07681,-2.50239 -6.13041,-3.2485 -6.13041,-1.12835 0,2.97806 13.22851,12.13589 17.73905,12.28035 1.03792,0.0332 1.88713,-0.6051 1.88713,-1.41857 z m -21.31788,-15.81839 c 3.63024,-1.28081 8.55313,-2.32877 10.93976,-2.32877 5.31555,0 5.71171,-2.34763 0.61212,-3.62755 -8.90425,-2.23482 -29.48636,6.45946 -29.48636,12.45559 0,4.83366 1.94784,4.92697 6.70005,0.32096 2.54869,-2.47029 7.60419,-5.53942 11.23443,-6.82023 z m 19.80818,5.21977 c -0.88877,-1.66068 -3.12061,-2.99682 -4.95967,-2.96919 l -3.34372,0.0502 3.56408,2.96918 c 4.59798,3.83049 6.80369,3.80712 4.73931,-0.0502 z m -24.1553,-14.87676 3.77426,-1.52566 -4.10047,-0.10224 c -5.27185,-0.13134 -14.77086,4.38068 -14.77086,7.0162 0,1.53731 1.37406,1.31492 5.6614,-0.91634 3.11377,-1.62049 7.35982,-3.6329 9.43567,-4.47202 z"
     style="fill:#000000;stroke-width:1.50970626" />
  <path
     id="path25"
     d="m 273.00373,328.09868 c -5.04231,-0.84939 -11.15097,-1.99571 -13.57481,-2.54739 -12.84645,-2.92393 -36.87519,-9.13721 -51.3557,-13.27942 l -16.4054,-4.69283 -12.01685,2.41486 c -10.7043,2.15109 -13.73124,2.40991 -27.71271,2.3696 -14.64719,-0.0422 -16.20325,-0.20116 -23.28984,-2.37878 -18.02111,-5.53769 -34.774351,-18.09574 -45.326756,-33.97648 l -2.200699,-3.31193 2.509682,-1.77862 c 5.240501,-3.71396 12.599701,-11.27365 14.946241,-15.35343 2.751312,-4.78351 3.014372,-6.54031 1.20431,-8.04252 -1.426723,-1.18409 -3.817174,0.98641 -8.758206,7.95237 -4.116509,5.80351 -10.50671,9.72144 -17.650449,10.82176 -3.218936,0.49581 -5.968015,1.00834 -6.109082,1.13897 -0.593692,0.5498 -6.95103,37.61287 -6.952994,40.53572 -0.0011,1.93076 1.006263,5.08732 2.543132,7.96736 2.899728,5.43396 3.495247,11.62062 1.20325,12.50014 -3.927659,1.50719 -12.763136,-0.33061 -14.443375,-3.00426 -0.39649,-0.63089 -0.767588,-10.31008 -0.824669,-21.5093 -0.110259,-21.63374 -0.753922,-27.27369 -5.228776,-45.81496 -1.739555,-7.20776 -2.262509,-11.55419 -2.296839,-19.08957 -0.04232,-9.29274 0.08678,-10.03386 2.712943,-15.57902 3.028833,-6.39529 3.25269,-8.65072 1.736259,-17.49382 -1.31599,-7.67431 0.0034,-16.11777 3.70572,-23.70824 4.381502,-8.98379 7.970982,-11.82859 25.950311,-20.56663 8.749087,-4.25211 17.947526,-9.0323 20.440991,-10.62266 10.266796,-6.54829 17.101276,-15.32309 17.101276,-21.95638 0,-4.38902 -2.06014,-8.1668 -6.9457,-12.73668 l -4.2509,-3.9762 -5.219122,0.5147 c -4.753897,0.46883 -5.070204,0.40165 -3.548492,-0.75364 7.632684,-5.79476 21.009114,-1.85406 25.848514,7.615 2.79321,5.46532 3.3631,13.86865 1.35129,19.9256 -2.12557,6.39951 -7.9945,13.7928 -14.6675,18.47716 -3.19533,2.24307 -12.371521,7.47463 -20.39156,11.62569 -21.757919,11.26157 -27.324173,17.09011 -27.324173,28.61177 0,4.49236 1.078727,5.79242 3.235051,3.89881 2.348064,-2.06197 7.845929,-4.55738 14.480888,-6.57269 4.815888,-1.46278 7.429903,-1.78337 11.443477,-1.40348 12.752957,1.20714 25.084367,7.78076 34.661027,18.47707 2.90039,3.2395 8.96222,11.13321 13.47075,17.54157 l 8.1973,11.65156 -4.77721,1.06043 c -8.78866,1.95086 -11.94957,2.96051 -12.9167,4.12583 -1.69185,2.03855 1.33058,2.29755 9.90557,0.84881 4.45583,-0.7528 8.45838,-1.36874 8.89457,-1.36874 1.05138,0 1.02386,3.99935 -0.0319,4.65192 -0.4538,0.28047 -4.64012,1.23689 -9.30296,2.12537 -9.2775,1.76781 -11.93104,2.81453 -11.93104,4.7063 0,1.60584 2.75724,1.59493 13.73772,-0.0543 7.7826,-1.16893 8.76576,-1.16736 9.94903,0.0159 2.2511,2.2511 0.0282,4.05559 -8.92167,7.24217 -9.18053,3.26868 -10.52295,3.92167 -10.52295,5.11857 0,1.51237 4.84699,0.79106 13.82075,-2.05676 l 8.99673,-2.85511 7.45025,4.55197 c 7.98261,4.87722 11.30511,5.71631 11.30511,2.8551 0,-0.93327 -0.54193,-1.69685 -1.20427,-1.69685 -1.56561,0 -10.27872,-7.96584 -13.36345,-12.21736 -2.06579,-2.84718 -2.39819,-4.09024 -2.38216,-8.90847 0.02,-6.02806 1.04528,-8.90549 6.16335,-17.29834 1.91119,-3.13406 3.49054,-7.27892 4.36431,-11.45375 1.91794,-9.16379 2.99586,-12.90555 3.7178,-12.90555 0.34164,0 3.01075,2.86343 5.93134,6.36319 6.1067,7.31763 4.71858,6.97846 22.52319,5.50332 12.27404,-1.01691 15.94788,-2.48654 20.90137,-8.36109 2.01918,-2.39462 3.96265,-4.35385 4.31884,-4.35385 0.35618,0 1.2482,2.64058 1.98225,5.86795 1.95318,8.58753 2.71545,10.16553 7.20215,14.90955 5.14885,5.44415 7.27326,11.32088 6.6354,18.35537 -0.63989,7.05674 -2.99916,11.21925 -10.87905,19.19411 -6.14004,6.21403 -6.78339,7.15649 -5.74764,8.41989 0.64147,0.78246 6.70227,4.06448 13.46846,7.29338 29.18879,13.9292 57.58141,24.23731 68.89906,25.01419 l 6.53981,0.44892 0.94603,4.75965 c 0.52031,2.6178 1.26907,6.00046 1.66394,7.51702 0.66495,2.55386 0.56508,2.75739 -1.35293,2.75739 -2.08094,0 -2.22934,-0.21243 -4.6219,-6.61531 -1.70834,-4.57181 -4.41833,-5.3799 -20.68726,-6.1687 -10.0984,-0.48962 -16.27744,-1.21318 -20.41923,-2.39109 -9.26243,-2.6342 -29.9191,-9.89802 -46.52698,-16.36099 -8.32438,-3.23944 -15.76931,-5.76778 -16.54429,-5.61854 -0.86028,0.16568 -1.40905,1.08881 -1.40905,2.37032 0,1.73289 0.9618,2.58327 5.51477,4.87597 7.04602,3.5481 22.1555,9.0217 43.94727,15.92045 21.93861,6.94523 27.40977,8.04891 39.90005,8.04891 h 10.10586 l 0.49628,3.05817 c 0.69069,4.25627 -0.17961,7.80884 -2.27202,9.27444 -2.40668,1.6857 -12.08933,1.49763 -23.71434,-0.4606 z m -80.83124,-59.06839 c 3.36342,-1.14603 4.62892,-1.20923 7.42699,-0.37091 3.99915,1.19817 7.42484,0.60518 9.91705,-1.71666 1.92497,-1.7934 2.42896,-4.16684 0.88479,-4.16684 -0.5097,0 -1.89746,0.76358 -3.08391,1.69685 -2.62138,2.06197 -6.39515,2.19934 -7.97556,0.29032 -0.74706,-0.9024 -1.09788,-3.15254 -0.97876,-6.27786 0.17168,-4.50467 0.0324,-4.90977 -1.85009,-5.38225 -2.34025,-0.58738 -6.3956,0.71279 -6.3956,2.05046 0,0.49709 0.83666,2.03544 1.85927,3.41858 2.281,3.08523 1.46456,6.43322 -2.04987,8.40581 -2.19346,1.23116 -2.40769,1.17013 -5.11974,-1.4585 -4.01275,-3.88931 -6.24572,-3.50414 -4.00101,0.69015 0.86804,1.62196 4.6806,4.10396 6.40282,4.16829 0.50016,0.0187 2.73379,-0.58766 4.96362,-1.34744 z m -9.96797,-21.98513 c 4.02328,-1.9684 4.58193,-2.54244 4.35513,-4.47512 -0.40027,-3.41096 -7.33906,-7.36799 -12.92001,-7.36799 -5.10525,0 -11.5444,2.8577 -13.63764,6.05239 -1.32398,2.02064 -1.31538,2.25655 0.14183,3.8887 4.65024,5.20852 13.70653,5.98934 22.06069,1.90202 z m 38.52768,-0.51102 c 1.78081,-0.53355 4.29604,-2.0746 5.58939,-3.42457 2.79783,-2.9203 2.35786,-4.0756 -2.99437,-7.86281 -4.91094,-3.47497 -11.0534,-3.57454 -16.06497,-0.26044 -3.87954,2.56551 -6.40421,6.53575 -5.55813,8.74059 1.29232,3.36776 11.92267,4.93606 19.02808,2.80723 z"
     style="opacity:1;fill:#ffffff;fill-opacity:1;fill-rule:nonzero;stroke:none;stroke-width:0.84976137;stroke-miterlimit:4;stroke-dasharray:none;stroke-opacity:1" />
  <path
     id="path27"
     d="m 95.212021,328.06038 c -1.568175,-0.34554 -3.388194,-1.16523 -4.044486,-1.82152 -1.159326,-1.15933 -3.693261,-16.11734 -4.999275,-29.51118 l -0.619027,-6.34839 3.711735,3.04419 c 6.034441,4.94919 8.893959,9.2647 9.493563,14.32748 0.314897,2.65882 1.916179,7.22521 3.963229,11.30201 2.74279,5.46239 3.21823,7.04196 2.35966,7.83977 -1.45477,1.35183 -6.382555,1.93507 -9.865399,1.16764 z"
     style="opacity:1;fill:#ffffff;fill-opacity:1;fill-rule:nonzero;stroke:none;stroke-width:0.84976137;stroke-miterlimit:4;stroke-dasharray:none;stroke-opacity:1" />
  <path
     id="path34"
     d="m 220.23288,242.81893 c -0.33232,-0.80927 -0.21024,-4.54978 0.1606,-4.92061 0.48256,-0.48257 1.50878,-0.12946 3.65479,1.25758 2.18332,1.41114 2.1906,1.37932 -0.71371,3.11991 -1.97936,1.18626 -2.78001,1.32646 -3.10168,0.54312 z"
     style="opacity:1;fill:#ffffff;fill-opacity:1;fill-rule:nonzero;stroke:none;stroke-width:0.30043599;stroke-miterlimit:4;stroke-dasharray:none;stroke-opacity:1" />
  <path
     id="path36"
     d="m 207.10414,243.06943 c -2.79507,-1.60322 -2.79376,-2.01823 0.0114,-3.62319 2.64628,-1.51405 3.45291,-1.09405 3.45291,1.79788 0,2.87615 -0.85077,3.32441 -3.46432,1.82531 z"
     style="opacity:1;fill:#ffffff;fill-opacity:1;fill-rule:nonzero;stroke:none;stroke-width:0.30043599;stroke-miterlimit:4;stroke-dasharray:none;stroke-opacity:1" />
  <path
     id="path38"
     d="m 178.23238,245.08365 c -0.53952,-0.53953 -0.47165,-4.2733 0.0861,-4.73619 0.59222,-0.49149 1.75877,-0.18099 3.50182,0.93206 2.04367,1.30501 2.03389,1.59491 -0.10033,2.97435 -1.8966,1.22584 -2.86183,1.45549 -3.48754,0.82978 z"
     style="opacity:1;fill:#ffffff;fill-opacity:1;fill-rule:nonzero;stroke:none;stroke-width:0.30043599;stroke-miterlimit:4;stroke-dasharray:none;stroke-opacity:1" />
  <path
     id="path40"
     d="m 165.71791,245.77889 c -2.31073,-1.47277 -2.91347,-2.16826 -2.79116,-3.22064 0.17204,-1.48019 3.69069,-3.69019 4.53348,-2.8474 0.41992,0.41992 0.68529,6.07881 0.316,6.7387 -0.22718,0.40594 -0.51764,0.3113 -2.05832,-0.67066 z"
     style="opacity:1;fill:#ffffff;fill-opacity:1;fill-rule:nonzero;stroke:none;stroke-width:0.30043599;stroke-miterlimit:4;stroke-dasharray:none;stroke-opacity:1" />
</svg>
