<svg
   xmlns="http://www.w3.org/2000/svg"
   height="597.75867"
   width="399.58908"
   xml:space="preserve"
   enable-background="new 0 0 2661.718 1319.416"
   viewBox="0 0 399.58908 597.75866"
   y="0px"
   x="0px"
   id="Layer_1"
   version="1.1"><path
   style="fill:#ffffff;fill-rule:evenodd;stroke-width:4.61941671"
   id="path2-3"
   d="M 67.698965,1.6511947 H 331.89009 c 36.59472,0 66.04779,29.4531003 66.04779,66.0478003 V 530.05969 c 0,36.5908 -29.45307,66.0478 -66.04779,66.0478 H 67.698965 c -36.59209,0 -66.0477703,-29.4583 -66.0477703,-66.0478 V 67.698995 c 0,-36.5947 29.4556803,-66.0478003 66.0477703,-66.0478003 z" /><path
   style="fill:none;stroke:#000000;stroke-width:3.30238938"
   id="path4-6"
   d="M 67.698965,1.6511947 H 331.89009 c 36.59472,0 66.04779,29.4531003 66.04779,66.0478003 V 530.05969 c 0,36.5908 -29.45307,66.0478 -66.04779,66.0478 H 67.698965 c -36.59209,0 -66.0477703,-29.4583 -66.0477703,-66.0478 V 67.698995 c 0,-36.5947 29.4556803,-66.0478003 66.0477703,-66.0478003 z" /><path
   style="fill:#ff0000;fill-rule:evenodd;stroke-width:4.61941671"
   id="path8-6"
   d="m 298.88061,133.71579 c -145.91008,0 -264.191125,118.285 -264.191125,264.1911 0,36.4795 29.56567,66.0478 66.047775,66.0478 145.91008,0 264.19113,-118.2889 264.19113,-264.1911 0,-36.4795 -29.5683,-66.0478 -66.04778,-66.0478 z" /><path
   d="m 69.5742,37.652813 -0.448,4.106667 c -3.509333,-3.957333 -7.914666,-4.629333 -10.304,-4.629333 -10.826666,0 -20.085332,9.557333 -20.085332,23.221332 0,11.274667 6.645333,22.773333 21.354666,22.773333 6.943999,0 12.991999,-2.538667 16.277332,-3.957333 v -11.872 H 79.8782 V 61.172813 H 59.120867 v 6.122666 h 10.752 v 7.392 c -5.152,1.941333 -8.885333,2.016 -9.706667,2.016 -9.855999,0 -14.559999,-7.093333 -14.559999,-16.426666 0,-10.304 5.973333,-16.725333 13.663999,-16.725333 9.109333,0 10.08,7.242666 10.602667,11.498666 l 6.272,-0.821333 c -0.373334,-1.866667 -0.896,-4.48 -0.896,-9.258666 0,-3.061334 0.149333,-5.450667 0.298666,-7.317334 z"
   style="font-style:normal;font-variant:normal;font-weight:bold;font-stretch:normal;font-size:74.66666412px;line-height:1.25;font-family:Courier;-inkscape-font-specification:'Courier Bold';letter-spacing:0px;word-spacing:0px;fill:#000000;fill-opacity:1;stroke:none"
   id="path15" /><path
   d="m 88.2117,38.39948 v 6.122667 h 9.631999 L 85.0757,75.807479 h -4.330667 v 6.122666 h 17.696 V 75.807479 H 91.7957 l 2.911999,-7.317333 H 111.5077 l 2.912,7.317333 h -6.57067 v 6.122666 h 17.696 V 75.807479 H 121.3637 L 106.20637,38.39948 Z m 20.90667,23.967999 H 97.246366 l 5.898664,-14.261333 z"
   style="font-style:normal;font-variant:normal;font-weight:bold;font-stretch:normal;font-size:74.66666412px;line-height:1.25;font-family:Courier;-inkscape-font-specification:'Courier Bold';letter-spacing:0px;word-spacing:0px;fill:#000000;fill-opacity:1;stroke:none"
   id="path17" /><path
   d="m 129.2492,38.39948 -1.41867,19.711999 6.42134,0.896 0.97066,-14.485332 h 9.48267 v 31.285332 h -8.66134 v 6.122666 h 23.968 V 75.807479 H 151.2012 V 44.522147 h 9.48266 l 0.97067,14.485332 6.42133,-0.896 -1.41866,-19.711999 z"
   style="font-style:normal;font-variant:normal;font-weight:bold;font-stretch:normal;font-size:74.66666412px;line-height:1.25;font-family:Courier;-inkscape-font-specification:'Courier Bold';letter-spacing:0px;word-spacing:0px;fill:#000000;fill-opacity:1;stroke:none"
   id="path19" /><path
   d="m 172.67603,60.202146 c 0,12.693333 7.98934,22.922666 20.01067,22.922666 12.096,0 20.01067,-10.304 20.01067,-22.997333 0,-12.618666 -7.84,-22.997332 -20.01067,-22.997332 -12.17067,0 -20.01067,10.453333 -20.01067,23.071999 z m 6.86934,-0.07467 c 0,-8.661333 4.85333,-16.575999 13.14133,-16.575999 8.512,0 13.14133,8.213333 13.14133,16.575999 0,8.810667 -4.85333,16.576 -13.14133,16.576 -8.21333,0 -13.14133,-7.84 -13.14133,-16.576 z"
   style="font-style:normal;font-variant:normal;font-weight:bold;font-stretch:normal;font-size:74.66666412px;line-height:1.25;font-family:Courier;-inkscape-font-specification:'Courier Bold';letter-spacing:0px;word-spacing:0px;fill:#000000;fill-opacity:1;stroke:none"
   id="path21" />
<path
   d="m 327.11274,564.33709 0.448,-4.10667 c 3.50933,3.95733 7.91467,4.62933 10.304,4.62933 10.82667,0 20.08533,-9.55733 20.08533,-23.22133 0,-11.27467 -6.64533,-22.77333 -21.35466,-22.77333 -6.944,0 -12.992,2.53866 -16.27734,3.95733 v 11.872 h -3.50933 v 6.12267 h 20.75733 v -6.12267 h -10.752 v -7.392 c 5.152,-1.94133 8.88534,-2.016 9.70667,-2.016 9.856,0 14.56,7.09333 14.56,16.42667 0,10.304 -5.97333,16.72533 -13.664,16.72533 -9.10933,0 -10.08,-7.24267 -10.60267,-11.49867 l -6.272,0.82134 c 0.37334,1.86666 0.896,4.48 0.896,9.25866 0,3.06134 -0.14933,5.45067 -0.29866,7.31734 z"
   style="font-style:normal;font-variant:normal;font-weight:bold;font-stretch:normal;font-size:74.66666412px;line-height:1.25;font-family:Courier;-inkscape-font-specification:'Courier Bold';letter-spacing:0px;word-spacing:0px;fill:#000000;fill-opacity:1;stroke:none"
   id="path24" /><path
   d="m 308.47524,563.59042 v -6.12267 h -9.632 l 12.768,-31.28533 h 4.33067 v -6.12267 h -17.696 v 6.12267 h 6.64533 l -2.912,7.31733 h -16.8 l -2.912,-7.31733 h 6.57067 v -6.12267 h -17.696 v 6.12267 h 4.18133 l 15.15733,37.408 z m -20.90667,-23.968 h 11.872 l -5.89866,14.26133 z"
   style="font-style:normal;font-variant:normal;font-weight:bold;font-stretch:normal;font-size:74.66666412px;line-height:1.25;font-family:Courier;-inkscape-font-specification:'Courier Bold';letter-spacing:0px;word-spacing:0px;fill:#000000;fill-opacity:1;stroke:none"
   id="path26" /><path
   d="m 267.43774,563.59042 1.41867,-19.712 -6.42134,-0.896 -0.97066,14.48533 h -9.48267 v -31.28533 h 8.66133 v -6.12267 h -23.96799 v 6.12267 h 8.81066 v 31.28533 h -9.48266 l -0.97067,-14.48533 -6.42133,0.896 1.41866,19.712 z"
   style="font-style:normal;font-variant:normal;font-weight:bold;font-stretch:normal;font-size:74.66666412px;line-height:1.25;font-family:Courier;-inkscape-font-specification:'Courier Bold';letter-spacing:0px;word-spacing:0px;fill:#000000;fill-opacity:1;stroke:none"
   id="path28" /><path
   d="m 224.0109,541.78775 c 0,-12.69333 -7.98933,-22.92266 -20.01066,-22.92266 -12.096,0 -20.01067,10.304 -20.01067,22.99733 0,12.61867 7.84,22.99733 20.01067,22.99733 12.17067,0 20.01066,-10.45333 20.01066,-23.072 z m -6.86933,0.0747 c 0,8.66133 -4.85333,16.576 -13.14133,16.576 -8.512,0 -13.14133,-8.21333 -13.14133,-16.576 0,-8.81067 4.85333,-16.576 13.14133,-16.576 8.21333,0 13.14133,7.84 13.14133,16.576 z"
   style="font-style:normal;font-variant:normal;font-weight:bold;font-stretch:normal;font-size:74.66666412px;line-height:1.25;font-family:Courier;-inkscape-font-specification:'Courier Bold';letter-spacing:0px;word-spacing:0px;fill:#000000;fill-opacity:1;stroke:none"
   id="path30" />
<path
   style="stroke-width:0.15855193"
   d="m 316.20134,269.78048 c -14.17368,1.17631 -33.19522,6.60107 -43.93215,8.07145 -20.65341,2.82882 -28.44436,-16.63028 -48.88525,-6.42773 -25.82752,12.8912 -30.93702,20.13154 -54.07267,25.68767 -14.83362,3.56264 -29.66037,6.65145 -45.85777,7.36145 -7.19619,0.31552 -19.27714,11.81896 -24.878369,17.42145 -5.909519,5.91086 -11.402359,11.89867 -20.46256,13.7476 -7.400481,1.51032 -20.93261,1.09385 -27.83368,-0.2884 -1.283652,-0.25707 -1.900096,0.76643 -2.523949,1.76519 -17.388435,27.82995 -16.928812,31.00286 -21.468105,33.94272 -5.094408,3.29934 -9.388386,-2.87041 -7.644562,-8.89304 3.741195,-12.92161 18.773616,-33.47329 19.569793,-34.66773 0.603684,-0.90569 -0.02278,-2.19889 -0.959172,-1.59626 C 11.805278,342.28502 9.1818584,344.21567 5.6143595,342.40797 3.617537,341.3962 3.4280625,338.43033 3.6919,335.82229 c 0.9287131,-9.17685 7.682292,-8.54289 15.583283,-14.32329 4.742213,-3.46937 17.457585,-19.73742 26.081761,-21.64956 3.581494,-0.7941 5.572965,-0.68893 8.565729,-5.49273 5.008795,-8.03976 10.440169,-24.40198 20.657523,-32.29698 8.857144,-6.84403 8.550774,-6.99244 10.999811,-8.65228 0.506271,-0.34318 0.71413,-1.00371 0.414072,-1.78846 -3.589863,-9.385 1.424146,-17.53982 0.651979,-39.14907 -0.270835,-7.57857 -0.611093,-15.86385 -6.475473,-15.66194 -2.699154,0.0929 -4.575102,1.91013 -5.868907,5.02698 -7.125668,17.1653 -3.897467,37.21091 -4.786667,46.1765 -0.586396,5.91195 -3.570791,9.96124 -5.875493,5.78076 -1.994627,-3.61778 -4.390155,-12.14235 -4.939782,-14.86398 -2.584866,-12.80051 0.818129,-40.4606 10.994597,-49.84596 19.12046,-17.63417 34.295297,-7.93989 32.121897,33.44819 -0.51697,9.84507 -1.834104,12.95716 -1.60758,17.81721 0.40844,8.7613 20.08457,-2.38632 72.15987,-16.07675 16.21619,-4.26311 13.95827,-1.6538 30.11945,-6.66941 0.94504,-0.29335 1.54776,-1.23128 1.98626,-2.32184 5.06326,-12.59565 14.18067,-14.83119 21.16955,-19.55914 7.6281,-5.16018 12.90485,-13.98084 20.04616,-22.70512 8.45885,-10.33392 9.4873,-11.48678 9.87366,-20.17185 0.13885,-3.11997 0.56733,-6.14722 1.53748,-9.00664 0.49515,-1.45957 1.46667,-1.94988 2.57292,-1.34249 5.20555,2.8585 5.49257,9.27341 10.40779,16.84209 4.11644,6.33887 9.21414,7.27809 12.35426,9.02514 14.25683,7.93183 4.24431,15.57894 12.28305,23.45598 2.25559,2.21007 3.70676,3.77683 2.43628,7.06445 -1.51113,3.9104 -6.91836,10.08382 -11.36408,10.96293 -4.69488,0.9284 -9.45109,-2.88708 -17.40847,4.64019 -1.36912,1.29504 -2.82249,2.93729 -1.71473,4.62937 4.74797,7.25244 5.34137,16.32045 14.3862,14.13274 7.84625,-1.89767 5.676,-1.5937 11.50897,-3.21011 8.70443,-2.41217 18.82835,-2.1223 26.31335,-4.47694 8.75658,-2.75461 15.43168,-10.77805 21.22622,-9.88135 2.53369,0.3921 4.71491,1.90646 5.90005,4.86775 1.44061,3.59984 1.14261,7.0978 -2.42982,9.47112 -7.96054,5.28843 -8.83753,1.58087 -36.11253,12.78621 -10.80004,4.4368 -10.5288,4.55168 -10.47186,5.44216 0.0628,0.98356 0.36221,0.86428 5.12295,1.71224 9.60598,1.71115 27.95304,3.98241 37.17171,1.32454 5.05887,-1.45847 11.01326,-3.14122 14.32007,2.25551 1.816,2.96367 3.07056,13.05133 -6.57549,15.14817 -8.38476,1.82254 -17.85944,0.0178 -30.82658,1.09385 z"
   id="path2" /></svg>
