<?xml version="1.0" encoding="UTF-8" standalone="no"?>
<svg
   xmlns="http://www.w3.org/2000/svg"
   id="svg118"
   version="1.1"
   viewBox="0 0 30.809268 46.088628"
   height="597.75867"
   width="399.58896">
  <path
     style="clip-rule:evenodd;fill:#ffffff;fill-rule:evenodd"
     id="path2"
     d="m -99.304503,68.1489 h 192.756 v 192.756 h -192.756 z" />
  <path
     style="fill:#ffffff;fill-rule:evenodd;stroke-width:0.35616812"
     id="path2-3"
     d="M 5.2197471,0.12731108 H 25.589517 c 2.82154,0 5.09244,2.27090202 5.09244,5.09244202 V 40.86887 c 0,2.821239 -2.2709,5.092447 -5.09244,5.092447 H 5.2197471 c -2.82134,0 -5.09243602,-2.271307 -5.09243602,-5.092447 V 5.2197531 c 0,-2.82154 2.27109602,-5.09244202 5.09243602,-5.09244202 z" />
  <path
     style="fill:none;stroke:#000000;stroke-width:0.25462216"
     id="path4-6"
     d="M 5.2197471,0.12731108 H 25.589517 c 2.82154,0 5.09244,2.27090202 5.09244,5.09244202 V 40.86887 c 0,2.821239 -2.2709,5.092447 -5.09244,5.092447 H 5.2197471 c -2.82134,0 -5.09243602,-2.271307 -5.09243602,-5.092447 V 5.2197531 c 0,-2.82154 2.27109602,-5.09244202 5.09243602,-5.09244202 z" />
  <path
     style="fill:#ff0000;fill-rule:evenodd;stroke-width:0.35616812"
     id="path8-6"
     d="m 23.044407,10.309803 c -11.25002,0 -20.3697699,9.120057 -20.3697699,20.36977 0,2.812659 2.27958,5.092447 5.09244,5.092447 11.2500199,0 20.3697699,-9.120363 20.3697699,-20.369774 0,-2.812655 -2.27979,-5.092443 -5.09244,-5.092443 z" />
  <path
     d="M 3.240006,2.9606988 V 3.4327711 H 3.6832934 V 5.8449453 H 3.240006 V 6.3170176 H 5.0016416 V 5.8449453 H 4.1841506 V 5.090781 h 0.2014942 c 0.6735666,0 0.8808178,-0.011514 1.1916947,-0.1899803 0.264821,-0.1496814 0.4548013,-0.5123711 0.4548013,-0.8520329 0,-0.3799606 -0.2245222,-0.7484072 -0.541156,-0.9268736 C 5.2664626,2.9952407 5.0246695,2.9606988 4.615924,2.9606988 Z m 1.381675,0.4720723 c 0.3799606,0 0.4951001,0.034542 0.6102397,0.097869 0.1381675,0.074841 0.270578,0.2648211 0.270578,0.5008572 0,0.2475501 -0.1439244,0.4202595 -0.2302791,0.4663153 -0.1381675,0.074841 -0.270578,0.1208966 -0.8808178,0.1208966 H 4.1841506 V 3.4327711 Z"
     style="font-style:normal;font-variant:normal;font-weight:bold;font-stretch:normal;font-size:5.75697899px;line-height:1.25;font-family:Courier;-inkscape-font-specification:'Courier Bold';letter-spacing:0px;word-spacing:0px;fill:#000000;fill-opacity:1;stroke:none;stroke-width:0.0771024"
     id="path73" />
  <path
     d="M 6.4846934,2.9606988 V 3.4327711 H 6.9625226 V 5.8449453 H 6.4846934 V 6.3170176 H 9.4092387 V 5.0677531 H 8.9314095 L 8.9026246,5.8449453 H 7.4633798 V 4.7856611 H 8.1427033 V 5.1944067 H 8.6205326 V 3.8990864 H 8.1427033 V 4.3135889 H 7.4633798 V 3.4327711 h 1.3874319 l 0.051813,0.7714352 H 9.3804538 L 9.3516689,2.9606988 Z"
     style="font-style:normal;font-variant:normal;font-weight:bold;font-stretch:normal;font-size:5.75697899px;line-height:1.25;font-family:Courier;-inkscape-font-specification:'Courier Bold';letter-spacing:0px;word-spacing:0px;fill:#000000;fill-opacity:1;stroke:none;stroke-width:0.0771024"
     id="path75" />
  <path
     d="M 9.8790622,2.9606988 V 3.4327711 H 10.328107 V 5.8449453 H 9.8790622 V 6.3170176 H 11.329821 V 5.8449453 H 10.828964 V 4.8835298 h 0.293606 c 0.184223,0 0.253307,0.069084 0.4951,0.4317734 0.01151,0.017271 0.333905,0.5123711 0.558427,1.0017144 h 0.886575 V 5.8449453 H 12.521516 C 12.130041,5.1828927 12.014901,5.0159403 11.876734,4.82596 c 0.736893,-0.2187652 0.74265,-0.8059771 0.74265,-0.9211166 0,-0.3051199 -0.155438,-0.6159968 -0.37996,-0.7714352 -0.23028,-0.1611954 -0.466316,-0.1727094 -0.823248,-0.1727094 z m 1.5371138,0.4720723 c 0.414502,0 0.673566,0.074841 0.673566,0.4548013 0,0.558427 -0.639025,0.5238851 -0.834762,0.5238851 H 10.828964 V 3.4327711 Z"
     style="font-style:normal;font-variant:normal;font-weight:bold;font-stretch:normal;font-size:5.75697899px;line-height:1.25;font-family:Courier;-inkscape-font-specification:'Courier Bold';letter-spacing:0px;word-spacing:0px;fill:#000000;fill-opacity:1;stroke:none;stroke-width:0.0771024"
     id="path77" />
  <path
     d="m 13.331001,2.9606988 v 0.4720723 h 0.449044 V 5.8449453 H 13.331001 V 6.3170176 H 14.78176 V 5.8449453 H 14.280902 V 4.8835298 h 0.293606 c 0.184224,0 0.253307,0.069084 0.495101,0.4317734 0.01151,0.017271 0.333904,0.5123711 0.558426,1.0017144 H 16.51461 V 5.8449453 H 15.973454 C 15.58198,5.1828927 15.46684,5.0159403 15.328673,4.82596 c 0.736893,-0.2187652 0.74265,-0.8059771 0.74265,-0.9211166 0,-0.3051199 -0.155439,-0.6159968 -0.379961,-0.7714352 C 15.461083,2.9722128 15.225047,2.9606988 14.868114,2.9606988 Z m 1.537113,0.4720723 c 0.414503,0 0.673567,0.074841 0.673567,0.4548013 0,0.558427 -0.639025,0.5238851 -0.834762,0.5238851 H 14.280902 V 3.4327711 Z"
     style="font-style:normal;font-variant:normal;font-weight:bold;font-stretch:normal;font-size:5.75697899px;line-height:1.25;font-family:Courier;-inkscape-font-specification:'Courier Bold';letter-spacing:0px;word-spacing:0px;fill:#000000;fill-opacity:1;stroke:none;stroke-width:0.0771024"
     id="path79" />
  <path
     d="m 16.765669,4.6417367 c 0,0.9786864 0.615996,1.7673925 1.54287,1.7673925 0.932631,0 1.54287,-0.7944631 1.54287,-1.7731495 0,-0.9729295 -0.604483,-1.7731495 -1.54287,-1.7731495 -0.938388,0 -1.54287,0.805977 -1.54287,1.7789065 z m 0.529642,-0.00576 c 0,-0.6678096 0.374203,-1.2780493 1.013228,-1.2780493 0.656296,0 1.013228,0.6332676 1.013228,1.2780493 0,0.6793235 -0.374203,1.2780493 -1.013228,1.2780493 -0.633268,0 -1.013228,-0.6044828 -1.013228,-1.2780493 z"
     style="font-style:normal;font-variant:normal;font-weight:bold;font-stretch:normal;font-size:5.75697899px;line-height:1.25;font-family:Courier;-inkscape-font-specification:'Courier Bold';letter-spacing:0px;word-spacing:0px;fill:#000000;fill-opacity:1;stroke:none;stroke-width:0.0771024"
     id="path81" />
  <path
     d="m 27.345492,43.454173 v -0.472072 h -0.443287 v -2.412174 h 0.443287 v -0.472072 h -1.761635 v 0.472072 h 0.817491 v 0.754164 h -0.201494 c -0.673567,0 -0.880818,0.01151 -1.191695,0.18998 -0.264821,0.149682 -0.454801,0.512372 -0.454801,0.852033 0,0.379961 0.224522,0.748408 0.541156,0.926874 0.224522,0.126653 0.466315,0.161195 0.87506,0.161195 z m -1.381675,-0.472072 c -0.37996,0 -0.4951,-0.03454 -0.610239,-0.09787 C 25.21541,42.809391 25.083,42.61941 25.083,42.383374 c 0,-0.24755 0.143924,-0.420259 0.230279,-0.466315 0.138167,-0.07484 0.270578,-0.120897 0.880818,-0.120897 h 0.207251 V 42.9821 Z"
     style="font-style:normal;font-variant:normal;font-weight:bold;font-stretch:normal;font-size:5.75697899px;line-height:1.25;font-family:Courier;-inkscape-font-specification:'Courier Bold';letter-spacing:0px;word-spacing:0px;fill:#000000;fill-opacity:1;stroke:none;stroke-width:0.0771024"
     id="path85" />
  <path
     d="m 24.100805,43.454173 v -0.472072 h -0.477829 v -2.412174 h 0.477829 V 40.097855 H 21.17626 v 1.249264 h 0.477829 l 0.02879,-0.777192 h 1.439245 v 1.059284 H 22.4428 v -0.408745 h -0.477829 v 1.29532 H 22.4428 v -0.414503 h 0.679324 v 0.880818 h -1.387432 l -0.05181,-0.771435 h -0.477829 l 0.02878,1.243507 z"
     style="font-style:normal;font-variant:normal;font-weight:bold;font-stretch:normal;font-size:5.75697899px;line-height:1.25;font-family:Courier;-inkscape-font-specification:'Courier Bold';letter-spacing:0px;word-spacing:0px;fill:#000000;fill-opacity:1;stroke:none;stroke-width:0.0771024"
     id="path87" />
  <path
     d="m 20.706436,43.454173 v -0.472072 h -0.449044 v -2.412174 h 0.449044 v -0.472072 h -1.450759 v 0.472072 h 0.500858 v 0.961415 h -0.293606 c -0.184224,0 -0.253307,-0.06908 -0.495101,-0.431773 -0.01151,-0.01727 -0.333904,-0.512371 -0.558427,-1.001714 h -0.886574 v 0.472072 h 0.541156 c 0.391474,0.662052 0.506614,0.829005 0.644781,1.018985 -0.736893,0.218765 -0.74265,0.805977 -0.74265,0.921117 0,0.30512 0.155439,0.615997 0.379961,0.771435 0.230279,0.161195 0.466315,0.172709 0.823248,0.172709 z m -1.537113,-0.472072 c -0.414503,0 -0.673567,-0.07484 -0.673567,-0.454801 0,-0.558427 0.639025,-0.523885 0.834762,-0.523885 h 0.426017 v 0.978686 z"
     style="font-style:normal;font-variant:normal;font-weight:bold;font-stretch:normal;font-size:5.75697899px;line-height:1.25;font-family:Courier;-inkscape-font-specification:'Courier Bold';letter-spacing:0px;word-spacing:0px;fill:#000000;fill-opacity:1;stroke:none;stroke-width:0.0771024"
     id="path89" />
  <path
     d="m 17.254497,43.454173 v -0.472072 h -0.449044 v -2.412174 h 0.449044 v -0.472072 h -1.450758 v 0.472072 h 0.500857 v 0.961415 H 16.01099 c -0.184223,0 -0.253307,-0.06908 -0.4951,-0.431773 -0.01151,-0.01727 -0.333905,-0.512371 -0.558427,-1.001714 h -0.886575 v 0.472072 h 0.541156 c 0.391475,0.662052 0.506614,0.829005 0.644782,1.018985 -0.736894,0.218765 -0.742651,0.805977 -0.742651,0.921117 0,0.30512 0.155439,0.615997 0.379961,0.771435 0.230279,0.161195 0.466315,0.172709 0.823248,0.172709 z m -1.537113,-0.472072 c -0.414502,0 -0.673566,-0.07484 -0.673566,-0.454801 0,-0.558427 0.639024,-0.523885 0.834762,-0.523885 h 0.426016 v 0.978686 z"
     style="font-style:normal;font-variant:normal;font-weight:bold;font-stretch:normal;font-size:5.75697899px;line-height:1.25;font-family:Courier;-inkscape-font-specification:'Courier Bold';letter-spacing:0px;word-spacing:0px;fill:#000000;fill-opacity:1;stroke:none;stroke-width:0.0771024"
     id="path91" />
  <path
     d="m 13.81983,41.773135 c 0,-0.978686 -0.615997,-1.767392 -1.542871,-1.767392 -0.93263,0 -1.54287,0.794463 -1.54287,1.773149 0,0.97293 0.604483,1.77315 1.54287,1.77315 0.938388,0 1.542871,-0.805977 1.542871,-1.778907 z m -0.529642,0.0058 c 0,0.66781 -0.374204,1.27805 -1.013229,1.27805 -0.656295,0 -1.013228,-0.633268 -1.013228,-1.27805 0,-0.679323 0.374204,-1.278049 1.013228,-1.278049 0.633268,0 1.013229,0.604483 1.013229,1.278049 z"
     style="font-style:normal;font-variant:normal;font-weight:bold;font-stretch:normal;font-size:5.75697899px;line-height:1.25;font-family:Courier;-inkscape-font-specification:'Courier Bold';letter-spacing:0px;word-spacing:0px;fill:#000000;fill-opacity:1;stroke:none;stroke-width:0.0771024"
     id="path93" />
  <path
     id="path4"
     d="m 5.8531945,19.783732 2.2126597,0.622967 c -0.00232,0.0088 -0.00566,0.0177 -0.00812,0.02654 a 5.290657,5.290657 0 0 0 -0.190734,1.173993 l -2.6547564,-2.00394 3.325734,-0.328672 c -0.046995,0.08369 -0.091378,0.169123 -0.1337313,0.255714 z"
     style="clip-rule:evenodd;fill:#0a2c5c;fill-rule:evenodd;stroke-width:0.14504488" />
  <path
     id="path6"
     d="m 6.2211734,20.042782 1.8232141,1.284372 0.09631,-0.590913 z"
     style="clip-rule:evenodd;fill:#b6917e;fill-rule:evenodd;stroke-width:0.14504488" />
  <path
     id="path8"
     d="m 8.236572,19.910501 c 0.051346,-0.129235 0.106753,-0.256294 0.1675268,-0.380163 l -2.5509043,0.253394 0.3679789,0.259195 1.9195239,0.693459 0.0483,-0.296616 -0.1228531,-0.03336 c 0.020886,-0.07281 0.044239,-0.144464 0.068171,-0.215826 0.03191,-0.09457 0.06556,-0.188124 0.1022567,-0.280082 z"
     style="clip-rule:evenodd;fill:#cdb4a2;fill-rule:evenodd;stroke-width:0.14504488" />
  <path
     id="path10"
     d="m 5.971261,27.038006 2.1932237,-0.688383 c 0.0029,0.0087 0.00508,0.0177 0.00783,0.02654 a 5.3061768,5.3061768 0 0 0 0.4822742,1.087256 L 5.3359621,27.237439 7.940678,25.143571 c 0.00638,0.09558 0.015955,0.191604 0.027849,0.287334 z"
     style="clip-rule:evenodd;fill:#0a2c5c;fill-rule:evenodd;stroke-width:0.14504488" />
  <path
     id="path12"
     d="M 5.971261,27.038006 8.3624709,27.21264 8.0306082,26.157004 Z"
     style="clip-rule:evenodd;fill:#b6917e;fill-rule:evenodd;stroke-width:0.14504488" />
  <path
     id="path14"
     d="m 17.79503,11.636561 v 2.298816 c 0.009,0 0.01842,-5.8e-4 0.0277,-5.8e-4 0.40221,0 0.797747,0.0467 1.181536,0.134457 L 17.794882,10.97066 16.57723,14.082743 a 5.2786183,5.2786183 0 0 1 0.282547,-0.05961 z"
     style="clip-rule:evenodd;fill:#0a2c5c;fill-rule:evenodd;stroke-width:0.14504488" />
  <path
     id="path16"
     d="m 17.79503,11.837593 v -0.201032 l -0.93525,2.386713 a 5.3756533,5.3756533 0 0 1 0.411347,-0.05816 c -0.01958,-0.191169 -0.03524,-0.338825 -0.03524,-0.338825 z"
     style="clip-rule:evenodd;fill:#cdb4a2;fill-rule:evenodd;stroke-width:0.14504488" />
  <path
     id="path18"
     d="m 17.79503,11.837593 -0.757715,2.397302 c 0,0 0.261951,-0.162305 0.281532,0.02886 0.173039,-0.01813 0.299953,-0.327512 0.476183,-0.328382 z"
     style="clip-rule:evenodd;fill:#b6917e;fill-rule:evenodd;stroke-width:0.14504488" />
  <path
     id="path20"
     d="M 8.0359749,25.840806 A 5.4432443,5.4432443 0 0 1 7.968384,25.431054 l -1.997123,1.606952 0.1918944,-0.06034 2.0013293,-0.628045 A 5.3306894,5.3306894 0 0 1 8.0359749,25.840806 Z"
     style="clip-rule:evenodd;fill:#cdb4a2;fill-rule:evenodd;stroke-width:0.14504488" />
  <path
     id="path22"
     d="M 6.8287664,15.237445 6.0408826,15.434126 17.236752,36.462007 29.104179,15.683748 28.33196,15.457188 c -0.145335,-0.0425 -3.642222,-1.043598 -10.887359,-1.043598 -7.232808,0 -10.481233,0.790205 -10.6158346,0.823855 z"
     style="clip-rule:evenodd;fill:#0a2c5c;fill-rule:evenodd;stroke-width:0.14504488" />
  <path
     id="path24"
     d="M 28.163708,16.073339 17.255608,35.171398 6.9736662,15.859833 c 0,0 3.2284088,-0.806015 10.4709348,-0.806015 7.242526,0 10.719107,1.019521 10.719107,1.019521 z"
     style="clip-rule:evenodd;fill:#cc2229;fill-rule:evenodd;stroke-width:0.14504488" />
  <path
     id="path26"
     d="M 28.337327,16.171824 17.429226,35.270029 17.249661,35.584631 17.079668,35.265387 6.7975817,15.953677 6.6767593,15.726681 6.9266717,15.665763 c 0.00957,-0.0023 3.2539373,-0.812252 10.5179293,-0.812252 7.270375,0 10.763636,1.024307 10.773789,1.027353 l 0.244836,0.07035 z M 17.261554,34.75831 27.860854,16.200833 c -0.90566,-0.223514 -4.307398,-0.946708 -10.416253,-0.946708 -6.066212,0 -9.2896893,0.562774 -10.1712721,0.74408 z"
     style="fill:#0a2c5c;stroke-width:0.14504488" />
  <path
     id="path28"
     d="m 10.86348,13.568994 1.426371,1.802763 c -0.0073,0.0058 -0.01494,0.01088 -0.02205,0.01668 a 5.2908021,5.2908021 0 0 0 -0.843291,0.838794 l -0.974266,-3.180399 2.885958,1.684987 c -0.08703,0.04018 -0.173329,0.0834 -0.25847,0.128654 z"
     style="clip-rule:evenodd;fill:#0a2c5c;fill-rule:evenodd;stroke-width:0.14504488" />
  <path
     id="path30"
     d="m 10.86348,13.568994 0.124738,0.157809 1.301778,1.644954 a 5.2979093,5.2979093 0 0 1 0.429188,-0.301839 5.39712,5.39712 0 0 1 0.358696,-0.209445 z"
     style="clip-rule:evenodd;fill:#b6917e;fill-rule:evenodd;stroke-width:0.14504488" />
  <path
     id="path32"
     d="m 12.032251,15.046276 -1.168771,-1.477282 0.647915,2.156237 z"
     style="clip-rule:evenodd;fill:#d8bcad;fill-rule:evenodd;stroke-width:0.14504488" />
  <path
     id="path34"
     d="m 24.409801,13.568994 -1.426371,1.802763 c 0.0071,0.0058 0.0148,0.01088 0.02205,0.01668 a 5.2889165,5.2889165 0 0 1 0.843001,0.838794 l 0.974556,-3.180399 -2.886103,1.684987 c 0.08732,0.04018 0.173329,0.0834 0.258325,0.128654 z"
     style="clip-rule:evenodd;fill:#0a2c5c;fill-rule:evenodd;stroke-width:0.14504488" />
  <path
     id="path36"
     d="m 24.285208,13.726803 -1.548499,1.055636 c 0,0 -0.07934,0.125319 -0.182467,0.287334 a 5.3494002,5.3494002 0 0 1 0.429188,0.301839 z"
     style="clip-rule:evenodd;fill:#b6917e;fill-rule:evenodd;stroke-width:0.14504488" />
  <path
     id="path38"
     d="m 24.285208,13.726803 0.124593,-0.157809 -2.214545,1.291334 c 0.122128,0.06469 0.241355,0.135037 0.358986,0.209445 0.103127,-0.162015 0.182467,-0.287334 0.182467,-0.287334 z"
     style="clip-rule:evenodd;fill:#cdb4a2;fill-rule:evenodd;stroke-width:0.14504488" />
  <path
     id="path40"
     d="m 28.42769,19.783732 -2.212805,0.622967 0.0083,0.02654 a 5.290367,5.290367 0 0 1 0.190589,1.173993 l 2.655047,-2.00394 -3.325879,-0.328672 c 0.04699,0.08369 0.09152,0.169123 0.134021,0.255714 z"
     style="clip-rule:evenodd;fill:#0a2c5c;fill-rule:evenodd;stroke-width:0.14504488" />
  <path
     id="path42"
     d="m 25.87693,19.530338 c 0.06063,0.123869 0.116181,0.250928 0.167382,0.380163 0.06425,0.16158 0.121838,0.326786 0.170573,0.496198 l 2.019315,-0.56843 0.19349,-0.05454 z"
     style="clip-rule:evenodd;fill:#b6917e;fill-rule:evenodd;stroke-width:0.14504488" />
  <path
     id="path44"
     d="m 10.231664,33.128441 1.42202,-1.806099 c 0.0073,0.0055 0.01407,0.01175 0.02132,0.01741 a 5.2986345,5.2986345 0 0 0 1.011833,0.625434 l -2.8669571,1.686582 0.9681741,-3.19853 c 0.05947,0.07528 0.121403,0.149106 0.185223,0.221339 z"
     style="clip-rule:evenodd;fill:#0a2c5c;fill-rule:evenodd;stroke-width:0.14504488" />
  <path
     id="path46"
     d="m 10.356113,32.970342 0.865773,-1.652061 c 0,0 0.103417,-0.106318 0.237148,-0.244546 0.124594,0.121258 0.524047,0.33897 0.661985,0.448769 z"
     style="clip-rule:evenodd;fill:#b6917e;fill-rule:evenodd;stroke-width:0.14504488" />
  <path
     id="path48"
     d="m 10.356113,32.970342 -0.124449,0.158099 0.74147,-2.453869 c 0.09123,0.103562 0.386109,0.302563 0.485755,0.399308 -0.133586,0.138083 -0.237148,0.244546 -0.237148,0.244546 z"
     style="clip-rule:evenodd;fill:#cdb4a2;fill-rule:evenodd;stroke-width:0.14504488" />
  <path
     id="path50"
     d="m 24.806064,32.944524 -1.408241,-1.816977 c 0.0071,-0.0057 0.01479,-0.01073 0.02205,-0.01639 a 5.3086426,5.3086426 0 0 0 0.851849,-0.830237 l 0.942211,3.189972 -2.868843,-1.713996 a 5.0852735,5.0852735 0 0 0 0.259486,-0.125898 z"
     style="clip-rule:evenodd;fill:#0a2c5c;fill-rule:evenodd;stroke-width:0.14504488" />
  <path
     id="path52"
     d="m 24.682921,32.78541 -1.284953,-1.658008 a 5.2564265,5.2564265 0 0 1 -0.432234,0.297342 5.2738318,5.2738318 0 0 1 -0.360871,0.206108 l 2.201491,1.313672 z"
     style="clip-rule:evenodd;fill:#b6917e;fill-rule:evenodd;stroke-width:0.14504488" />
  <path
     id="path54"
     d="m 28.443354,26.745016 -2.057606,-1.025468 c 0.0039,-0.0083 0.0088,-0.0161 0.01305,-0.02451 a 5.3051615,5.3051615 0 0 0 0.406561,-1.117716 l 2.233981,2.464603 -3.328635,-0.298358 c 0.06179,-0.07339 0.121547,-0.149106 0.179275,-0.226415 z"
     style="clip-rule:evenodd;fill:#0a2c5c;fill-rule:evenodd;stroke-width:0.14504488" />
  <path
     id="path56"
     d="m 28.263064,26.655088 -1.850193,-0.297342 c 0,0 -0.125174,-0.07992 -0.287479,-0.182612 a 5.2221959,5.2221959 0 0 0 0.260356,-0.455731 z"
     style="clip-rule:evenodd;fill:#d8bcad;fill-rule:evenodd;stroke-width:0.14504488" />
  <path
     id="path58"
     d="m 28.263064,26.655088 0.180145,0.08993 -2.55337,-0.227721 a 5.3623092,5.3623092 0 0 0 0.235408,-0.342016 c 0.162305,0.102692 0.287479,0.182612 0.287479,0.182612 z"
     style="clip-rule:evenodd;fill:#cdb4a2;fill-rule:evenodd;stroke-width:0.14504488" />
  <path
     id="path60"
     d="m 27.276178,23.500797 c 0,5.456298 -4.423288,9.879297 -9.879442,9.879297 -5.456153,0 -9.8791515,-4.422999 -9.8791515,-9.879297 0,-5.456153 4.4231435,-9.879297 9.8791515,-9.879297 5.456154,0 9.879442,4.423144 9.879442,9.879297 z"
     style="clip-rule:evenodd;fill:#0a2c5c;fill-rule:evenodd;stroke-width:0.14504488" />
  <path
     id="path62"
     d="m 26.078398,23.500797 c 0,4.794748 -3.886768,8.681806 -8.681662,8.681806 -4.794748,0 -8.681661,-3.887058 -8.681661,-8.681806 0,-4.794894 3.886913,-8.681806 8.681661,-8.681806 4.794894,0 8.681662,3.886912 8.681662,8.681806 z"
     style="clip-rule:evenodd;fill:#cc2229;fill-rule:evenodd;stroke-width:0.14504488" />
  <path
     id="path64"
     d="m 25.223358,25.508943 c 0,0 1.334848,0.222499 1.157023,-2.047018 -0.177825,-2.269517 0.08891,-3.24857 -0.400614,-3.827154 -0.489526,-0.578584 -1.379377,-0.800938 -1.779846,-0.800938 -0.400469,0 -0.89014,-0.444998 -1.067965,0.400469 -0.17797,0.845611 0.133441,3.026071 0.489526,3.515598 0.355795,0.489526 1.601876,2.759043 1.601876,2.759043 z"
     style="clip-rule:evenodd;fill:#cc2229;fill-rule:evenodd;stroke-width:0.14504488" />
  <path
     id="path66"
     d="m 24.199051,20.451083 c 0,0 0.686062,0.487641 0.577859,1.463213 -0.01813,0.16245 0.776715,2.022941 0.451525,2.872034 0,0 -0.686353,-1.264357 -0.939456,-1.896607 -0.252668,-0.632251 -0.126334,-1.174139 -0.126334,-1.553431 0,-0.379292 -0.451525,-0.325191 -0.234828,-0.61412 0.216697,-0.288929 0.271234,-0.271089 0.271234,-0.271089 z"
     style="clip-rule:evenodd;fill:#cdb4a2;fill-rule:evenodd;stroke-width:0.14504488" />
  <path
     id="path68"
     d="m 9.6388659,20.510552 c -0.2822574,0.275005 0.6054171,-1.585776 1.9063251,-2.608052 0.116471,-0.145625 -0.0834,-0.232942 -0.112555,-0.640809 -0.02901,-0.407866 -0.324175,-2.155367 0.928142,-3.145733 0.436875,-0.29125 0.553491,-0.262241 0.990367,-0.436875 0.436875,-0.174779 0.640663,-0.320259 1.048529,-0.553346 0.407866,-0.232942 1.281617,-0.232942 1.398233,-0.05831 0.116471,0.174779 1.165,1.834962 2.271983,2.068049 1.106837,0.232943 1.718491,0.17478 2.417318,0.46603 0.699116,0.29125 1.631174,1.252462 2.155512,1.223453 0.524047,-0.02915 1.652931,-0.642113 1.834817,-0.611654 0.174779,0.02915 3.465993,2.737867 1.805664,4.834926 0,0 0.496053,3.335597 -0.345062,3.783496 -0.841115,0.447898 -0.338825,0.229316 -0.327801,0.196535 0.01102,-0.03292 0.382483,-0.218437 0.360581,-0.917553 -0.02205,-0.698972 -0.0657,-2.020621 -0.174779,-2.359155 -0.109364,-0.338535 -0.218727,-0.447754 -0.218727,-0.567996 0,-0.120097 1.135991,-1.48555 0.03292,-2.621396 -1.103067,-1.135847 -0.731752,-1.518185 -0.971946,-1.638282 -0.240484,-0.120242 -0.109364,-0.152877 -0.109364,-0.152877 l -1.889499,0.611654 c 0,0 -1.157749,-0.08746 -1.212431,-0.131121 -0.05468,-0.04366 -1.026627,-0.600776 -1.146724,-0.666191 -0.120098,-0.06556 -1.114235,-0.153022 -1.256089,-0.240339 -0.141999,-0.08746 -0.873605,-0.20756 -0.873605,-0.20756 L 17.309274,15.35116 c 0,0 -0.928432,-0.830237 -0.972091,-0.895652 -0.04366,-0.06541 -0.666336,-0.851994 -0.666336,-0.851994 0,0 -0.513314,-0.06556 -0.622532,-0.03278 -0.109074,0.03278 -1.04853,0.349558 -1.04853,0.349558 0,0 -0.884774,0.436876 -0.950334,0.458777 -0.06541,0.0219 -0.895652,0.688238 -0.895652,0.688238 0,0 -0.327656,1.354284 -0.316778,1.408966 0.01102,0.05454 0.360437,1.616526 0.360437,1.616526 z"
     style="clip-rule:evenodd;fill:#cdb4a2;fill-rule:evenodd;stroke-width:0.14504488" />
  <path
     id="path70"
     d="m 26.962591,24.001492 c 1.401714,0.150121 0.901164,0.767577 0.95135,0.917844 0.684176,0.400469 0.350428,1.034605 0.183626,1.184871 -0.600921,0.583951 -0.06686,0.166802 -0.367108,0.917844 -0.300533,0.750898 -1.051576,0.46719 -1.335138,0.350429 -0.283853,-0.116906 -0.534056,-0.317213 -0.98471,-0.383789 -0.450364,-0.06672 -0.333748,0.283708 -0.333748,0.717537 -0.200307,2.586585 -1.318168,3.421029 -1.935769,3.554615 -0.617601,0.133441 -1.335138,-0.5342 -1.268273,-0.684322 0.06687,-0.150121 -0.183626,-0.317068 -0.183626,-0.317068 -0.95135,0.834298 -1.301778,0.03321 -1.301778,0.03321 -1.218087,0.96803 -1.48526,0.283708 -1.48526,0.283708 -1.0011,1.151511 -1.718782,0.233667 -1.718782,0.233667 -0.800938,0.984565 -2.302877,1.184727 -2.302877,1.184727 -2.820253,0.08355 -4.622581,-3.153856 -4.622581,-3.153856 0,0 -2.1527557,-3.688201 -1.4352187,-6.625215 0.7176821,-2.937159 3.0539197,-4.188751 3.1206407,-4.238791 0.06672,-0.05019 0.05004,-0.0834 0.06672,-0.133587 -0.43383,-0.51723 -0.300388,-1.151366 -0.233668,-1.869048 0.06672,-0.717682 0.390896,-1.343696 0.851124,-1.602021 0.548849,-0.30822 0.584821,-0.176229 0.956571,-0.344191 0.37175,-0.167962 1.163405,-0.719713 1.835107,-0.671703 0.239905,0.01204 0.347818,0.119952 0.431799,0.275875 0.08398,0.155924 1.319328,1.655252 2.230935,1.90705 0.911607,0.251798 1.535445,0.155924 2.135206,0.275876 0.599761,0.119952 1.607097,1.175443 2.158993,1.367338 0.287769,0.09602 0.407721,0.07209 0.659809,-0.01189 0.251798,-0.08398 1.48729,-0.479808 1.48729,-0.479808 0,0 0.275586,0.227865 0.359712,0.311846 0.08384,0.08398 1.283357,1.391416 1.355299,1.667291 0.07194,0.275875 0.504031,1.58331 -0.575683,2.566859 -0.179856,0.167962 -0.275875,-0.131991 -0.275875,-0.167962 0,-0.03597 -0.479664,-0.923645 -0.635732,-0.947578 -0.155778,-0.02408 -0.179856,0.479809 -0.56379,0.659664 -0.08384,0.04801 -0.09602,0.143885 0.02408,0.215827 0.119807,0.07194 0.287769,0.347818 0.287769,0.599761 0,0.251943 0.03597,0.707529 0.03597,0.791655 0,0.08413 0.69578,1.307579 0.647625,1.679329 -0.04786,0.37175 0.07194,0.851559 0.203934,0.88753 0.13199,0.03597 0.767722,-0.01204 0.851558,-0.863597 0.08413,-0.851704 -0.09573,-2.638802 -0.191749,-2.818803 -0.09602,-0.18 0.119807,-0.143884 0.263691,-0.527818 0.143885,-0.383934 0.504031,-1.091463 0.432089,-1.691223 -0.07194,-0.599761 0.136777,-0.009 0.136777,-0.009 0.200307,0.584096 -0.534055,2.035995 -0.534055,2.102716 0,0.06672 0.233667,2.636771 0.233667,2.636771 l 0.333749,0.216842 h 0.05033 z"
     style="clip-rule:evenodd;fill:#0a2c5c;fill-rule:evenodd;stroke-width:0.14504488" />
  <path
     id="path72"
     d="m 12.477249,23.884586 c -0.55059,0.200307 -1.084645,1.118151 -1.034605,0.951349 0.283708,-2.086035 0.901164,-2.686811 0.734217,-2.670131 -0.166801,0.01668 -0.834298,0.650816 -0.834298,0.650816 0.367109,-2.870293 3.704736,-4.455634 3.738097,-4.522499 0.03336,-0.06672 -0.567416,-0.0834 -0.567416,-0.0834 0,0 -0.01668,-0.183627 0.200162,-0.417149 0.48561,-0.643564 1.562714,-0.880568 2.113739,-0.961938 -0.0093,-0.002 -0.01813,-0.0042 -0.0277,-0.0059 -0.350429,-0.06672 -2.169437,-0.03336 -2.753532,0.300388 -0.166802,0.06672 -0.550736,1.96913 -0.617457,2.052676 -0.06672,0.0834 -0.283707,0.216987 -0.333748,0.267027 -0.05004,0.05004 -0.734217,-0.701002 -0.734217,-0.701002 0,0 -2.180605,1.579829 -2.4921611,3.582319 0,0 0.4895261,-0.489527 1.0457731,-0.667497 0,0 -1.6243572,1.624358 -1.4323177,4.210943 0,0 0.4213553,-1.055491 0.8844837,-1.51862 0,0 -0.6342813,3.103961 0.208574,4.080258 0,0 -0.10008,-1.176459 0.45051,-1.802328 0,0 -0.508963,3.546057 2.086035,4.6059 0.102257,0.04177 0.203643,0.07716 0.304014,0.107624 -3.377805,-2.101991 -0.93815,-7.458788 -0.93815,-7.458788 z"
     style="clip-rule:evenodd;fill:#cdb4a2;fill-rule:evenodd;stroke-width:0.14504488" />
  <path
     id="path74"
     d="m 14.646685,23.100328 c 0,0 1.101326,-0.884484 1.218232,-1.034605 0.116761,-0.150267 -1.318313,0.317068 -1.985809,0.567415 0,0 1.51862,-1.101325 2.619946,-1.451899 0.166946,-0.06672 -0.800938,-0.450509 -1.168047,-1.234912 0,0 0.700857,0.367109 1.368354,0.317068 0.100081,0 -0.216988,-0.650816 -0.233668,-1.201552 0,0 1.118151,2.05253 3.354163,1.702102 2.236302,-0.350428 0.200307,-2.770212 -0.133441,-2.937159 0,0 -1.0011,0.0834 -1.652206,-0.617456 0,0 0.183626,0.867804 1.60202,1.084791 0,0 -0.283562,0.467334 -0.784112,0.317068 -0.50084,-0.150122 -1.034896,-0.767578 -1.318458,-1.168047 -0.241355,-0.340855 -0.350429,-0.500114 -0.593234,-0.581194 A 1.0408421,1.0408421 0 0 0 16.827,16.831633 c -0.551025,0.08151 -1.628129,0.318374 -2.113739,0.961938 -0.216987,0.233522 -0.200162,0.417149 -0.200162,0.417149 0,0 0.600776,0.01668 0.567416,0.0834 -0.03336,0.06672 -3.370988,1.652206 -3.738097,4.522499 0,0 0.667497,-0.634136 0.834298,-0.650816 0.166947,-0.01668 -0.450509,0.584096 -0.734217,2.670131 -0.05004,0.166802 0.484015,-0.751042 1.034605,-0.951349 0,0 -2.439655,5.356797 0.938295,7.458788 0.04511,0.01378 0.08993,0.0264 0.134457,0.03786 2.385843,0.614265 4.23444,-1.837573 4.517713,-3.599869 0,-0.100081 0.05831,-0.133441 -0.50055,-0.06672 -0.559148,0.06672 -0.400614,0.09181 -0.484015,0.175214 -0.08355,0.0834 -0.909576,1.685421 -1.727194,2.252837 -0.817763,0.567271 -1.168192,0.07513 -1.334993,-0.208575 0,0 0.200162,0.292121 0.563209,0.250348 0.362902,-0.04163 1.481053,-0.767578 1.848162,-1.727049 0.03757,-0.0834 -0.191895,0.141853 -0.408882,0.183626 -0.216987,0.04163 -0.542322,0.0792 -0.705063,-0.246141 -0.0293,-0.02915 -0.398873,0.511428 -0.567415,0.679971 -0.452685,0.452685 -0.888545,1.101325 -1.422601,0.800937 -0.534055,-0.300388 -0.634136,-0.700856 -0.500694,-1.56866 0,0 -0.06672,1.301778 0.567415,1.251592 0.634136,-0.05004 1.627114,-1.260005 1.702102,-1.334993 0.07513,-0.07513 -0.784258,-0.617456 -0.784258,-0.617456 0,0 -0.584096,0.767723 -1.034605,0.734217 -0.166802,0 -0.333748,-0.250347 -0.250348,-0.700856 0,0 -0.03336,0.617456 0.283708,0.500549 0.317068,-0.116906 1.03475,-0.617456 1.118151,-1.01807 0.0834,-0.400469 0.0834,-0.400469 0.0834,-0.567415 0,-0.166802 -0.358841,-0.367109 -0.358841,-0.525498 0,-0.158679 0.421355,-0.580034 0.563209,-0.721888 0.141854,-0.141999 1.080585,-0.271234 1.180666,-0.271234 0.100081,0 1.284952,-1.768822 1.485259,-1.969129 0.200307,-0.200307 -0.362322,0.122708 -0.584096,0.233667 -0.233667,0.116761 -2.102715,1.234912 -2.302877,1.435219 0,0 2.236157,-2.853613 6.241281,-2.820253 0.133877,-0.01682 -2.736707,-0.684321 -6.091015,1.184727 z"
     style="clip-rule:evenodd;fill:#b6917e;fill-rule:evenodd;stroke-width:0.14504488" />
  <path
     id="path76"
     d="m 18.101509,21.197629 c -0.06715,0.16187 -0.229461,0.254409 -0.434264,0.200597 -0.213651,-0.05628 -0.116761,-0.362032 -0.0306,-0.555812 -0.06237,-0.104432 -0.188704,-0.283707 -0.252959,-0.211765 -0.283853,0.317068 -0.517375,0.650816 0,0.967884 0.51723,0.317068 0.867659,-0.250347 0.867659,-0.250347 0,0 0.01668,-0.266448 -0.149832,-0.150557 z"
     style="clip-rule:evenodd;fill:#ffffff;fill-rule:evenodd;stroke-width:0.14504488" />
  <path
     id="path78"
     d="m 17.667245,21.398226 c 0.204803,0.05381 0.367109,-0.03873 0.434264,-0.200597 l -2.9e-4,2.9e-4 c -0.166801,0.116906 -0.317068,0.100081 -0.383788,-0.01668 -0.06687,-0.116761 -0.01668,-0.216842 -0.05019,-0.283708 a 0.79542612,0.79542612 0 0 0 -0.0306,-0.05512 c -0.08616,0.193635 -0.183047,0.499535 0.0306,0.555812 z"
     style="clip-rule:evenodd;fill:#ad3652;fill-rule:evenodd;stroke-width:0.14504488" />
  <path
     id="path80"
     d="m 23.608138,21.331361 c -0.04076,-0.109219 -0.137647,-0.08442 -0.180436,-0.04424 0.106173,0.135762 0.04076,0.347382 -0.06962,0.394667 -0.20872,0.07949 -0.399744,-0.08964 -0.520131,-0.239324 -0.104577,0.05642 -0.251798,0.149831 -0.297777,0.172603 0,0 0.133731,0.467335 0.667786,0.400469 0.533911,-0.06672 0.45022,-0.550735 0.400179,-0.684176 z"
     style="clip-rule:evenodd;fill:#ffffff;fill-rule:evenodd;stroke-width:0.14504488" />
  <path
     id="path82"
     d="m 23.357936,21.681789 c 0.110524,-0.04743 0.175939,-0.25905 0.06962,-0.394667 a 0.0736828,0.0736828 0 0 0 -0.01987,0.02756 c -0.01639,0.05004 0.03336,0.267028 -0.166801,0.267028 -0.200017,0 -0.250203,-0.183627 -0.300243,-0.183627 -0.01581,0 -0.05468,0.01813 -0.102837,0.04424 0.120387,0.149831 0.311411,0.318954 0.520131,0.239469 z"
     style="clip-rule:evenodd;fill:#ad3652;fill-rule:evenodd;stroke-width:0.14504488" />
  <path
     id="path84"
     d="m 16.048544,25.119498 c 0,0 1.301633,-2.286198 2.853468,-2.452999 0,0 -1.017925,0.383788 -2.06921,2.920333 0,-1.45e-4 -0.183482,0.116761 -0.784258,-0.467334 z"
     style="clip-rule:evenodd;fill:#b6917e;fill-rule:evenodd;stroke-width:0.14504488" />
  <path
     id="path86"
     d="m 16.916203,25.653408 c -0.06454,0.154038 0.801083,0.05019 0.884628,0.03336 0.08326,-0.01668 0.233378,-0.51723 0.400324,-0.717537 0.166947,-0.200307 -0.183627,0.550736 -0.133441,0.650817 0.133441,0.01668 0.367109,0.01668 0.367109,0.01668 0,0 0.200307,-0.834443 1.001389,-0.851124 v -1.251592 c 0,0 0.116762,-0.350428 1.067966,1.251592 0,0 1.58534,0.200307 1.835398,-0.534055 0.08355,-0.283563 -0.166802,-0.634136 -0.266883,-0.734217 -0.100226,-0.100081 0.183627,-0.801083 -0.400614,-0.734217 -0.584241,0.06686 -0.06686,0.350428 -0.06686,0.48387 0,0.133441 -0.300243,0.267027 -0.433685,0.200306 -0.133441,-0.06672 -0.617601,-0.400468 -0.700857,-0.567415 -0.08355,-0.166802 0.01668,-0.417149 0.350429,-0.51723 0.333748,-0.100081 0.584096,-0.01668 0.951059,0.06672 0.367399,0.0834 1.00139,-0.03322 1.201697,-0.116762 0.200307,-0.08355 -0.116761,-0.133441 -0.383789,-0.100081 -0.266882,0.03322 -0.550735,0.116762 -0.850978,0.0834 -0.300533,-0.03336 -0.584096,-0.233522 -0.934524,-0.150121 -0.350429,0.0834 -0.717537,0.216987 -0.700857,0.584096 1.45e-4,0 -1.785503,-0.433975 -3.187506,2.903508 z"
     style="clip-rule:evenodd;fill:#b6917e;fill-rule:evenodd;stroke-width:0.14504488" />
  <path
     id="path88"
     d="m 23.024188,22.8333 c 0.08326,0.150267 0.0499,0.233668 -0.08355,0.333749 -0.133442,0.100081 0.100226,0.216987 0.267172,0.367108 0.166802,0.150267 0.50055,-0.06672 0.450365,-0.317068 0,0 0.650961,-0.05019 0.901164,0.751042 0,0 -0.317069,0.350429 -0.333749,0.50055 -0.01668,0.150122 -0.400614,0.350429 -0.634281,0.283563 -0.233377,-0.06672 -0.567125,-0.467189 -0.750752,-0.784113 C 22.656934,23.650918 22.23964,23.450756 22.523203,23.116863 22.8072,22.78326 23.024188,22.8333 23.024188,22.8333 Z"
     style="clip-rule:evenodd;fill:#b6917e;fill-rule:evenodd;stroke-width:0.14504488" />
  <path
     id="path90"
     d="m 19.653054,23.884586 c 0,0 0.801083,0.934524 0.867659,1.334993 0.03336,0.133586 -0.283563,0.116906 -0.450364,0.200307 -0.166802,0.0834 -0.267173,0.183626 -0.350429,0.200307 -0.08355,0.01668 -0.133441,-0.150122 -0.133441,-0.317214 0,-0.166801 0.06658,-1.418393 0.06658,-1.418393 z"
     style="clip-rule:evenodd;fill:#ffffff;fill-rule:evenodd;stroke-width:0.14504488" />
  <path
     id="path92"
     d="m 21.505568,18.856025 c 0,-0.169413 1.335138,0.800937 2.047018,0.333748 0.111395,-0.08891 0.244836,0.734217 -0.467189,0.689833 -0.712171,-0.04453 -1.023872,-0.400614 -1.023872,-0.400614 0,0 0.623258,1.334993 2.292144,0.578584 0,0 -0.400614,1.246081 -1.668886,0.845612 -1.268273,-0.400614 -1.179215,-1.312801 -1.179215,-2.047163 z m 1.468579,-1.490772 c 0,0 0.02234,0.222499 0.111395,0.244836 0.08906,0.02234 1.21214,-0.495473 1.379376,-0.556247 0.09515,-0.03467 0.06571,-0.206254 -0.0821,-0.153022 -0.147801,0.05323 -1.159779,0.443692 -1.420134,0.443692 z m 1.735317,0.995733 c -0.05018,0.233668 -0.183627,0.917844 -0.03336,1.134832 0.150411,0.216987 0.801083,0.984564 0.751042,1.268272 -0.04989,0.283708 0.267173,-0.250347 -0.03322,-0.800938 -0.300533,-0.550735 -0.51752,-0.867803 -0.584096,-1.284952 -0.06687,-0.41744 -0.100371,-0.317214 -0.100371,-0.317214 z m -9.094749,-4.622725 c -0.07136,-0.136197 -0.250493,0.417149 -0.233667,0.484015 0.01668,0.06672 0.450509,0.433829 0.650816,0.584096 0.200162,0.150121 0.617456,0.584095 0.817763,0.584095 0.200307,0 -0.166802,-0.250347 -0.383789,-0.433974 -0.217132,-0.183482 -0.667641,-0.867658 -0.851123,-1.218232 z m -1.502085,0.250493 c 0.157084,-0.01262 -0.567415,0.567415 -0.600776,0.700856 -0.03336,0.133587 -0.183627,-0.133441 -0.51723,0.133587 -0.333893,0.267027 -0.884483,1.134686 -0.851123,1.58534 0.03336,0.450655 -0.350429,-0.617456 0.283708,-1.401858 0.317068,-0.267028 0.767577,-0.584096 1.01807,-0.667497 0.250202,-0.08355 0.250202,-0.317068 0.667351,-0.350428 z"
     style="clip-rule:evenodd;fill:#b6917e;fill-rule:evenodd;stroke-width:0.14504488" />
  <path
     id="path94"
     d="m 17.725263,26.126109 c 0,0 1.132655,-0.215101 1.589257,-0.216407 0.03365,-0.02843 0.06861,-0.05338 0.105157,-0.07267 0.106463,-0.05599 -0.267172,-0.05004 -0.267172,-0.05004 0,0 -1.98581,0.200307 -2.236157,0.200307 -0.250348,0 -1.017925,-0.717537 -1.168192,-0.751042 -0.150121,-0.03322 -0.55059,0.0834 -0.750897,0.233667 -0.200307,0.150122 -0.617456,0.333748 -0.600776,0.50055 0.01668,0.166802 0.383789,0.51723 0.383789,0.600776 0,0.08355 -0.233668,0.751042 -0.06672,1.06811 0.01015,0.01915 0.02118,0.03728 0.03307,0.05454 0.131846,0.08471 0.348543,0.190299 0.459938,0.06019 0.166946,-0.194795 0.111394,-0.306045 0.111394,-0.306045 0,0 0.04177,-0.153022 0.09747,-0.236568 0.0557,-0.0834 0.09747,-0.403515 0.09747,-0.403515 0,0 0.153023,0.125174 0.153023,0.166947 0,0.04163 0,0.626159 0.04177,0.654007 0.04177,0.02785 0.375666,0.0557 0.375666,0.0557 0,0 0.181016,-0.01392 0.236568,-0.194795 0.0557,-0.181016 0.0557,-0.431508 0.0557,-0.431508 0,0 0.167092,0.08355 0.222644,0.208719 0.05555,0.125174 0.222644,0.04163 0.334039,-0.0557 0.111249,-0.09747 0.222644,-0.125174 0.50113,-0.125174 0.278196,0 0.38959,-0.0557 0.38959,-0.0557 0,0 0.30619,-0.01407 0.40366,0 0.09747,0.01392 0.236278,-0.09761 -0.111394,-0.125319 -0.348108,-0.0277 0.264271,-0.111394 0.612234,-0.04163 0.01813,0.0035 0.03365,0.0075 0.04873,0.01175 0.03771,-0.0528 0.06542,-0.105738 0.07615,-0.153893 0.02016,-0.09152 0.109073,-0.337954 0.247011,-0.554361 -0.377842,0.01813 -1.072172,0.0396 -1.374155,-0.0409 z m -1.21069,0.333893 c -0.208719,-0.0834 -0.48706,0.181017 -0.445432,0.08355 0.04177,-0.09733 -0.264417,-0.542613 -0.361742,-0.59831 0,0 0.292265,-0.09747 0.431363,-0.04177 0.139243,0.0557 0.584531,0.640083 0.375811,0.556537 z"
     style="clip-rule:evenodd;fill:#ffffff;fill-rule:evenodd;stroke-width:0.14504488" />
  <path
     id="path96"
     d="m 18.115144,26.90529 c 0.347527,0.0277 0.208719,0.139243 0.111394,0.125319 -0.09747,-0.01407 -0.40366,0 -0.40366,0 0,0 -0.111394,0.0557 -0.38959,0.0557 -0.278487,0 -0.389881,0.0277 -0.50113,0.125174 -0.111395,0.09732 -0.278342,0.180871 -0.334039,0.0557 -0.0557,-0.125173 -0.222644,-0.208719 -0.222644,-0.208719 0,0 0,0.250492 -0.0557,0.431508 -0.0557,0.180871 -0.236568,0.194795 -0.236568,0.194795 0,0 -0.333893,-0.0277 -0.375666,-0.0557 -0.04177,-0.0277 -0.04177,-0.612379 -0.04177,-0.654007 0,-0.04177 -0.153023,-0.166947 -0.153023,-0.166947 0,0 -0.04177,0.320114 -0.09747,0.403515 -0.0557,0.08355 -0.09747,0.236568 -0.09747,0.236568 0,0 0.0557,0.111395 -0.111394,0.306045 -0.11154,0.130105 -0.328092,0.02451 -0.459938,-0.06019 0.183337,0.269929 0.559148,0.324321 0.684612,0.245706 0.133441,-0.0834 0.01668,0.534056 0.701002,0.350429 0.283708,-0.133441 0.417149,-0.350429 0.51723,-0.867659 0,0 1.001245,-0.216842 1.184727,-0.200307 0.183626,0.01668 0.484159,0.01668 0.634281,-0.06672 0.102257,-0.05671 0.22743,-0.167672 0.30764,-0.280082 a 0.58960744,0.58960744 0 0 0 -0.04874,-0.01175 c -0.347818,-0.06962 -0.960342,0.01392 -0.612089,0.04163 z m -1.976237,-1.001825 c -0.139098,-0.0557 -0.431363,0.04177 -0.431363,0.04177 0.09732,0.0557 0.403515,0.500985 0.361742,0.59831 -0.04177,0.09747 0.236713,-0.166946 0.445432,-0.08355 0.208575,0.08355 -0.236713,-0.500839 -0.375811,-0.556537 z m 3.175613,0.0062 c -0.456602,0.0013 -1.589257,0.216407 -1.589257,0.216407 0.301983,0.0805 0.996313,0.05903 1.37401,0.04105 0.06222,-0.09762 0.134602,-0.188994 0.215247,-0.257455 z"
     style="clip-rule:evenodd;fill:#cdb4a2;fill-rule:evenodd;stroke-width:0.14504488" />
  <path
     id="path98"
     d="m 27.355228,26.557473 c 0.06948,-0.166802 0.125173,-0.222644 0.0277,-0.445143 -0.09747,-0.222644 0.01393,-0.20872 0.125174,-0.20872 0.111249,0 0.417584,-0.06948 0.515054,-0.139243 0.02741,-0.01973 0.05236,-0.03539 0.07455,-0.0467 0.0029,-0.334764 -0.173618,-0.618181 -0.351008,-0.714781 -0.183337,-0.100081 -0.03322,-0.43383 -0.150122,-0.550736 -0.116761,-0.116906 -0.550735,-0.267027 -0.684176,-0.283708 -0.133442,-0.01668 -0.233668,0 -0.450365,0.233523 -0.216987,0.233667 -0.534055,0.600921 -0.734217,0.701002 -0.200162,0.100081 -1.101471,0.367108 -1.101471,0.367108 0.01305,0.0132 0.03147,0.03699 0.05178,0.06861 0.365658,-0.04235 1.035186,-0.0805 1.035186,-0.0805 -0.292411,0.02785 -0.946418,0.236713 -0.946418,0.236713 l -0.0068,-0.0013 c 0.057,0.129961 0.107913,0.304014 0.110234,0.500405 0.260065,-0.0045 0.768883,-0.02089 0.982099,-0.08166 0.29212,-0.08355 0.264271,-0.222644 0.375666,-0.361742 0.111394,-0.139243 0.417584,-0.417584 0.417584,-0.417584 0,0 0.08326,0.278341 0.08326,0.375666 0,0.09761 -0.180726,0.111394 -0.208575,0.264417 -0.02799,0.153167 -0.01421,0.375666 -0.04192,0.459212 -0.0277,0.0834 -0.19465,0.19494 -0.264271,0.278486 -0.01218,0.0145 -0.04308,0.02712 -0.08587,0.03844 0.05613,0.03525 0.110234,0.07557 0.163756,0.120242 0.106753,-0.173183 0.2283,-0.367398 0.2283,-0.367398 0,0 0.765112,0.222353 0.834879,0.05541 z"
     style="clip-rule:evenodd;fill:#ffffff;fill-rule:evenodd;stroke-width:0.14504488" />
  <path
     id="path100"
     d="m 25.713175,25.458178 c 0,0 -0.669383,0.03815 -1.035186,0.0805 0.02524,0.03931 0.0541,0.09181 0.08181,0.154908 l 0.0068,0.0013 c 0,0 0.654297,-0.208865 0.946563,-0.236713 z m 0.765256,0.974121 c 0.0277,-0.08355 0.01393,-0.306045 0.04192,-0.459212 0.0277,-0.153168 0.208575,-0.166802 0.208575,-0.264417 0,-0.09733 -0.08326,-0.375666 -0.08326,-0.375666 0,0 -0.30619,0.278341 -0.417584,0.417584 -0.111395,0.139098 -0.08355,0.278196 -0.375666,0.361742 -0.213361,0.06092 -0.722179,0.07716 -0.982099,0.08166 a 1.1219221,1.1219221 0 0 1 -0.06034,0.377407 c -0.03336,0.116906 0.534055,0.01668 0.867659,0.03336 0.180726,0.009 0.321854,0.06324 0.450654,0.14432 0.04279,-0.01131 0.07368,-0.02393 0.08587,-0.03844 0.06962,-0.08355 0.236423,-0.19494 0.264271,-0.278341 z m 0.734218,0.706514 c 0,0 0.467479,-0.200307 0.450654,-0.834444 0.150121,-0.200162 0.417294,-0.200162 0.433974,-0.55059 5.8e-4,-0.01218 2.9e-4,-0.02422 2.9e-4,-0.03626 a 0.62934973,0.62934973 0 0 0 -0.07455,0.0467 c -0.09747,0.06962 -0.40366,0.139243 -0.515054,0.139243 -0.111395,0 -0.222644,-0.01392 -0.125174,0.20872 0.09747,0.222499 0.04163,0.278341 -0.0277,0.445143 -0.06962,0.166946 -0.834879,-0.05555 -0.834879,-0.05555 0,0 -0.121547,0.194216 -0.2283,0.367399 0.05077,0.04221 0.101096,0.08761 0.153312,0.136052 0.233522,0.216987 0.767433,0.133587 0.767433,0.133587 z"
     style="clip-rule:evenodd;fill:#cdb4a2;fill-rule:evenodd;stroke-width:0.14504488" />
  <path
     id="path102"
     d="m 24.814912,23.934916 c 0.04047,0.04032 -0.148381,0.519116 -0.20901,1.334558 0,0 -0.545949,0.01349 -0.532605,-0.303434 0.01349,-0.316633 0.741615,-1.031124 0.741615,-1.031124 z m -3.760144,0.962518 c -0.04424,-0.0039 -0.222064,0.144465 -0.288639,0.277616 0,0 0,0.166366 0.271959,0.166366 0.271959,0 0.260936,-0.144319 0.260936,-0.144319 0,0 -0.183337,-0.294006 -0.244256,-0.299663 z m 0.643709,0.01117 c -0.04424,-0.0039 -0.221773,0.14432 -0.288639,0.277616 0,0 0,0.166367 0.271959,0.166367 0.272249,0 0.260936,-0.14432 0.260936,-0.14432 0,0 -0.183337,-0.294151 -0.244256,-0.299663 z m 0.753509,0.02669 c -0.04424,-0.0016 -0.213652,0.156503 -0.27254,0.29328 0,0 0.009,0.166222 0.280807,0.150992 0.271379,-0.01508 0.252378,-0.158824 0.252378,-0.158824 0,0 -0.199437,-0.283128 -0.260645,-0.285448 z m 0.643854,-0.03873 c -0.105883,-0.0038 -0.329977,0.425852 -0.27283,0.293135 0,0 0.0093,0.166222 0.281097,0.150992 0.271379,-0.01508 0.252378,-0.158679 0.252378,-0.158679 0,0 -0.199436,-0.283418 -0.260645,-0.285448 z m 0.456456,-0.03249 c 0,0 -0.09994,0.260935 -0.06092,0.360726 0,0 0.299663,0.04453 0.40511,-0.03321 0,0 -0.160854,-0.344046 -0.344191,-0.327511 z"
     style="clip-rule:evenodd;fill:#ffffff;fill-rule:evenodd;stroke-width:0.14504488" />
  <path
     id="path104"
     d="m 19.458404,25.108474 c 0,0 -0.322725,0 -0.622968,0.389591 0,0 0.266883,0.278051 0.600921,0 z m 2.481138,-0.03336 c 0,0 0.09994,0.06672 0.03322,0.200162 h 0.17826 c 0,0 -0.03336,-0.21133 0.01102,-0.222499 0.04438,-0.01102 -0.189429,-0.04453 -0.222499,0.02234 z m 0.656328,-0.289365 c -0.0921,0.07789 -0.01131,0.200307 -0.01131,0.200307 0,0 0.189283,0.144755 0.167091,0.278197 0,0 0.133442,-0.278197 0.188994,-0.311557 0,-1.45e-4 -0.200307,-0.289219 -0.344772,-0.166947 z"
     style="clip-rule:evenodd;fill:#ad3652;fill-rule:evenodd;stroke-width:0.14504488" />
  <path
     id="path106"
     d="m 24.654347,26.821454 c -0.01015,-0.176229 -0.766852,0.247882 -0.856925,0.710285 -0.09036,0.462403 -0.124014,0.631526 -0.180436,1.04882 -0.05642,0.417294 -0.06774,1.08276 -0.158099,1.094073 -0.09007,0.01131 -0.03365,-0.451089 -0.202773,-0.281822 -0.169122,0.168977 -0.1127,0.507512 -0.270798,0.608898 -0.157809,0.101532 -0.07876,-0.169122 -0.259196,-0.112699 -0.180435,0.05642 -0.496343,0.293135 -0.552766,0.304594 -0.05642,0.01117 0.259486,0.51868 0.766853,0.428462 0.507367,-0.09022 1.86078,-1.251737 1.71414,-3.800611 z"
     style="clip-rule:evenodd;fill:#b6917e;fill-rule:evenodd;stroke-width:0.14504488" />
  <path
     id="path108"
     d="m 15.319839,18.922745 c -0.05381,0.03945 0.823274,-0.756554 1.179215,-1.090302 0.356085,-0.333748 0.511863,-0.467335 0.778891,-0.155778 0.266882,0.311411 0.979053,2.224988 2.692323,1.60202 0.244835,-0.04453 0.200017,0.155779 0.04453,0.28922 -0.155778,0.133441 -1.490916,0.801083 -3.003879,-1.357185 -0.08891,-0.111249 -1.35733,0.467335 -1.691078,0.712025 z"
     style="clip-rule:evenodd;fill:#0a2c5c;fill-rule:evenodd;stroke-width:0.14504488" />
  <path
     id="path110"
     d="m 22.997644,27.793255 c -0.03771,0.06193 -0.06237,0.117776 -0.06803,0.163176 0,0 0.02669,-0.06803 0.06803,-0.163176 z"
     style="clip-rule:evenodd;fill:#d8bcad;fill-rule:evenodd;stroke-width:0.14504488" />
  <path
     id="path112"
     d="m 20.615427,26.465804 c 0.622968,-0.133586 2.35872,0.400469 2.803718,0.444853 0.444997,0.04438 1.134831,-0.200307 1.0011,-0.734217 a 0.63065514,0.63065514 0 0 0 -0.06658,-0.162305 c -0.04105,0.04148 -0.08616,0.06861 -0.08616,0.06861 0,0 -0.272249,-0.104723 -0.607158,-0.104723 -0.334908,0 0.02103,0.334909 -0.104577,0.334909 -2.393531,-0.897538 -3.55534,-0.34071 -4.053569,0.106608 -0.149541,0.169702 -0.286754,0.386109 -0.422081,0.669092 -0.489526,1.023727 -0.645304,1.779991 -0.845611,2.091692 -0.333749,0.578439 -0.46719,0.889996 -0.600921,1.045774 -0.133442,0.155778 0.06686,0.422806 0.06686,0.422806 0.244836,0.155778 0.756699,-0.133587 1.17936,-0.712026 0.422661,-0.578439 0.333748,-0.712025 0.333748,-0.712025 0,0 0.46748,-0.333748 0.489527,-0.845467 0.02205,0.11125 -0.04453,1.379667 -0.444998,1.824665 0,0 1.46858,-0.04467 2.113884,-1.513253 0.04453,0.200307 -0.222644,1.045918 -0.400614,1.201552 0,0 1.0011,-0.133442 1.557492,-0.956716 0.08891,-0.04467 0,0.267027 -0.08891,0.400468 -0.08891,0.133587 0.422661,0.200307 0.71188,-0.467334 0.28922,-0.667497 0.333748,-1.312801 0.534055,-1.490771 0.200307,-0.177971 0.06687,-0.422661 -0.17797,-0.177971 -0.182176,0.182032 -0.401194,0.413378 -0.510558,0.593234 -0.04134,0.095 -0.06803,0.163176 -0.06803,0.163176 0.0057,-0.0454 0.03031,-0.101242 0.06803,-0.163176 0.07223,-0.165641 0.188994,-0.413378 0.288059,-0.526513 0.155489,-0.17826 -0.0892,-0.17826 -0.267172,-0.17826 -0.17797,0 -0.311557,-0.200162 -0.556392,0.02234 -0.244546,0.222499 -0.511574,0.667641 -0.511574,0.667641 0,0 -0.02234,-0.511718 0.356085,-0.778746 0.08891,-0.04467 -1.42405,-0.689833 -2.180749,0.155634 2.9e-4,1.45e-4 -0.133152,-0.555957 0.489816,-0.689544 z"
     style="clip-rule:evenodd;fill:#b6917e;fill-rule:evenodd;stroke-width:0.14504488" />
  <path
     id="path114"
     d="m 23.557663,26.315828 c 0.125463,0 -0.230332,-0.334909 0.104577,-0.334909 0.335199,0 0.607158,0.104578 0.607158,0.104578 0,0 0.04525,-0.02698 0.08645,-0.06846 -0.224965,-0.387269 -0.834008,-0.43818 -1.268563,-0.2605 l 0.111104,0.178115 c 0,0 -1.023581,-0.422806 -2.06921,-0.222499 -0.756409,0.144755 -1.233461,0.266738 -1.624938,0.71014 0.498085,-0.447319 1.659894,-1.004001 4.053425,-0.106463 z m -6.394739,-7.902625 c 0,0 0.45109,1.414767 1.710369,1.63248 1.25957,0.217567 1.368354,-0.342016 1.25957,-0.715217 -1.45e-4,1.46e-4 -1.943892,0.699697 -2.969939,-0.917263 z m 4.913105,1.134976 c 0,0 0.450655,2.300992 2.300847,0.450799 -0.373055,1.45e-4 -1.21272,0.964114 -2.300847,-0.450799 z M 6.2211734,20.042782 5.8531945,19.783732 Z m 1.8446808,0.363917 2.9e-4,-4.35e-4 -0.063675,-0.01741 z"
     style="clip-rule:evenodd;fill:#cdb4a2;fill-rule:evenodd;stroke-width:0.14504488" />
  <path
     id="path116"
     d="m 24.892511,26.838715 0.11357,0.966724 c 0,0 0.61412,-0.238744 0.61412,-0.329832 0,-0.09094 0.318373,-0.750462 0.318373,-0.750462 z"
     style="clip-rule:evenodd;fill:#0a2c5c;fill-rule:evenodd;stroke-width:0.14504488" />
</svg>
