<?xml version="1.0" encoding="UTF-8" standalone="no"?>
<svg
   xmlns="http://www.w3.org/2000/svg"
   id="svg115"
   version="1.1"
   viewBox="0 0 49.948635 74.719833"
   height="597.75867"
   width="399.58908">
  <path
     style="fill:#ffffff;fill-rule:evenodd;stroke-width:0.57742709"
     id="path2-3"
     d="M 8.4623713,0.20639934 H 41.486263 c 4.57434,0 8.255974,3.68163296 8.255974,8.25597296 V 66.257456 c 0,4.57385 -3.681634,8.25598 -8.255974,8.25598 H 8.4623713 c -4.574012,0 -8.25597196,-3.68229 -8.25597196,-8.25598 V 8.4623723 c 0,-4.57434 3.68195996,-8.25597296 8.25597196,-8.25597296 z" />
  <path
     style="fill:none;stroke:#000000;stroke-width:0.41279867"
     id="path4-6"
     d="M 8.4623713,0.20639934 H 41.486263 c 4.57434,0 8.255974,3.68163296 8.255974,8.25597296 V 66.257456 c 0,4.57385 -3.681634,8.25598 -8.255974,8.25598 H 8.4623713 c -4.574012,0 -8.25597196,-3.68229 -8.25597196,-8.25598 V 8.4623723 c 0,-4.57434 3.68195996,-8.25597296 8.25597196,-8.25597296 z" />
  <path
     style="fill:#ff0000;fill-rule:evenodd;stroke-width:0.57742709"
     id="path8-6"
     d="m 37.360078,16.714465 c -18.23876,0 -33.0238917,14.785624 -33.0238917,33.023891 0,4.55994 3.695709,8.25598 8.2559727,8.25598 18.23876,0 33.023891,-14.78612 33.023891,-33.023897 0,-4.559936 -3.696037,-8.255974 -8.255972,-8.255974 z" />
  <path
     d="M 5.2527756,4.7999426 V 5.5652759 H 5.9714422 V 9.4759425 H 5.2527756 V 10.241276 H 8.1087755 V 9.4759425 H 6.7834422 V 8.2532759 h 0.3266667 c 1.0919999,0 1.4279999,-0.018667 1.9319999,-0.308 0.4293333,-0.2426667 0.7373333,-0.8306667 0.7373333,-1.3813333 0,-0.616 -0.364,-1.2133333 -0.8773333,-1.5026666 -0.364,-0.2053334 -0.756,-0.2613334 -1.4186666,-0.2613334 z m 2.2399999,0.7653333 c 0.616,0 0.8026667,0.056 0.9893333,0.1586667 0.224,0.1213333 0.4386667,0.4293333 0.4386667,0.812 0,0.4013333 -0.2333333,0.6813333 -0.3733333,0.756 -0.224,0.1213333 -0.4386667,0.1959999 -1.428,0.1959999 h -0.336 V 5.5652759 Z"
     style="font-style:normal;font-variant:normal;font-weight:bold;font-stretch:normal;font-size:9.33333302px;line-height:1.25;font-family:Courier;-inkscape-font-specification:'Courier Bold';letter-spacing:0px;word-spacing:0px;fill:#000000;fill-opacity:1;stroke:none;stroke-width:0.125"
     id="path71" />
  <path
     d="m 10.51313,4.7999426 v 0.7653333 h 0.774666 V 9.4759425 H 10.51313 v 0.7653335 h 4.741333 V 8.2159425 h -0.774667 l -0.04667,1.26 h -2.33333 V 7.7586092 h 1.101334 v 0.6626666 h 0.774666 V 6.3212759 H 13.20113 v 0.672 h -1.101334 v -1.428 h 2.249333 l 0.084,1.2506667 h 0.774667 l -0.04667,-2.016 z"
     style="font-style:normal;font-variant:normal;font-weight:bold;font-stretch:normal;font-size:9.33333302px;line-height:1.25;font-family:Courier;-inkscape-font-specification:'Courier Bold';letter-spacing:0px;word-spacing:0px;fill:#000000;fill-opacity:1;stroke:none;stroke-width:0.125"
     id="path73" />
  <path
     d="m 16.01615,4.7999426 v 0.7653333 h 0.728 v 3.9106666 h -0.728 v 0.7653335 h 2.352 V 9.4759425 h -0.812 V 7.9172759 h 0.476 c 0.298667,0 0.410667,0.112 0.802667,0.6999999 0.01867,0.028 0.541333,0.8306667 0.905333,1.6240002 h 1.437333 V 9.4759425 H 20.30015 c -0.634666,-1.0733333 -0.821333,-1.344 -1.045333,-1.652 1.194666,-0.3546666 1.204,-1.3066666 1.204,-1.4933332 0,-0.4946667 -0.252,-0.9986667 -0.616,-1.2506667 -0.373333,-0.2613333 -0.756,-0.28 -1.334667,-0.28 z m 2.492,0.7653333 c 0.672,0 1.092,0.1213334 1.092,0.7373334 0,0.9053333 -1.036,0.8493333 -1.353333,0.8493333 H 17.55615 V 5.5652759 Z"
     style="font-style:normal;font-variant:normal;font-weight:bold;font-stretch:normal;font-size:9.33333302px;line-height:1.25;font-family:Courier;-inkscape-font-specification:'Courier Bold';letter-spacing:0px;word-spacing:0px;fill:#000000;fill-opacity:1;stroke:none;stroke-width:0.125"
     id="path75" />
  <path
     d="m 21.612505,4.7999426 v 0.7653333 h 0.728 v 3.9106666 h -0.728 v 0.7653335 h 2.352 V 9.4759425 h -0.812 V 7.9172759 h 0.476 c 0.298666,0 0.410666,0.112 0.802666,0.6999999 0.01867,0.028 0.541334,0.8306667 0.905334,1.6240002 h 1.437333 V 9.4759425 h -0.877333 c -0.634667,-1.0733333 -0.821334,-1.344 -1.045334,-1.652 1.194667,-0.3546666 1.204,-1.3066666 1.204,-1.4933332 0,-0.4946667 -0.252,-0.9986667 -0.616,-1.2506667 -0.373333,-0.2613333 -0.756,-0.28 -1.334666,-0.28 z m 2.492,0.7653333 c 0.672,0 1.092,0.1213334 1.092,0.7373334 0,0.9053333 -1.036,0.8493333 -1.353334,0.8493333 H 23.152505 V 5.5652759 Z"
     style="font-style:normal;font-variant:normal;font-weight:bold;font-stretch:normal;font-size:9.33333302px;line-height:1.25;font-family:Courier;-inkscape-font-specification:'Courier Bold';letter-spacing:0px;word-spacing:0px;fill:#000000;fill-opacity:1;stroke:none;stroke-width:0.125"
     id="path77" />
  <path
     d="m 27.180858,7.5252759 c 0,1.5866666 0.998667,2.8653331 2.501334,2.8653331 1.512,0 2.501333,-1.2879998 2.501333,-2.8746665 0,-1.5773332 -0.98,-2.8746665 -2.501333,-2.8746665 -1.521334,0 -2.501334,1.3066666 -2.501334,2.8839999 z m 0.858667,-0.00933 c 0,-1.0826666 0.606667,-2.0719999 1.642667,-2.0719999 1.064,0 1.642666,1.0266666 1.642666,2.0719999 0,1.1013333 -0.606666,2.072 -1.642666,2.072 -1.026667,0 -1.642667,-0.98 -1.642667,-2.072 z"
     style="font-style:normal;font-variant:normal;font-weight:bold;font-stretch:normal;font-size:9.33333302px;line-height:1.25;font-family:Courier;-inkscape-font-specification:'Courier Bold';letter-spacing:0px;word-spacing:0px;fill:#000000;fill-opacity:1;stroke:none;stroke-width:0.125"
     id="path79" />
  <path
     d="m 44.333088,70.448802 v -0.765333 h -0.718666 v -3.910667 h 0.718666 v -0.765333 h -2.855999 v 0.765333 h 1.325333 v 1.222667 h -0.326667 c -1.092,0 -1.428,0.01867 -1.932,0.308 -0.429333,0.242667 -0.737333,0.830667 -0.737333,1.381333 0,0.616 0.364,1.213334 0.877333,1.502667 0.364,0.205333 0.756,0.261333 1.418667,0.261333 z m -2.239999,-0.765333 c -0.616,0 -0.802667,-0.056 -0.989334,-0.158667 -0.224,-0.121333 -0.438666,-0.429333 -0.438666,-0.812 0,-0.401333 0.233333,-0.681333 0.373333,-0.756 0.224,-0.121333 0.438667,-0.196 1.428,-0.196 h 0.336 v 1.922667 z"
     style="font-style:normal;font-variant:normal;font-weight:bold;font-stretch:normal;font-size:9.33333302px;line-height:1.25;font-family:Courier;-inkscape-font-specification:'Courier Bold';letter-spacing:0px;word-spacing:0px;fill:#000000;fill-opacity:1;stroke:none;stroke-width:0.125"
     id="path82" />
  <path
     d="m 39.072734,70.448802 v -0.765333 h -0.774666 v -3.910667 h 0.774666 v -0.765333 h -4.741333 v 2.025333 h 0.774667 l 0.04667,-1.26 h 2.333333 v 1.717334 h -1.101333 v -0.662667 h -0.774667 v 2.1 h 0.774667 v -0.672 h 1.101333 v 1.428 h -2.249333 l -0.084,-1.250667 h -0.774667 l 0.04667,2.016 z"
     style="font-style:normal;font-variant:normal;font-weight:bold;font-stretch:normal;font-size:9.33333302px;line-height:1.25;font-family:Courier;-inkscape-font-specification:'Courier Bold';letter-spacing:0px;word-spacing:0px;fill:#000000;fill-opacity:1;stroke:none;stroke-width:0.125"
     id="path84" />
  <path
     d="m 33.569714,70.448802 v -0.765333 h -0.728 v -3.910667 h 0.728 v -0.765333 h -2.352 v 0.765333 h 0.812 v 1.558667 h -0.476 c -0.298667,0 -0.410667,-0.112 -0.802667,-0.7 -0.01867,-0.028 -0.541333,-0.830667 -0.905333,-1.624 h -1.437333 v 0.765333 h 0.877333 c 0.634667,1.073334 0.821333,1.344 1.045333,1.652 -1.194666,0.354667 -1.204,1.306667 -1.204,1.493334 0,0.494666 0.252,0.998666 0.616,1.250666 0.373334,0.261334 0.756,0.28 1.334667,0.28 z m -2.492,-0.765333 c -0.672,0 -1.092,-0.121333 -1.092,-0.737333 0,-0.905334 1.036,-0.849334 1.353333,-0.849334 h 0.690667 v 1.586667 z"
     style="font-style:normal;font-variant:normal;font-weight:bold;font-stretch:normal;font-size:9.33333302px;line-height:1.25;font-family:Courier;-inkscape-font-specification:'Courier Bold';letter-spacing:0px;word-spacing:0px;fill:#000000;fill-opacity:1;stroke:none;stroke-width:0.125"
     id="path86" />
  <path
     d="m 27.973359,70.448802 v -0.765333 h -0.728 v -3.910667 h 0.728 v -0.765333 h -2.352 v 0.765333 h 0.812 v 1.558667 h -0.476 c -0.298666,0 -0.410666,-0.112 -0.802666,-0.7 -0.01867,-0.028 -0.541334,-0.830667 -0.905334,-1.624 h -1.437333 v 0.765333 h 0.877333 c 0.634667,1.073334 0.821334,1.344 1.045334,1.652 -1.194667,0.354667 -1.204,1.306667 -1.204,1.493334 0,0.494666 0.252,0.998666 0.616,1.250666 0.373333,0.261334 0.756,0.28 1.334666,0.28 z m -2.492,-0.765333 c -0.672,0 -1.092,-0.121333 -1.092,-0.737333 0,-0.905334 1.036,-0.849334 1.353334,-0.849334 h 0.690666 v 1.586667 z"
     style="font-style:normal;font-variant:normal;font-weight:bold;font-stretch:normal;font-size:9.33333302px;line-height:1.25;font-family:Courier;-inkscape-font-specification:'Courier Bold';letter-spacing:0px;word-spacing:0px;fill:#000000;fill-opacity:1;stroke:none;stroke-width:0.125"
     id="path88" />
  <path
     d="m 22.405006,67.723469 c 0,-1.586667 -0.998667,-2.865333 -2.501333,-2.865333 -1.512,0 -2.501334,1.288 -2.501334,2.874666 0,1.577334 0.98,2.874667 2.501334,2.874667 1.521333,0 2.501333,-1.306667 2.501333,-2.884 z m -0.858667,0.0093 c 0,1.082667 -0.606667,2.072 -1.642666,2.072 -1.064,0 -1.642667,-1.026666 -1.642667,-2.072 0,-1.101333 0.606667,-2.072 1.642667,-2.072 1.026666,0 1.642666,0.98 1.642666,2.072 z"
     style="font-style:normal;font-variant:normal;font-weight:bold;font-stretch:normal;font-size:9.33333302px;line-height:1.25;font-family:Courier;-inkscape-font-specification:'Courier Bold';letter-spacing:0px;word-spacing:0px;fill:#000000;fill-opacity:1;stroke:none;stroke-width:0.125"
     id="path90" />
  <path
     d="m 36.54652,20.039585 v 2.506785 a 4.0759224,4.0759224 0 0 1 -0.423682,1.805693 l -2.345383,4.685722 a 0.93512686,0.93512686 0 0 1 -1.770386,-0.418638 v -5.255676 a 3.9810983,3.9810983 0 0 0 -0.363156,-1.669509 l -1.487931,-4.277171 a 0.71319816,0.71319816 0 0 0 -0.67083,-0.47412 1.0163326,1.0163326 0 0 1 -1.008767,-1.008767 V 15.42952 l 1.149994,-0.287498 a 2.0336739,2.0336739 0 0 1 1.608984,0.277411 l 4.413354,2.940555 a 2.0175337,2.0175337 0 0 1 0.897803,1.679597 z"
     id="path2"
     style="fill:#414952;stroke-width:0.50438344" />
  <path
     d="m 35.537753,43.372362 v 2.320163 H 8.3010484 v -2.320163 a 5.1704344,5.1704344 0 0 1 0.1916657,-1.387055 l 0.3328931,-1.149994 a 5.5179546,5.5179546 0 0 1 1.8662188,-2.804372 5.6021866,5.6021866 0 0 0 1.68464,-2.269725 l 0.408551,-1.028942 4.09055,4.90765 3.530683,1.008767 h 3.026301 l 3.530684,-1.008767 4.090549,-4.90765 0.408551,1.028942 a 5.6021866,5.6021866 0 0 0 1.684641,2.269725 5.5179546,5.5179546 0 0 1 1.866218,2.804372 l 0.332893,1.149994 a 5.1704344,5.1704344 0 0 1 0.191666,1.387055 z"
     id="path4"
     style="fill:#333940;stroke-width:0.50438344" />
  <path
     d="M 12.785017,34.732274 12.300809,34.147189 A 2.0119855,2.0119855 0 0 1 11.831732,32.855967 V 32.24062 a 2.0296389,2.0296389 0 0 1 0.403507,-1.210521 l 1.013811,-1.351747 0.09583,0.378287 2.526961,3.78792 c 0.05548,1.4728 0.585084,3.273448 2.012489,3.273448 1.513151,0 3.026301,-1.51315 3.026301,-1.51315 h 2.017534 c 0,0 1.51315,1.51315 3.0263,1.51315 1.427405,0 1.957008,-1.800648 2.01249,-3.273448 l 2.526961,-3.78792 0.09583,-0.378287 1.01381,1.351747 a 2.0296389,2.0296389 0 0 1 0.403507,1.210521 v 0.615347 a 2.0119855,2.0119855 0 0 1 -0.469076,1.291222 l -0.484209,0.585085 -4.090549,4.90765 -3.530684,1.008767 H 20.40625 l -3.530683,-1.008767 z"
     id="path6"
     style="fill:#e6ab69;stroke-width:0.50438344" />
  <path
     d="m 15.871844,33.844559 -2.526961,-3.78792 -0.09583,-0.378287 -1.417318,-5.674314 v -0.640567 a 3.9810983,3.9810983 0 0 1 0.363156,-1.669509 l 1.487931,-4.277171 a 0.71319816,0.71319816 0 0 1 0.67083,-0.47412 1.0117931,1.0117931 0 0 0 1.008767,-1.008767 V 15.42952 l 1.936833,-0.645611 a 7.028583,7.028583 0 0 1 2.234418,-0.363156 h 4.771467 a 7.028583,7.028583 0 0 1 2.234419,0.363156 l 1.936832,0.645611 v 0.504384 a 1.0163326,1.0163326 0 0 0 1.008767,1.008767 0.71319816,0.71319816 0 0 1 0.67083,0.47412 l 1.487931,4.277171 a 3.9810983,3.9810983 0 0 1 0.363156,1.669509 v 0.640567 l -1.417317,5.674314 -0.09583,0.378287 -2.526961,3.78792 -0.408551,0.615348 a 7.6575491,7.6575491 0 0 0 0.413595,-2.890117 c 0,-3.903928 -2.708539,-7.061368 -6.052601,-7.061368 -3.344062,0 -6.052601,3.15744 -6.052601,7.061368 A 7.6575491,7.6575491 0 0 0 16.2804,34.459907 Z M 27.972002,23.499655 c 0,-0.837276 -0.453945,-1.51315 -1.008767,-1.51315 -0.554822,0 -1.008767,0.675874 -1.008767,1.51315 0,0.837276 0.453945,1.51315 1.008767,1.51315 0.554822,0 1.008767,-0.675874 1.008767,-1.51315 z m -1.008767,-3.530684 c 0,-0.554822 -0.675874,-1.008767 -1.51315,-1.008767 -0.837277,0 -1.513151,0.453945 -1.513151,1.008767 0,0.554822 0.675874,1.008767 1.513151,1.008767 0.837276,0 1.51315,-0.453945 1.51315,-1.008767 z m -7.061368,0 c 0,-0.554822 -0.675874,-1.008767 -1.51315,-1.008767 -0.837277,0 -1.51315,0.453945 -1.51315,1.008767 0,0.554822 0.675873,1.008767 1.51315,1.008767 0.837276,0 1.51315,-0.453945 1.51315,-1.008767 z m -2.017534,3.530684 c 0,-0.837276 -0.453945,-1.51315 -1.008766,-1.51315 -0.554822,0 -1.008767,0.675874 -1.008767,1.51315 0,0.837276 0.453945,1.51315 1.008767,1.51315 0.554821,0 1.008766,-0.675874 1.008766,-1.51315 z"
     id="path8"
     style="fill:#414952;stroke-width:0.50438344" />
  <path
     d="m 27.558407,34.459907 0.408551,-0.615348 c -0.05548,1.4728 -0.585085,3.273448 -2.01249,3.273448 -1.51315,0 -3.0263,-1.51315 -3.0263,-1.51315 h 0.17149 a 2.0175337,2.0175337 0 0 0 1.427405,-0.590129 l 0.418638,-0.418638 0.02018,-0.01009 c 0.282454,0.574997 0.630479,1.018854 0.988591,1.018854 a 1.6372286,1.6372286 0 0 0 1.603939,-1.14495 z"
     id="path10"
     style="fill:#2a2e33;stroke-width:0.50438344" />
  <ellipse
     cx="26.963236"
     cy="23.499655"
     rx="1.0087669"
     ry="1.5131502"
     id="ellipse12"
     style="fill:#e6ab69;stroke-width:0.50438344" />
  <path
     d="M 16.280394,34.459907 A 7.6575491,7.6575491 0 0 1 15.8668,31.56979 c 0,-3.903928 2.708539,-7.061368 6.052601,-7.061368 3.344062,0 6.052601,3.15744 6.052601,7.061368 a 7.6575491,7.6575491 0 0 1 -0.413595,2.890117 1.6372286,1.6372286 0 0 1 -1.603939,1.14495 c -0.358112,0 -0.706137,-0.443857 -0.988591,-1.018854 A 7.1153369,7.1153369 0 0 1 24.441318,33.08294 l -1.008767,-1.51315 -1.51315,-0.504384 -1.513151,0.504384 -1.008766,1.51315 a 7.1153369,7.1153369 0 0 1 -0.524559,1.503063 C 18.59047,35.161 18.242446,35.604857 17.884333,35.604857 a 1.6372286,1.6372286 0 0 1 -1.603939,-1.14495 z m 3.142309,-5.422122 a 0.63754064,0.63754064 0 0 0 0.453945,0.47412 l 2.042753,0.544734 2.042753,-0.544734 a 0.63754064,0.63754064 0 0 0 0.453945,-0.47412 0.6783957,0.6783957 0 0 0 0.02522,-0.176534 v -0.822145 c 0,-1.114688 -1.129819,-2.017534 -2.521917,-2.017534 -1.392098,0 -2.521917,0.902846 -2.521917,2.017534 v 0.822145 a 0.6783957,0.6783957 0 0 0 0.02522,0.176534 z"
     id="path14"
     style="fill:#e6ab69;stroke-width:0.50438344" />
  <ellipse
     cx="25.450085"
     cy="19.968971"
     rx="1.5131502"
     ry="1.0087669"
     id="ellipse16"
     style="fill:#e6ab69;stroke-width:0.50438344" />
  <path
     d="m 24.965877,34.586003 -0.02018,0.01009 -0.418638,0.418638 a 2.0175337,2.0175337 0 0 1 -1.427405,0.590129 h -2.36051 A 2.0175337,2.0175337 0 0 1 19.311738,35.014728 L 18.8931,34.59609 18.87292,34.586 a 7.1153369,7.1153369 0 0 0 0.524559,-1.503063 l 0.796925,0.398463 a 0.99565287,0.99565287 0 0 0 0.448902,0.10592 h 2.55218 a 0.99565287,0.99565287 0 0 0 0.448901,-0.10592 l 0.796926,-0.398463 A 7.1153369,7.1153369 0 0 0 24.965872,34.586 Z m -5.543174,-5.548218 a 0.6783957,0.6783957 0 0 1 -0.02522,-0.176534 v -0.822145 c 0,-1.114688 1.129819,-2.017534 2.521917,-2.017534 1.392098,0 2.521917,0.902846 2.521917,2.017534 v 0.822145 a 0.6783957,0.6783957 0 0 1 -0.02522,0.176534 0.63754064,0.63754064 0 0 1 -0.453945,0.47412 l -2.042753,0.544734 -2.042753,-0.544734 a 0.63754064,0.63754064 0 0 1 -0.453945,-0.47412 z"
     id="path18"
     style="fill:#414952;stroke-width:0.50438344" />
  <path
     d="m 23.432551,31.56979 1.008767,1.51315 -0.796926,0.398463 a 0.99565287,0.99565287 0 0 1 -0.448901,0.10592 h -0.267323 z"
     id="path20"
     style="fill:#fafcff;stroke-width:0.50438344" />
  <path
     d="m 23.432551,31.56979 -0.504383,2.017533 H 20.910634 L 20.40625,31.56979 21.919401,31.065406 Z"
     id="path22"
     style="fill:#e68d79;stroke-width:0.50438344" />
  <path
     d="m 20.40625,31.56979 0.504384,2.017533 h -0.267323 a 0.99565287,0.99565287 0 0 1 -0.448902,-0.10592 L 19.397484,33.08294 Z"
     id="path24"
     style="fill:#fafcff;stroke-width:0.50438344" />
  <path
     d="m 20.739144,35.604857 h 0.17149 c 0,0 -1.51315,1.51315 -3.026301,1.51315 -1.427405,0 -1.957007,-1.800648 -2.012489,-3.273448 l 0.40855,0.615348 a 1.6372286,1.6372286 0 0 0 1.603939,1.14495 c 0.358113,0 0.706137,-0.443857 0.988592,-1.018854 l 0.02018,0.01009 0.418638,0.418638 a 2.0175337,2.0175337 0 0 0 1.427406,0.590129 z"
     id="path26"
     style="fill:#2a2e33;stroke-width:0.50438344" />
  <ellipse
     cx="18.388718"
     cy="19.968971"
     rx="1.5131502"
     ry="1.0087669"
     id="ellipse28"
     style="fill:#e6ab69;stroke-width:0.50438344" />
  <ellipse
     cx="16.875566"
     cy="23.499655"
     rx="1.0087669"
     ry="1.5131502"
     id="ellipse30"
     style="fill:#e6ab69;stroke-width:0.50438344" />
  <path
     d="m 15.362416,15.42952 v 0.504384 a 1.0117931,1.0117931 0 0 1 -1.008767,1.008767 0.71319816,0.71319816 0 0 0 -0.67083,0.47412 l -1.487931,4.277171 a 3.9810983,3.9810983 0 0 0 -0.363156,1.669509 v 5.255676 a 0.93512686,0.93512686 0 0 1 -1.770385,0.418638 L 7.7159636,24.352063 A 4.0759224,4.0759224 0 0 1 7.2922816,22.54637 V 20.039585 A 2.0175337,2.0175337 0 0 1 8.190084,18.359988 l 4.413355,-2.940555 a 2.0336739,2.0336739 0 0 1 1.608983,-0.277411 z"
     id="path32"
     style="fill:#414952;stroke-width:0.50438344" />
  <path
     d="m 22.928168,28.179829 v -0.140723 a 0.50438342,0.50438342 0 0 0 -0.504384,-0.504384 h -1.008767 a 0.50438342,0.50438342 0 0 0 -0.504383,0.504384 v 0.140723 a 0.50438342,0.50438342 0 0 1 -0.344998,0.47866 l -1.142429,0.380809 a 0.63754064,0.63754064 0 0 0 0.453945,0.472607 l 2.042249,0.544734 2.042753,-0.544734 a 0.63754064,0.63754064 0 0 0 0.453945,-0.472607 L 23.27367,28.658489 a 0.50438342,0.50438342 0 0 1 -0.345502,-0.47866 z"
     id="path34"
     style="fill:#2a2e33;stroke-width:0.50438344" />
  <path
     d="m 16.14875,37.084718 -1.934815,-2.764021 a 2.0175337,2.0175337 0 0 1 0.07768,-2.41751 l 0.15535,-0.194692 -1.102077,-1.651856 -0.09583,-0.378287 -1.013811,1.351747 A 2.0296389,2.0296389 0 0 0 11.83174,32.24062 v 0.615347 a 2.0119855,2.0119855 0 0 0 0.469077,1.291222 l 0.484208,0.585085 4.09055,4.90765 V 39.39782 A 4.0350674,4.0350674 0 0 0 16.14875,37.084718 Z m 15.454812,-6.054619 -1.01381,-1.351747 -0.09583,0.378287 -1.101069,1.650343 0.157368,0.196205 a 2.0175337,2.0175337 0 0 1 0.07717,2.41751 l -1.934815,2.764021 a 4.0350674,4.0350674 0 0 0 -0.729338,2.314111 v 0.241095 l 4.090549,-4.90765 0.484209,-0.585085 a 2.0119855,2.0119855 0 0 0 0.469076,-1.291222 V 32.24062 a 2.0296389,2.0296389 0 0 0 -0.403507,-1.210521 z"
     id="path36"
     style="fill:#414952;stroke-width:0.50438344" />
  <path
     d="m 24.441318,28.039106 c 0,-1.114688 -1.129819,-2.017534 -2.521917,-2.017534 -1.392098,0 -2.521917,0.902846 -2.521917,2.017534 v 0.822145 a 0.56844011,0.56844011 0 0 0 0.01261,0.08726 c 0.06607,-1.067275 1.160082,-1.916657 2.509308,-1.916657 1.349225,0 2.443233,0.850895 2.509307,1.916657 a 0.56844011,0.56844011 0 0 0 0.01261,-0.08726 z"
     id="path38"
     style="fill:#555a66;stroke-width:0.50438344" />
  <path
     d="m 23.962154,29.511905 -2.042753,0.544734 -2.042753,-0.544734 a 0.63754064,0.63754064 0 0 1 -0.453945,-0.47412 0.82668443,0.82668443 0 0 1 -0.01261,-0.08928 c 0,0.03379 -0.01261,0.06557 -0.01261,0.100877 v 0.822145 a 0.6783957,0.6783957 0 0 0 0.02522,0.176534 0.63754064,0.63754064 0 0 0 0.453945,0.47412 l 2.042753,0.543221 2.042753,-0.544734 a 0.63754064,0.63754064 0 0 0 0.453945,-0.47412 0.6783957,0.6783957 0 0 0 0.02522,-0.176534 v -0.822145 c 0,-0.03379 -0.01059,-0.06557 -0.01261,-0.100877 a 0.82668443,0.82668443 0 0 1 -0.01261,0.08928 0.63754064,0.63754064 0 0 1 -0.453945,0.475633 z"
     id="path40"
     style="fill:#b58753;stroke-width:0.50438344" />
  <path
     d="m 23.199526,32.500881 0.233025,-0.931091 -1.51315,-0.504384 -1.513151,0.504384 0.233026,0.931091 1.280125,-0.426708 z"
     id="path42"
     style="fill:#c76f5f;stroke-width:0.50438344" />
  <path
     d="m 25.450085,19.464588 a 1.5247511,1.5247511 0 0 1 1.459181,0.756575 0.68949214,0.68949214 0 0 0 0.05397,-0.252192 c 0,-0.554822 -0.675874,-1.008767 -1.51315,-1.008767 -0.837277,0 -1.513151,0.453945 -1.513151,1.008767 a 0.68949214,0.68949214 0 0 0 0.05397,0.252192 1.5247511,1.5247511 0 0 1 1.459182,-0.756575 z m -7.061368,-0.504384 c -0.837277,0 -1.51315,0.453945 -1.51315,1.008767 a 0.68949214,0.68949214 0 0 0 0.05397,0.252192 1.5247511,1.5247511 0 0 1 1.459181,-0.756575 1.5247511,1.5247511 0 0 1 1.459181,0.756575 0.68949214,0.68949214 0 0 0 0.05397,-0.252192 c 0,-0.554822 -0.675874,-1.008767 -1.51315,-1.008767 z"
     id="path44"
     style="fill:#ffbe74;stroke-width:0.50438344" />
  <path
     d="m 25.450085,20.977738 a 1.5247511,1.5247511 0 0 1 -1.459182,-0.756575 0.68949214,0.68949214 0 0 0 -0.05397,0.252191 c 0,0.554822 0.675874,1.008767 1.513151,1.008767 0.837276,0 1.51315,-0.453945 1.51315,-1.008767 a 0.68949214,0.68949214 0 0 0 -0.05397,-0.252191 1.5247511,1.5247511 0 0 1 -1.459181,0.756575 z m -7.061368,0 a 1.5247511,1.5247511 0 0 1 -1.459181,-0.756575 0.68949214,0.68949214 0 0 0 -0.05397,0.252191 c 0,0.554822 0.675873,1.008767 1.51315,1.008767 0.837276,0 1.51315,-0.453945 1.51315,-1.008767 a 0.68949214,0.68949214 0 0 0 -0.05397,-0.252191 1.5247511,1.5247511 0 0 1 -1.459181,0.756575 z"
     id="path46"
     style="fill:#2a2e33;stroke-width:0.50438344" />
  <path
     d="m 21.913853,26.021572 h 0.01261 a 7.3639979,7.3639979 0 0 1 5.32175,2.205669 c -1.021377,-2.213739 -3.022266,-3.718819 -5.328811,-3.718819 -2.316129,0 -4.323071,1.518194 -5.339908,3.747064 a 7.3559278,7.3559278 0 0 1 5.334359,-2.233914 z"
     id="path48"
     style="fill:#ffbe74;stroke-width:0.50438344" />
  <path
     d="m 23.453735,30.932249 a 3.7672398,3.7672398 0 0 1 1.905056,2.075033 2.4432333,2.4432333 0 0 0 2.140099,1.577207 c 0.01967,-0.04186 0.04136,-0.0807 0.05952,-0.124582 A 7.6575491,7.6575491 0 0 0 27.972002,31.56979 8.0746742,8.0746742 0 0 0 27.50343,28.84158 c -0.741948,1.013306 -2.293936,1.793587 -4.049695,2.090669 z"
     id="path50"
     style="fill:#cf9a5e;stroke-width:0.50438344" />
  <path
     d="m 25.358791,33.007282 a 3.7687529,3.7687529 0 0 0 -2.574877,-2.320163 0.49480014,0.49480014 0 0 1 -0.36013,-0.484208 v -0.280942 l -0.488747,0.130635 -0.488748,-0.130635 v 0.280942 a 0.49480014,0.49480014 0 0 1 -0.36013,0.48219 3.7687529,3.7687529 0 0 0 -2.574877,2.320164 2.4432333,2.4432333 0 0 1 -2.140099,1.579224 1.6054524,1.6054524 0 0 0 1.544422,1.020368 c 0.358112,0 0.706137,-0.443857 0.988592,-1.018854 a 7.1153369,7.1153369 0 0 0 0.524558,-1.503063 l 1.008767,-1.51315 1.497515,-0.49934 1.497514,0.49934 1.008767,1.51315 a 7.1153369,7.1153369 0 0 0 0.524559,1.503063 c 0.282454,0.574997 0.630479,1.018854 0.988591,1.018854 a 1.6054524,1.6054524 0 0 0 1.544422,-1.020368 2.4432333,2.4432333 0 0 1 -2.140099,-1.577207 z"
     id="path52"
     style="fill:#414952;stroke-width:0.50438344" />
  <path
     d="m 24.441318,33.08294 -0.796926,0.398463 a 0.99565287,0.99565287 0 0 1 -0.448901,0.10592 h -2.55218 a 0.99565287,0.99565287 0 0 1 -0.448902,-0.10592 L 19.397484,33.08294 a 7.1153369,7.1153369 0 0 1 -0.524559,1.503063 l 0.02018,0.01009 0.418638,0.418638 a 1.9222052,1.9222052 0 0 0 0.168969,0.138202 l 0.125087,-0.677387 a 0.81205731,0.81205731 0 0 1 1.13335,-0.469581 0.81104854,0.81104854 0 0 0 0.363156,0.08575 h 1.634202 a 0.81104854,0.81104854 0 0 0 0.363156,-0.08575 0.81205731,0.81205731 0 0 1 1.133349,0.469581 l 0.125088,0.677387 a 1.9222052,1.9222052 0 0 0 0.168968,-0.138202 l 0.418638,-0.418638 0.02018,-0.01009 A 7.1153369,7.1153369 0 0 1 24.441318,33.08294 Z m 10.890647,-7.983885 a 0.99918356,0.99918356 0 0 1 -1.811746,-0.58105 v -0.193179 a 6.0576449,6.0576449 0 0 0 -0.554821,-2.536544 l -2.254594,-4.883945 a 0.80196964,0.80196964 0 0 0 -0.729843,-0.46605 0.80096087,0.80096087 0 0 1 -0.717233,-0.443353 l -0.189144,-0.716729 -0.598199,0.151315 v 0.504384 a 1.0163326,1.0163326 0 0 0 1.008767,1.008767 0.71319816,0.71319816 0 0 1 0.67083,0.47412 l 1.487931,4.277171 a 3.9810983,3.9810983 0 0 1 0.363156,1.669509 v 5.255676 a 0.93512686,0.93512686 0 0 0 1.770386,0.418638 l 2.345383,-4.685722 a 4.0935758,4.0935758 0 0 0 0.277411,-0.748505 z M 14.575074,15.994934 a 0.80096087,0.80096087 0 0 1 -0.717233,0.443353 0.80196964,0.80196964 0 0 0 -0.727826,0.46605 l -2.256611,4.883945 a 6.0576449,6.0576449 0 0 0 -0.554822,2.536544 v 0.193179 a 0.99918356,0.99918356 0 0 1 -1.8117452,0.58105 l -1.068284,-1.495497 a 4.0935758,4.0935758 0 0 0 0.2774108,0.748505 l 2.3453834,4.685722 a 0.93512686,0.93512686 0 0 0 1.770385,-0.418638 v -5.255676 a 3.9810983,3.9810983 0 0 1 0.363156,-1.669509 l 1.487931,-4.277171 a 0.71319816,0.71319816 0 0 1 0.67083,-0.47412 1.0117931,1.0117931 0 0 0 1.008767,-1.008767 V 15.42952 l -0.598198,-0.151315 z"
     id="path54"
     style="fill:#2a2e33;stroke-width:0.50438344" />
  <path
     d="m 19.389414,15.42952 h 5.028198 a 7.7710354,7.7710354 0 0 1 2.354462,0.363156 l 1.80771,0.571971 A 0.96690302,0.96690302 0 0 1 28.476385,15.933904 V 15.42952 l -1.936832,-0.645611 a 7.028583,7.028583 0 0 0 -2.234419,-0.363156 h -4.771467 a 7.028583,7.028583 0 0 0 -2.234418,0.363156 l -1.936833,0.645611 v 0.504384 a 1.0491175,1.0491175 0 0 1 -0.01211,0.120547 l 0.04237,-0.120547 -0.04237,0.120547 a 1.020872,1.020872 0 0 1 -0.08978,0.299604 l 1.774421,-0.561379 a 7.7675047,7.7675047 0 0 1 2.354462,-0.363156 z"
     id="path56"
     style="fill:#555a66;stroke-width:0.50438344" />
  <path
     d="m 31.643913,21.693962 -1.487931,-4.277171 a 0.71319816,0.71319816 0 0 0 -0.67083,-0.47412 0.98606959,0.98606959 0 0 1 -0.711181,-0.297587 0.96589425,0.96589425 0 0 1 -0.0802,-0.09533 l 2.100253,5.951724 a 3.984629,3.984629 0 0 1 -1.298787,4.50717 5.0024748,5.0024748 0 0 1 -2.364045,0.980017 7.9243679,7.9243679 0 0 1 0.840807,3.581123 7.6575491,7.6575491 0 0 1 -0.413595,2.890117 l 0.408551,-0.615348 2.526961,-3.78792 0.09583,-0.378287 1.417317,-5.674314 V 23.363469 A 3.9810983,3.9810983 0 0 0 31.643907,21.69396 Z m -18.568876,0.806509 2.12749,-6.026877 a 1.0087668,1.0087668 0 0 1 -0.848878,0.469077 0.71319816,0.71319816 0 0 0 -0.67083,0.47412 l -1.487931,4.277171 a 3.9810983,3.9810983 0 0 0 -0.363156,1.669509 v 0.640567 l 1.417318,5.674314 0.09583,0.378287 2.526961,3.78792 0.40855,0.615348 A 7.6575491,7.6575491 0 0 1 15.8668,31.56979 7.9278986,7.9278986 0 0 1 16.709624,27.988667 5.001466,5.001466 0 0 1 14.373825,27.010164 3.984629,3.984629 0 0 1 13.075037,22.500471 Z"
     id="path58"
     style="fill:#333940;stroke-width:0.50438344" />
  <path
     d="m 16.371183,34.584489 a 2.4432333,2.4432333 0 0 0 2.140099,-1.577207 3.7637091,3.7637091 0 0 1 1.669005,-1.948937 c -2.032665,-0.07061 -3.658293,-1.076354 -3.794981,-2.342861 a 8.0378542,8.0378542 0 0 0 -0.518506,2.854306 7.6575491,7.6575491 0 0 0 0.413594,2.890117 1.6372286,1.6372286 0 0 0 1.603939,1.14495 h 0.0091 a 1.6039393,1.6039393 0 0 1 -1.522229,-1.020368 z"
     id="path60"
     style="fill:#cf9a5e;stroke-width:0.50438344" />
  <path
     d="m 15.705901,36.451717 a 3.095401,3.095401 0 0 0 1.017846,1.871262 4.0275016,4.0275016 0 0 0 -0.574997,-1.238261 z"
     id="path62"
     style="fill:#333940;stroke-width:0.50438344" />
  <path
     d="m 12.916157,31.56979 0.95278,1.361835 A 2.0069416,2.0069416 0 0 1 14.29161,31.9047 l 0.15535,-0.194692 -1.102077,-1.653369 -0.09583,-0.378287 -0.615348,0.820127 0.182082,0.693023 z m 17.577762,-1.513151 -1.101069,1.650343 0.157368,0.196205 a 2.0044197,2.0044197 0 0 1 0.421664,1.023898 l 0.950763,-1.357295 0.100876,-0.378288 0.182083,-0.693023 -0.615852,-0.820127 z"
     id="path64"
     style="fill:#2a2e33;stroke-width:0.50438344" />
  <path
     d="m 27.118585,38.319953 a 3.095401,3.095401 0 0 0 1.013306,-1.862688 l -0.439318,0.627453 a 4.0380937,4.0380937 0 0 0 -0.573988,1.235235 z"
     id="path66"
     style="fill:#333940;stroke-width:0.50438344" />
  <path
     d="m 13.868937,32.931625 1.700781,2.427597 a 6.4344193,6.4344193 0 0 0 0.136183,1.094008 l 0.442849,0.633001 a 4.0275016,4.0275016 0 0 1 0.574997,1.238261 1.5852771,1.5852771 0 0 0 0.958833,0.306666 c 1.588808,0 3.177616,-1.513151 3.177616,-1.513151 h 2.11841 c 0,0 1.588808,1.513151 3.177615,1.513151 a 1.5827552,1.5827552 0 0 0 0.962364,-0.311205 4.0380937,4.0380937 0 0 1 0.573988,-1.235235 l 0.439318,-0.627453 a 6.4500552,6.4500552 0 0 0 0.137193,-1.099556 l 1.702798,-2.430624 a 2.0044197,2.0044197 0 0 0 -0.421664,-1.023898 l -0.157368,-0.196205 -1.425892,2.137577 c -0.05548,1.4728 -0.585085,3.273448 -2.01249,3.273448 -1.51315,0 -3.0263,-1.51315 -3.0263,-1.51315 h -2.017534 c 0,0 -1.51315,1.51315 -3.026301,1.51315 -1.427405,0 -1.957007,-1.800648 -2.012489,-3.273448 l -1.424884,-2.136064 -0.15535,0.194692 a 2.0069416,2.0069416 0 0 0 -0.422673,1.028438 z"
     id="path68"
     style="fill:#cf9a5e;stroke-width:0.50438344" />
  <path
     d="m 22.423784,42.161842 c 5.112431,0 9.304361,-2.758978 10.903257,-3.975046 -0.05952,-0.05044 -0.118026,-0.106425 -0.180065,-0.155855 a 5.6021866,5.6021866 0 0 1 -1.684641,-2.269725 l -0.408551,-1.028942 -4.090549,4.90765 -3.530684,1.008767 H 20.40625 l -3.530683,-1.008767 -4.09055,-4.90765 -0.408551,1.028942 a 5.6021866,5.6021866 0 0 1 -1.68464,2.269725 c -0.06204,0.05044 -0.120548,0.100877 -0.180065,0.155855 1.598895,1.216068 5.790826,3.975046 10.903256,3.975046 z"
     id="path70"
     style="fill:#2a2e33;stroke-width:0.50438344" />
  <path
     d="m 10.482002,41.985307 0.283464,-1.149994 a 5.8508477,5.8508477 0 0 1 0.830215,-1.882359 20.435599,20.435599 0 0 1 -1.08392,-0.766158 5.511902,5.511902 0 0 0 -1.6861538,2.648517 l -0.3328931,1.149994 a 5.1704344,5.1704344 0 0 0 -0.1916657,1.387055 v 2.320163 h 2.0175336 v -2.320163 a 6.0147723,6.0147723 0 0 1 0.16342,-1.387055 z m 24.864085,0 -0.332893,-1.149994 a 5.511902,5.511902 0 0 0 -1.686153,-2.648517 c -0.281951,0.214363 -0.649142,0.47866 -1.08392,0.766158 a 5.8442907,5.8442907 0 0 1 0.830215,1.882359 l 0.283463,1.149994 a 6.0147723,6.0147723 0 0 1 0.16342,1.387055 v 2.320163 h 2.017534 v -2.320163 a 5.1704344,5.1704344 0 0 0 -0.191666,-1.387055 z"
     id="path72"
     style="fill:#414952;stroke-width:0.50438344" />
  <ellipse
     cx="26.711042"
     cy="23.499655"
     rx="0.75657511"
     ry="1.4591812"
     id="ellipse74"
     style="fill:#2f261f;stroke-width:0.50438344" />
  <ellipse
     cx="17.127758"
     cy="23.499655"
     rx="0.75657511"
     ry="1.4591812"
     id="ellipse76"
     style="fill:#2f261f;stroke-width:0.50438344" />
  <path
     d="m 26.963235,21.482121 c -0.848373,0 -1.51315,0.886202 -1.51315,2.017534 0,1.131332 0.664777,2.017534 1.51315,2.017534 0.848373,0 1.51315,-0.886202 1.51315,-2.017534 0,-1.131332 -0.664777,-2.017534 -1.51315,-2.017534 z m 0,3.530684 c -0.554822,0 -1.008767,-0.677387 -1.008767,-1.51315 0,-0.835763 0.453945,-1.51315 1.008767,-1.51315 0.554822,0 1.008767,0.677387 1.008767,1.51315 0,0.835763 -0.451423,1.51315 -1.008767,1.51315 z M 16.875567,21.482121 c -0.848373,0 -1.513151,0.886202 -1.513151,2.017534 0,1.131332 0.664778,2.017534 1.513151,2.017534 0.848372,0 1.51315,-0.886202 1.51315,-2.017534 0,-1.131332 -0.664778,-2.017534 -1.51315,-2.017534 z m 0,3.530684 c -0.557344,0 -1.008767,-0.677387 -1.008767,-1.51315 0,-0.835763 0.451423,-1.51315 1.008767,-1.51315 0.557343,0 1.008766,0.677387 1.008766,1.51315 0,0.835763 -0.451423,1.51315 -1.008766,1.51315 z"
     id="path78"
     style="fill:#2a2e33;stroke-width:0.50438344" />
  <circle
     id="circle80"
     r="0.25219172"
     cy="31.317598"
     cx="24.69351"
     style="fill:#414952;stroke-width:0.50438344" />
  <circle
     id="circle82"
     r="0.25219172"
     cy="31.821981"
     cx="25.702276"
     style="fill:#414952;stroke-width:0.50438344" />
  <circle
     id="circle84"
     r="0.25219172"
     cy="29.804447"
     cx="25.197893"
     style="fill:#414952;stroke-width:0.50438344" />
  <circle
     id="circle86"
     r="0.25219172"
     cy="30.813215"
     cx="25.702276"
     style="fill:#414952;stroke-width:0.50438344" />
  <circle
     id="circle88"
     r="0.25219172"
     cy="31.821981"
     cx="26.711042"
     style="fill:#414952;stroke-width:0.50438344" />
  <circle
     id="circle90"
     r="0.25219172"
     cy="30.813215"
     cx="27.215427"
     style="fill:#414952;stroke-width:0.50438344" />
  <circle
     id="circle92"
     r="0.25219172"
     cy="31.317598"
     cx="18.640909"
     style="fill:#414952;stroke-width:0.50438344" />
  <circle
     id="circle94"
     r="0.25219172"
     cy="32.326366"
     cx="18.136524"
     style="fill:#414952;stroke-width:0.50438344" />
  <circle
     id="circle96"
     r="0.25219172"
     cy="29.804447"
     cx="18.640909"
     style="fill:#414952;stroke-width:0.50438344" />
  <circle
     id="circle98"
     r="0.25219172"
     cy="30.30883"
     cx="17.632141"
     style="fill:#414952;stroke-width:0.50438344" />
  <circle
     id="circle100"
     r="0.25219172"
     cy="31.821981"
     cx="17.127758"
     style="fill:#414952;stroke-width:0.50438344" />
  <circle
     id="circle102"
     r="0.25219172"
     cy="30.813215"
     cx="16.623375"
     style="fill:#414952;stroke-width:0.50438344" />
  <ellipse
     cx="-2.9165902"
     cy="35.112373"
     rx="0.41611633"
     ry="0.57903218"
     transform="rotate(-45)"
     id="ellipse106"
     style="fill:#f6fafd;stroke-width:0.50438344" />
  <ellipse
     cx="2.5205584"
     cy="35.915138"
     rx="0.20831035"
     ry="0.28951609"
     transform="rotate(-45)"
     id="ellipse108"
     style="fill:#f6fafd;stroke-width:0.50438344" />
  <ellipse
     cx="-3.5432291"
     cy="34.129501"
     rx="0.20831035"
     ry="0.28951609"
     transform="rotate(-45)"
     id="ellipse110"
     style="fill:#f6fafd;stroke-width:0.50438344" />
  <ellipse
     cx="-4.9612765"
     cy="28.414484"
     rx="0.28951609"
     ry="0.20831035"
     transform="rotate(-45)"
     id="ellipse112"
     style="fill:#f6fafd;stroke-width:0.50438344" />
</svg>
