<?xml version="1.0" encoding="UTF-8" standalone="no"?>
<svg
   xmlns="http://www.w3.org/2000/svg"
   height="597.75867"
   width="399.58908"
   id="svg28"
   version="1.1"
   viewBox="0 0 399.58908 597.75867"
   enable-background="new 0 0 100 100">
  <path
     style="fill:#ffffff;fill-rule:evenodd;stroke-width:4.61941671"
     id="path2-3"
     d="M 67.698975,1.6511947 H 331.89011 c 36.59472,0 66.04779,29.4530703 66.04779,66.0477903 V 530.05965 c 0,36.5908 -29.45307,66.04784 -66.04779,66.04784 H 67.698975 c -36.5921,0 -66.0477803,-29.45832 -66.0477803,-66.04784 V 67.698985 c 0,-36.59472 29.4556803,-66.0477903 66.0477803,-66.0477903 z" />
  <path
     style="fill:none;stroke:#000000;stroke-width:3.30238938"
     id="path4-6"
     d="M 67.698975,1.6511947 H 331.89011 c 36.59472,0 66.04779,29.4530703 66.04779,66.0477903 V 530.05965 c 0,36.5908 -29.45307,66.04784 -66.04779,66.04784 H 67.698975 c -36.5921,0 -66.0477803,-29.45832 -66.0477803,-66.04784 V 67.698985 c 0,-36.59472 29.4556803,-66.0477903 66.0477803,-66.0477903 z" />
  <path
     style="fill:#ff0000;fill-rule:evenodd;stroke-width:4.61941671"
     id="path8-6"
     d="m 298.88062,133.71572 c -145.91008,0 -264.191125,118.28499 -264.191125,264.19113 0,36.47952 29.56567,66.04784 66.047765,66.04784 145.91009,0 264.19114,-118.28896 264.19114,-264.19118 0,-36.47948 -29.56829,-66.04779 -66.04778,-66.04779 z" />
  <path
     d="m 42.022201,38.399556 v 6.122667 h 5.749333 v 31.285332 h -5.749333 v 6.122667 H 64.8702 V 75.807555 H 54.267534 v -9.781333 h 2.613333 c 8.736,0 11.424,-0.149333 15.456,-2.464 3.434666,-1.941333 5.898666,-6.645333 5.898666,-11.050666 0,-4.928 -2.912,-9.706666 -7.018666,-12.021333 -2.912,-1.642667 -6.048,-2.090667 -11.349333,-2.090667 z M 59.9422,44.522223 c 4.928,0 6.421334,0.448 7.914667,1.269333 1.792,0.970667 3.509333,3.434667 3.509333,6.496 0,3.210666 -1.866667,5.450666 -2.986667,6.048 -1.792,0.970666 -3.509333,1.568 -11.423999,1.568 h -2.688 V 44.522223 Z"
     style="font-style:normal;font-variant:normal;font-weight:bold;font-stretch:normal;font-size:74.66666412px;line-height:1.25;font-family:Courier;-inkscape-font-specification:'Courier Bold';letter-spacing:0px;word-spacing:0px;fill:#000000;fill-opacity:1;stroke:none;stroke-width:1"
     id="path25" />
  <path
     d="m 84.105033,38.399556 v 6.122667 h 6.197333 v 31.285332 h -6.197333 v 6.122667 H 122.0357 V 65.727555 h -6.19733 l -0.37334,10.08 H 96.798366 V 62.068889 h 8.810664 v 5.301333 h 6.19734 V 50.570223 h -6.19734 v 5.375999 H 96.798366 V 44.522223 h 17.994664 l 0.672,10.005333 h 6.19734 l -0.37334,-16.128 z"
     style="font-style:normal;font-variant:normal;font-weight:bold;font-stretch:normal;font-size:74.66666412px;line-height:1.25;font-family:Courier;-inkscape-font-specification:'Courier Bold';letter-spacing:0px;word-spacing:0px;fill:#000000;fill-opacity:1;stroke:none;stroke-width:1"
     id="path27" />
  <path
     d="m 128.1292,38.399556 v 6.122667 h 5.824 v 31.285332 h -5.824 v 6.122667 h 18.816 v -6.122667 h -6.496 V 63.338222 h 3.808 c 2.38933,0 3.28533,0.896 6.42133,5.6 0.14933,0.224 4.33067,6.645333 7.24267,12.992 h 11.49866 v -6.122667 h -7.01866 c -5.07734,-8.586666 -6.57067,-10.752 -8.36267,-13.215999 9.55733,-2.837334 9.632,-10.453333 9.632,-11.946667 0,-3.957333 -2.016,-7.989333 -4.928,-10.005333 -2.98667,-2.090666 -6.048,-2.24 -10.67733,-2.24 z m 19.936,6.122667 c 5.376,0 8.736,0.970666 8.736,5.898666 0,7.242667 -8.288,6.794667 -10.82667,6.794667 H 140.4492 V 44.522223 Z"
     style="font-style:normal;font-variant:normal;font-weight:bold;font-stretch:normal;font-size:74.66666412px;line-height:1.25;font-family:Courier;-inkscape-font-specification:'Courier Bold';letter-spacing:0px;word-spacing:0px;fill:#000000;fill-opacity:1;stroke:none;stroke-width:1"
     id="path29" />
  <path
     d="m 172.90003,38.399556 v 6.122667 h 5.824 v 31.285332 h -5.824 v 6.122667 h 18.816 v -6.122667 h -6.496 V 63.338222 h 3.808 c 2.38934,0 3.28534,0.896 6.42134,5.6 0.14933,0.224 4.33066,6.645333 7.24266,12.992 h 11.49867 v -6.122667 h -7.01867 c -5.07733,-8.586666 -6.57066,-10.752 -8.36266,-13.215999 9.55733,-2.837334 9.632,-10.453333 9.632,-11.946667 0,-3.957333 -2.016,-7.989333 -4.928,-10.005333 -2.98667,-2.090666 -6.048,-2.24 -10.67734,-2.24 z m 19.936,6.122667 c 5.376,0 8.736,0.970666 8.736,5.898666 0,7.242667 -8.288,6.794667 -10.82666,6.794667 h -5.52534 V 44.522223 Z"
     style="font-style:normal;font-variant:normal;font-weight:bold;font-stretch:normal;font-size:74.66666412px;line-height:1.25;font-family:Courier;-inkscape-font-specification:'Courier Bold';letter-spacing:0px;word-spacing:0px;fill:#000000;fill-opacity:1;stroke:none;stroke-width:1"
     id="path31" />
  <path
     d="m 217.44686,60.202222 c 0,12.693333 7.98934,22.922666 20.01067,22.922666 12.096,0 20.01066,-10.303999 20.01066,-22.997332 0,-12.618667 -7.84,-22.997333 -20.01066,-22.997333 -12.17067,0 -20.01067,10.453333 -20.01067,23.071999 z m 6.86934,-0.07467 c 0,-8.661333 4.85333,-16.576 13.14133,-16.576 8.512,0 13.14133,8.213333 13.14133,16.576 0,8.810666 -4.85333,16.575999 -13.14133,16.575999 -8.21333,0 -13.14133,-7.84 -13.14133,-16.575999 z"
     style="font-style:normal;font-variant:normal;font-weight:bold;font-stretch:normal;font-size:74.66666412px;line-height:1.25;font-family:Courier;-inkscape-font-specification:'Courier Bold';letter-spacing:0px;word-spacing:0px;fill:#000000;fill-opacity:1;stroke:none;stroke-width:1"
     id="path33" />
  <path
     d="m 354.66471,563.59042 v -6.12267 h -5.74934 v -31.28533 h 5.74934 v -6.12267 h -22.848 v 6.12267 h 10.60266 v 9.78133 h -2.61333 c -8.736,0 -11.424,0.14934 -15.456,2.464 -3.43466,1.94134 -5.89866,6.64534 -5.89866,11.05067 0,4.928 2.912,9.70667 7.01866,12.02133 2.912,1.64267 6.048,2.09067 11.34933,2.09067 z m -17.92,-6.12267 c -4.928,0 -6.42133,-0.448 -7.91467,-1.26933 -1.792,-0.97067 -3.50933,-3.43467 -3.50933,-6.496 0,-3.21067 1.86667,-5.45067 2.98667,-6.048 1.792,-0.97067 3.50933,-1.568 11.42399,-1.568 h 2.688 v 15.38133 z"
     style="font-style:normal;font-variant:normal;font-weight:bold;font-stretch:normal;font-size:74.66666412px;line-height:1.25;font-family:Courier;-inkscape-font-specification:'Courier Bold';letter-spacing:0px;word-spacing:0px;fill:#000000;fill-opacity:1;stroke:none;stroke-width:1"
     id="path36" />
  <path
     d="m 312.58188,563.59042 v -6.12267 h -6.19734 v -31.28533 h 6.19734 v -6.12267 h -37.93067 v 16.20267 h 6.19733 l 0.37334,-10.08 h 18.66666 v 13.73867 h -8.81066 v -5.30134 h -6.19734 v 16.8 h 6.19734 v -5.376 h 8.81066 v 11.424 h -17.99466 l -0.672,-10.00533 h -6.19734 l 0.37334,16.128 z"
     style="font-style:normal;font-variant:normal;font-weight:bold;font-stretch:normal;font-size:74.66666412px;line-height:1.25;font-family:Courier;-inkscape-font-specification:'Courier Bold';letter-spacing:0px;word-spacing:0px;fill:#000000;fill-opacity:1;stroke:none;stroke-width:1"
     id="path38" />
  <path
     d="m 268.55771,563.59042 v -6.12267 h -5.824 v -31.28533 h 5.824 v -6.12267 h -18.816 v 6.12267 h 6.496 v 12.46933 h -3.808 c -2.38933,0 -3.28533,-0.896 -6.42133,-5.6 -0.14934,-0.224 -4.33067,-6.64533 -7.24267,-12.992 h -11.49867 v 6.12267 h 7.01867 c 5.07733,8.58667 6.57067,10.752 8.36267,13.216 -9.55734,2.83733 -9.632,10.45333 -9.632,11.94667 0,3.95733 2.016,7.98933 4.928,10.00533 2.98666,2.09067 6.048,2.24 10.67733,2.24 z m -19.936,-6.12267 c -5.376,0 -8.736,-0.97066 -8.736,-5.89866 0,-7.24267 8.288,-6.79467 10.82667,-6.79467 h 5.52533 v 12.69333 z"
     style="font-style:normal;font-variant:normal;font-weight:bold;font-stretch:normal;font-size:74.66666412px;line-height:1.25;font-family:Courier;-inkscape-font-specification:'Courier Bold';letter-spacing:0px;word-spacing:0px;fill:#000000;fill-opacity:1;stroke:none;stroke-width:1"
     id="path40" />
  <path
     d="m 223.78687,563.59042 v -6.12267 h -5.824 v -31.28533 h 5.824 v -6.12267 h -18.816 v 6.12267 h 6.496 v 12.46933 h -3.808 c -2.38933,0 -3.28533,-0.896 -6.42133,-5.6 -0.14933,-0.224 -4.33066,-6.64533 -7.24266,-12.992 h -11.49867 v 6.12267 h 7.01867 c 5.07733,8.58667 6.57066,10.752 8.36266,13.216 -9.55733,2.83733 -9.632,10.45333 -9.632,11.94667 0,3.95733 2.016,7.98933 4.928,10.00533 2.98667,2.09067 6.048,2.24 10.67733,2.24 z m -19.936,-6.12267 c -5.37599,0 -8.73599,-0.97066 -8.73599,-5.89866 0,-7.24267 8.28799,-6.79467 10.82666,-6.79467 h 5.52533 v 12.69333 z"
     style="font-style:normal;font-variant:normal;font-weight:bold;font-stretch:normal;font-size:74.66666412px;line-height:1.25;font-family:Courier;-inkscape-font-specification:'Courier Bold';letter-spacing:0px;word-spacing:0px;fill:#000000;fill-opacity:1;stroke:none;stroke-width:1"
     id="path42" />
  <path
     d="m 179.24005,541.78775 c 0,-12.69333 -7.98934,-22.92266 -20.01067,-22.92266 -12.096,0 -20.01067,10.304 -20.01067,22.99733 0,12.61867 7.84,22.99733 20.01067,22.99733 12.17067,0 20.01067,-10.45333 20.01067,-23.072 z m -6.86934,0.0747 c 0,8.66133 -4.85333,16.576 -13.14133,16.576 -8.512,0 -13.14133,-8.21333 -13.14133,-16.576 0,-8.81067 4.85333,-16.576 13.14133,-16.576 8.21333,0 13.14133,7.84 13.14133,16.576 z"
     style="font-style:normal;font-variant:normal;font-weight:bold;font-stretch:normal;font-size:74.66666412px;line-height:1.25;font-family:Courier;-inkscape-font-specification:'Courier Bold';letter-spacing:0px;word-spacing:0px;fill:#000000;fill-opacity:1;stroke:none;stroke-width:1"
     id="path44" />
  <path
     d="m 85.82068,149.82602 2.50821,-20.73192 c 0.470283,-3.84069 5.016421,-5.64347 7.994913,-3.17445 3.762317,3.09607 8.190877,8.5044 11.208567,17.71423 6.19214,18.85076 -21.71169,6.19214 -21.71169,6.19214 z"
     id="path6"
     style="fill:#d29a66;stroke-width:3.91907692" />
  <path
     d="m 104.43629,271.3566 -35.232496,19.90891 c -1.802771,1.01896 -3.13526,2.62578 -3.8407,4.54613 l -4.820458,13.36405 c -1.88116,5.21238 1.646014,10.81665 7.171912,11.40452 l 0.744623,0.0784 c 3.448785,0.35272 6.779997,-1.41087 8.426011,-4.46775 l 5.290751,-9.91527 39.817827,-9.95445"
     id="path8"
     style="fill:#d29a66;stroke-width:3.91907692" />
  <path
     d="m 203.15784,275.47163 c 0,0 1.80278,15.01007 17.32232,24.57261 15.51955,9.56255 38.79886,24.06313 38.79886,24.06313 l -5.76104,29.62822 c -1.01896,5.29076 3.01769,10.1896 8.38683,10.1896 3.68393,0 6.93676,-2.35144 8.11248,-5.87861 l 11.99238,-36.17308 c 0.82301,-2.50821 0.47029,-5.29076 -1.01896,-7.48543 L 265.51036,291.50065 243.28919,265.3996 h -23.51446 z"
     id="path10"
     style="fill:#d29a66;stroke-width:3.91907692" />
  <path
     d="m 223.85057,210.96362 c 0,0 19.86972,3.37041 26.25781,-14.81411 2.1555,-6.15295 1.99873,-12.89376 -0.11757,-19.04671 L 226.82907,109.146 c -1.37168,-4.03665 2.27306,-7.95572 6.38809,-6.89757 14.38301,3.76231 41.1895,14.8533 50.125,46.2843 12.42347,43.69771 -15.01007,68.50546 -36.44742,70.34743"
     id="path12"
     style="fill:#d29a66;stroke-width:3.91907692" />
  <path
     id="path16"
     d="m 67.988878,164.05227 -26.179435,11.16937 c -3.331212,1.41087 -5.01642,5.17318 -3.879883,8.58278 l 2.351442,7.05434 c 0.431099,1.29329 1.254111,2.46901 2.312259,3.29202 3.801505,2.93931 15.049251,9.32741 45.774813,16.18579 l 3.370407,34.64464 c 0,0 2.86093,25.08209 17.047989,41.11111 l -28.687639,63.41067 c -2.351453,5.17319 0.90138,11.13018 6.505667,11.99238 l 0.783807,0.11757 c 3.135271,0.47028 6.309715,-0.82301 8.190875,-3.4096 l 47.34245,-64.58638 72.6205,-17.32233 c 0,0 13.44243,23.00499 49.14522,25.59158 l 34.13516,2.86092 9.64093,22.45632 c 2.46902,5.76104 10.15041,6.97595 14.26544,2.27306 l 0.8622,-0.97977 c 1.95953,-2.23388 2.62578,-5.29076 1.76358,-8.11249 L 315.04749,286.641 c -0.78382,-2.58659 -2.74335,-4.62451 -5.29076,-5.5651 l -26.7281,-9.68011 c 0,0 -7.48544,-58.1591 -61.29436,-60.51055 l -69.99472,-5.21237 -18.88995,-53.53459 c 0,0 -6.54486,-20.49677 -15.95064,-31.97967 -2.46902,-3.01769 -7.36786,-1.95954 -8.4652,1.80277 l -5.60429,19.5562 -18.341279,5.17318 c 0.03918,0.0392 -13.951908,3.13526 -16.499313,17.36151 z"
     style="fill:#fcd099;stroke-width:3.91907692" />
  <circle
     id="circle18"
     r="7.2502923"
     cy="171.26337"
     cx="88.328896"
     style="fill:#3c3b56;stroke-width:3.91907692" />
  <path
     id="path20"
     d="m 51.881468,177.45551 -7.563814,-3.52716 c -0.509477,-0.23515 -1.097343,-0.27434 -1.646014,-0.0784 l -5.917801,2.03792 c -1.528441,0.35271 -2.273064,2.07711 -1.528441,3.44878 l 2.900114,5.21238 h 0.03918 l 13.638383,-5.13399 c 0.901391,-0.31353 0.940586,-1.56763 0.07837,-1.95954 z"
     style="fill:#61483a;stroke-width:3.91907692" />
  <path
     id="path22"
     d="m 151.70036,201.12674 -65.291825,19.90891 c 0,0 -0.783807,30.25528 7.250301,44.32476 0,0 50.556084,-15.51954 63.489044,-60.39298 z"
     style="fill:#eb5e60;stroke-width:3.91907692" />
  <path
     id="path24"
     d="m 175.52835,181.57055 c -18.81157,0 -22.26035,20.73191 -22.26035,20.73191 l 1.80277,2.35145 c 30.1377,-2.90012 48.20464,-23.08336 48.20464,-23.08336 z"
     style="fill:#e23859;stroke-width:3.91907692" />
  <path
     id="path26"
     d="m 153.268,204.61471 v -13.1289 c 0,-6.81919 3.48798,-13.12891 9.20982,-16.81284 l 26.64973,-17.00879 c -0.0392,0.0392 -15.48036,37.07446 -35.85955,46.95053 z"
     style="fill:#eb5e60;stroke-width:3.91907692" />
</svg>
